<?xml version="1.0" encoding="UTF-8" standalone="no"?>
<!-- Created with Inkscape (http://www.inkscape.org/) -->

<svg
   xmlns:dc="http://purl.org/dc/elements/1.1/"
   xmlns:cc="http://creativecommons.org/ns#"
   xmlns:rdf="http://www.w3.org/1999/02/22-rdf-syntax-ns#"
   xmlns:svg="http://www.w3.org/2000/svg"
   xmlns="http://www.w3.org/2000/svg"
   xmlns:xlink="http://www.w3.org/1999/xlink"
   xmlns:sodipodi="http://sodipodi.sourceforge.net/DTD/sodipodi-0.dtd"
   xmlns:inkscape="http://www.inkscape.org/namespaces/inkscape"
   width="16"
   height="16"
   id="svg2"
   sodipodi:version="0.32"
   inkscape:version="0.48.4 r9939"
   version="1.0"
   sodipodi:docname="Folder 16.svg"
   inkscape:output_extension="org.inkscape.output.svg.inkscape"
   inkscape:export-filename="C:\Users\Ryan\Desktop\bitmap.png"
   inkscape:export-xdpi="90"
   inkscape:export-ydpi="90">
  <defs
     id="defs4">
    <linearGradient
       id="linearGradient3184">
      <stop
         style="stop-color:#dac769;stop-opacity:1"
         offset="0"
         id="stop3186" />
      <stop
         style="stop-color:#f2edb2;stop-opacity:1"
         offset="1"
         id="stop3188" />
    </linearGradient>
    <linearGradient
       id="linearGradient3178">
      <stop
         id="stop3180"
         offset="0"
         style="stop-color:#b79f2f;stop-opacity:1" />
      <stop
         id="stop3182"
         offset="1"
         style="stop-color:#e0d988;stop-opacity:1" />
    </linearGradient>
    <linearGradient
       id="linearGradient3149">
      <stop
         style="stop-color:#ffffff;stop-opacity:0.8"
         offset="0"
         id="stop3151" />
      <stop
         style="stop-color:#ffffff;stop-opacity:0.4"
         offset="1"
         id="stop3153" />
    </linearGradient>
    <linearGradient
       id="linearGradient3175">
      <stop
         style="stop-color:#ffffff;stop-opacity:1;"
         offset="0"
         id="stop3154" />
      <stop
         id="stop3171"
         offset="0.24866499"
         style="stop-color:#ffffb9;stop-opacity:1" />
      <stop
         style="stop-color:#d0bb48;stop-opacity:1"
         offset="1"
         id="stop3179" />
    </linearGradient>
    <linearGradient
       inkscape:collect="always"
       xlink:href="#linearGradient3175"
       id="linearGradient3181"
       x1="2"
       y1="4"
       x2="4.5"
       y2="15"
       gradientUnits="userSpaceOnUse"
       gradientTransform="translate(1,-1)" />
    <linearGradient
       inkscape:collect="always"
       xlink:href="#linearGradient3149"
       id="linearGradient3155"
       x1="8"
       y1="3.5"
       x2="8"
       y2="14.5"
       gradientUnits="userSpaceOnUse" />
    <linearGradient
       inkscape:collect="always"
       xlink:href="#linearGradient3184"
       id="linearGradient3174"
       gradientUnits="userSpaceOnUse"
       gradientTransform="translate(1,-1)"
       x1="10"
       y1="13"
       x2="9"
       y2="5" />
    <linearGradient
       inkscape:collect="always"
       xlink:href="#linearGradient3178"
       id="linearGradient3176"
       gradientUnits="userSpaceOnUse"
       gradientTransform="translate(1,-1)"
       x1="6.5"
       y1="16"
       x2="6.5"
       y2="2" />
  </defs>
  <sodipodi:namedview
     id="base"
     pagecolor="#ffffff"
     bordercolor="#666666"
     borderopacity="1.0"
     gridtolerance="10000"
     guidetolerance="10"
     objecttolerance="10"
     inkscape:pageopacity="0.0"
     inkscape:pageshadow="2"
     inkscape:zoom="32"
     inkscape:cx="2.3831393"
     inkscape:cy="7.6785665"
     inkscape:document-units="px"
     inkscape:current-layer="layer1"
     width="16px"
     height="16px"
     showgrid="true"
     inkscape:grid-points="true"
     inkscape:window-width="1366"
     inkscape:window-height="716"
     inkscape:window-x="-8"
     inkscape:window-y="-8"
     inkscape:window-maximized="1">
    <inkscape:grid
       id="GridFromPre046Settings"
       type="xygrid"
       originx="0px"
       originy="0px"
       spacingx="0.5px"
       spacingy="0.5px"
       color="#0000ff"
       empcolor="#0000ff"
       opacity="0.2"
       empopacity="0.4"
       empspacing="4" />
  </sodipodi:namedview>
  <metadata
     id="metadata7">
    <rdf:RDF>
      <cc:Work
         rdf:about="">
        <dc:format>image/svg+xml</dc:format>
        <dc:type
           rdf:resource="http://purl.org/dc/dcmitype/StillImage" />
        <dc:creator>
          <cc:Agent>
            <dc:title>Arvid Axelsson</dc:title>
          </cc:Agent>
        </dc:creator>
        <cc:license
           rdf:resource="http://creativecommons.org/licenses/by-sa/3.0/" />
        <dc:title></dc:title>
      </cc:Work>
      <cc:License
         rdf:about="http://creativecommons.org/licenses/by-sa/3.0/">
        <cc:permits
           rdf:resource="http://creativecommons.org/ns#Reproduction" />
        <cc:permits
           rdf:resource="http://creativecommons.org/ns#Distribution" />
        <cc:requires
           rdf:resource="http://creativecommons.org/ns#Notice" />
        <cc:requires
           rdf:resource="http://creativecommons.org/ns#Attribution" />
        <cc:permits
           rdf:resource="http://creativecommons.org/ns#DerivativeWorks" />
        <cc:requires
           rdf:resource="http://creativecommons.org/ns#ShareAlike" />
      </cc:License>
    </rdf:RDF>
  </metadata>
  <g
     inkscape:label="Layer 1"
     inkscape:groupmode="layer"
     id="layer1">
    <path
       style="fill:url(#linearGradient3181);fill-opacity:1;fill-rule:evenodd;stroke:none;stroke-width:1px;stroke-linecap:butt;stroke-linejoin:round;stroke-opacity:1"
       d="M 2,2 L 2,14 L 6,15 C 6.4850539,15.121263 7,14.5 7,13.90625 L 7,11.5 L 8,10.53125 L 8,4 C 8,3.5 7.4856761,3.0971352 7,3 L 2,2 z "
       id="path3165"
       sodipodi:nodetypes="ccsccccsc"
       inkscape:export-filename="F:\Development\Kempelton\Firefox\chrome\global\icons\path3165.png"
       inkscape:export-xdpi="90"
       inkscape:export-ydpi="90" />
    <path
       sodipodi:nodetypes="cccc"
       id="path3147"
       d="M 6.5,14 L 6.5,11.25 L 7.5,10.28125 L 7.5,4"
       style="fill:none;fill-opacity:1;fill-rule:evenodd;stroke:url(#linearGradient3155);stroke-width:1px;stroke-linecap:round;stroke-linejoin:round;stroke-opacity:1" />
    <path
       style="fill:#ffffff;fill-opacity:1;stroke:#ffffff;stroke-width:0.18209375;stroke-miterlimit:4;stroke-opacity:1;stroke-dasharray:none"
       d="m 8.5143893,12.743619 0,-1.261214 0.4994919,-0.47633 L 9.513373,10.529745 9.506073,6.6340757 9.498773,2.7384062 6.0087818,2.389509 C 4.0892915,2.1976156 2.500229,2.033115 2.4775319,2.0239522 c -0.022697,-0.00916 2.0270163,-0.014181 4.554919,-0.011152 l 4.5961861,0.00551 0.117412,0.089557 c 0.249471,0.1902869 0.236842,0.090664 0.236973,1.8694655 l 1.25e-4,1.5840226 -0.132812,0.019072 c -0.07305,0.010489 -0.329688,0.044881 -0.570313,0.076427 l -0.4375,0.057355 0.570313,0.00361 0.570304,0.00361 0,0.7933594 0,0.7933597 -0.304687,0.037433 c -0.167578,0.020588 -0.438281,0.055638 -0.601563,0.077888 l -0.296875,0.040454 0.601563,0.00375 0.601562,0.00375 0,0.8387647 0,0.8387644 -0.617187,0.07929 -0.617188,0.07929 0.614546,0.00382 0.614546,0.00382 0.01045,0.6821872 0.01045,0.6821873 0.08753,0.114688 c 0.05463,0.07158 0.07225,0.115229 0.04687,0.116129 -0.02236,7.93e-4 -0.342996,0.04137 -0.712528,0.09017 l -0.671875,0.08873 1.117188,0.0036 1.117187,0.0036 0,1.239441 0,1.239442 -0.07785,0.132839 c -0.04282,0.07306 -0.130708,0.165703 -0.195313,0.20587 l -0.117464,0.07303 -2.039062,0.0089 -2.0390627,0.0089 0,-1.261215 z"
       id="path3017"
       inkscape:connector-curvature="0" />
    <path
       style="fill:#ffffff;fill-opacity:1;stroke:#ffffff;stroke-width:0.18209375;stroke-miterlimit:4;stroke-opacity:1;stroke-dasharray:none"
       d="m 2.2097018,14.040624 -0.1953125,-0.04881 -0.00378,-1.049254 c -0.012245,-3.3984154 0.00873,-9.1423107 0.033442,-9.1571597 0.015645,-0.0094 0.9259189,-0.2201941 2.02283,-0.4684278 C 5.1637923,3.0687387 6.065271,2.8563307 6.070167,2.8449547 6.088325,2.8027617 7.1219832,3.0345185 7.3117863,3.123338 7.593957,3.2553816 7.9206401,3.5741542 7.9206401,3.7174485 c 0,0.035933 -0.013108,0.030425 -0.048772,-0.020492 C 7.7544646,3.5293428 7.4508768,3.4740187 7.260054,3.5854652 7.0836124,3.6885126 7.0155012,3.8491889 7.0149034,4.1637826 l -5.141e-4,0.2704742 0.1953125,-0.015826 c 0.1074219,-0.0087 0.2746862,-0.035495 0.3716981,-0.059537 0.097012,-0.024041 0.2270903,-0.043711 0.2890625,-0.043711 l 0.1126769,0 0,2.3579591 0,2.3579587 -0.1171875,0.018725 c -0.064453,0.010298 -0.2138344,0.039061 -0.3319584,0.063916 -0.1181238,0.024855 -0.2833582,0.045192 -0.3671875,0.045192 -0.1234066,0 -0.1528757,0.010409 -0.1548279,0.054687 -0.00133,0.030078 -0.0036,0.2375 -0.00505,0.4609375 C 7.005368,9.9150694 6.999418,9.9882747 6.99234,9.853995 L 6.980391,9.6271822 6.895828,9.6488412 C 6.849318,9.6607532 6.3682958,9.7723019 5.8268896,9.8967259 l -0.984375,0.2262261 1.046875,0.0033 1.046875,0.0033 -0.4296875,0.41784 c -0.2363281,0.229812 -0.4296875,0.434121 -0.4296875,0.45402 0,0.0199 -0.012532,0.02843 -0.027848,0.01897 -0.015317,-0.0095 -0.264926,0.03788 -0.5546875,0.105223 l -0.5268397,0.122435 0.5086478,0.0023 0.5086481,0.0023 -0.00865,0.459258 -0.00865,0.459258 -0.4992884,0.111055 -0.4992883,0.111054 0.5071008,0.0086 0.5071009,0.0086 0,0.450245 c 0,0.401509 -0.00592,0.452082 -0.054687,0.46721 -0.196,0.0608 -3.3779519,0.767819 -3.4428885,0.764997 -0.044302,-0.0019 -0.1684396,-0.02546 -0.2758615,-0.05231 z M 6.9831393,8.7683085 c 0,-0.1460937 -0.01256,-0.265625 -0.027912,-0.265625 -0.034279,0 -2.2253518,0.4960463 -2.2689634,0.51368 -0.017188,0.00695 0.4925781,0.013746 1.1328125,0.015103 l 1.1640625,0.00247 0,-0.265625 z m 0,-1.125 c 0,-0.1632812 -0.010493,-0.296875 -0.023317,-0.296875 -0.027607,0 -2.5092474,0.5609338 -2.5548084,0.5774722 -0.017188,0.00624 0.5558594,0.012454 1.2734375,0.013811 l 1.3046875,0.00247 0,-0.296875 z M 7.0016084,6.4958354 C 6.9896465,6.3373813 6.9754424,6.2033201 6.9700434,6.197921 6.9606334,6.188511 4.5006526,6.7404363 4.4362643,6.7663988 c -0.017188,0.00693 0.5578771,0.013711 1.2779212,0.015067 l 1.3091713,0.00247 -0.021748,-0.2880982 0,-1.5e-6 z M 6.9831393,5.3620585 c 0,-0.1632812 -0.00352,-0.2966133 -0.00781,-0.2962934 -0.0043,3.197e-4 -0.584375,0.1328608 -1.2890625,0.2945354 l -1.28125,0.2939538 1.2890625,0.00234 1.2890625,0.00234 0,-0.296875 z"
       id="path3019"
       inkscape:connector-curvature="0" />
    <path
       style="fill:#ffffff;fill-opacity:1;stroke:#ffffff;stroke-width:0.18209375;stroke-miterlimit:4;stroke-opacity:1;stroke-dasharray:none"
       d="M 4.3497376,14.585121 C 3.4427729,14.357095 2.7099143,14.161325 2.721163,14.150077 c 0.011249,-0.01125 -0.050162,-0.01209 -0.1364691,-0.0019 -0.098687,0.01169 -0.2444665,-8.91e-4 -0.3928239,-0.0339 l -0.2359027,-0.05248 -0.022512,-0.178009 c -0.03621,-0.286319 0.011202,-10.1443479 0.048849,-10.1568969 0.020892,-0.00696 0.032085,-0.3055582 0.032085,-0.8559296 l 0,-0.8452346 0.1171875,0.019806 c 0.3825204,0.064649 0.3515625,0.066697 0.3515625,-0.023259 l 0,-0.082119 4.5875937,0 4.587593,0 0.132118,0.09716 c 0.212252,0.1560922 0.232237,0.2207569 0.259715,0.8403399 0.01334,0.3007813 0.02366,2.1666334 0.02294,4.1463381 l -0.0013,3.5994631 0.084,0.143329 c 0.06735,0.114921 0.07653,0.152327 0.04632,0.188723 -0.03259,0.03926 0.022,0.04657 0.404301,0.05408 l 0.441974,0.0087 -0.002,1.307814 -0.002,1.307815 -0.0953,0.138507 c -0.05241,0.07618 -0.147042,0.172264 -0.210288,0.21352 l -0.114991,0.07501 -2.085944,0.0099 -2.0859445,0.0099 0.00128,-1.328125 0.00128,-1.328125 0.4825128,-0.453125 0.4825141,-0.453125 5.865e-4,-3.8501468 5.869e-4,-3.8501463 -0.1015625,-0.01669 C 9.2632174,2.7921464 8.5706393,2.7209604 7.7800143,2.6431347 6.9893893,2.565309 5.5216105,2.4169142 4.5182835,2.3133684 3.5149565,2.2098227 2.6885675,2.1305887 2.6818634,2.1372927 c -0.0067,0.0067 0.7086286,0.1563346 1.5896281,0.3325123 1.1260178,0.2251753 1.6390147,0.3153175 1.727045,0.3034711 0.2515122,-0.033846 1.184554,0.1916766 1.47096,0.3555415 0.2783022,0.1592284 0.5445084,0.474302 0.5139034,0.6082409 -0.00393,0.017188 -0.00502,0.1285532 -0.00244,0.2474794 0.00335,0.1539289 0.018494,0.2263125 0.052564,0.2512254 0.042606,0.031154 0.045369,0.2998065 0.025175,2.447254 -0.020396,2.1688571 -0.027717,2.4138318 -0.072562,2.4278546 -0.072825,0.022773 -0.5234647,0.1029107 -0.7139397,0.126961 -0.1571646,0.019844 -0.1640625,0.024687 -0.1640625,0.1151778 0,0.083422 0.00822,0.091979 0.070312,0.073219 0.038672,-0.011684 0.2196125,-0.032431 0.40209,-0.046104 0.1824779,-0.013674 0.3477122,-0.034709 0.3671875,-0.046746 0.025854,-0.015979 0.03541,0.1228072 0.03541,0.5142994 0,0.4280959 -0.01014,0.5575519 -0.0503,0.6421829 -0.027665,0.0583 -0.2526647,0.302238 -0.5,0.542086 l -0.4496991,0.436088 0,0.421069 0,0.421069 -0.2171066,0.04938 c -0.1194084,0.02716 -0.2519293,0.04938 -0.2944909,0.04938 -0.042561,0 -0.1467281,0.01601 -0.2314813,0.03557 l -0.1540968,0.03557 -0.021253,0.42348 c -0.021524,0.428894 -0.043629,0.505381 -0.1460538,0.505381 -0.031256,0 -0.06552,0.01406 -0.076143,0.03125 -0.010865,0.01758 0.014119,0.03125 0.057111,0.03125 0.075299,0 0.076606,0.0047 0.088681,0.320312 0.013948,0.364558 0.08097,0.530906 0.2555912,0.634377 0.1442747,0.08549 0.3969691,0.07908 0.52184,-0.01325 0.053523,-0.03957 0.1049494,-0.06431 0.11428,-0.05498 0.024684,0.02468 -0.1264381,0.271962 -0.229965,0.376287 -0.1641228,0.165386 -0.3074344,0.240414 -0.4838334,0.253299 -0.1368769,0.01 -0.468571,-0.06347 -1.8164814,-0.40236 l 0,0 z M 2.8659518,14.106987 c -0.021484,-0.0087 -0.056641,-0.0087 -0.078125,0 -0.021484,0.0087 -0.00391,0.01576 0.039063,0.01576 0.042969,0 0.060547,-0.0071 0.039063,-0.01576 z m 0.15625,-0.03125 c -0.021484,-0.0087 -0.056641,-0.0087 -0.078125,0 -0.021484,0.0087 -0.00391,0.01576 0.039063,0.01576 0.042969,0 0.060547,-0.0071 0.039063,-0.01576 z m 0.1230469,-0.0319 c -0.022559,-0.009 -0.049512,-0.0079 -0.059896,0.0025 -0.010384,0.01038 0.00807,0.01777 0.041016,0.01641 0.036404,-0.0015 0.043809,-0.0089 0.01888,-0.01888 l 0,10e-7 z m 0.1582031,-0.0306 c -0.021484,-0.0087 -0.056641,-0.0087 -0.078125,0 -0.021484,0.0087 -0.00391,0.01576 0.039063,0.01576 0.042969,0 0.060547,-0.0071 0.039063,-0.01576 z m 0.15625,-0.03125 c -0.021484,-0.0087 -0.056641,-0.0087 -0.078125,0 -0.021484,0.0087 -0.00391,0.01576 0.039063,0.01576 0.042969,0 0.060547,-0.0071 0.039063,-0.01576 z m 0.1230469,-0.0319 c -0.022559,-0.009 -0.049512,-0.0079 -0.059896,0.0025 -0.010384,0.01038 0.00807,0.01777 0.041016,0.01641 0.036404,-0.0015 0.043809,-0.0089 0.01888,-0.01888 l 0,10e-7 z m 0.1582031,-0.0306 c -0.021484,-0.0087 -0.056641,-0.0087 -0.078125,0 -0.021484,0.0087 -0.00391,0.01576 0.039063,0.01576 0.042969,0 0.060547,-0.0071 0.039063,-0.01576 z m 0.15625,-0.03125 c -0.021484,-0.0087 -0.056641,-0.0087 -0.078125,0 -0.021484,0.0087 -0.00391,0.01576 0.039063,0.01576 0.042969,0 0.060547,-0.0071 0.039063,-0.01576 z m 0.1230469,-0.0319 c -0.022559,-0.009 -0.049512,-0.0079 -0.059896,0.0025 -0.010384,0.01038 0.00807,0.01777 0.041016,0.01641 0.036404,-0.0015 0.043809,-0.0089 0.01888,-0.01888 l 0,10e-7 z m 0.1582031,-0.0306 c -0.021484,-0.0087 -0.056641,-0.0087 -0.078125,0 -0.021484,0.0087 -0.00391,0.01576 0.039063,0.01576 0.042969,0 0.060547,-0.0071 0.039063,-0.01576 z m 0.1230469,-0.0319 c -0.022559,-0.009 -0.049512,-0.0079 -0.059896,0.0025 -0.010384,0.01038 0.00807,0.01777 0.041016,0.01641 0.036404,-0.0015 0.043809,-0.0089 0.01888,-0.01888 l 0,10e-7 z m 0.1582031,-0.0306 c -0.021484,-0.0087 -0.056641,-0.0087 -0.078125,0 -0.021484,0.0087 -0.00391,0.01576 0.039063,0.01576 0.042969,0 0.060547,-0.0071 0.039063,-0.01576 z m 0.1230469,-0.0319 c -0.022559,-0.009 -0.049512,-0.0079 -0.059896,0.0025 -0.010384,0.01038 0.00807,0.01777 0.041016,0.01641 0.036404,-0.0015 0.043809,-0.0089 0.01888,-0.01888 l 0,10e-7 z m 0.125,-0.03125 c -0.022559,-0.009 -0.049512,-0.0079 -0.059896,0.0025 -0.010384,0.01038 0.00807,0.01777 0.041016,0.01641 0.036404,-0.0015 0.043809,-0.0089 0.01888,-0.01888 l 0,10e-7 z m 0.1582031,-0.0306 c -0.021484,-0.0087 -0.056641,-0.0087 -0.078125,0 -0.021484,0.0087 -0.00391,0.01576 0.039063,0.01576 0.042969,0 0.060547,-0.0071 0.039063,-0.01576 z m 0.1230469,-0.0319 c -0.022559,-0.009 -0.049512,-0.0079 -0.059896,0.0025 -0.010384,0.01038 0.00807,0.01777 0.041016,0.01641 0.036404,-0.0015 0.043809,-0.0089 0.01888,-0.01888 l 0,10e-7 z m 0.125,-0.03125 c -0.022558,-0.009 -0.049512,-0.0079 -0.059896,0.0025 -0.010384,0.01038 0.00807,0.01777 0.041016,0.01641 0.036405,-0.0015 0.043809,-0.0089 0.01888,-0.01888 l 0,10e-7 z m 0.1582031,-0.0306 c -0.021484,-0.0087 -0.056641,-0.0087 -0.078125,0 -0.021484,0.0087 -0.00391,0.01576 0.039063,0.01576 0.042969,0 0.060547,-0.0071 0.039063,-0.01576 z m 0.1230469,-0.0319 c -0.022558,-0.009 -0.049512,-0.0079 -0.059896,0.0025 -0.010384,0.01038 0.00807,0.01777 0.041016,0.01641 0.036405,-0.0015 0.043809,-0.0089 0.01888,-0.01888 l 0,10e-7 z m 0.125,-0.03125 c -0.022558,-0.009 -0.049512,-0.0079 -0.059896,0.0025 -0.010384,0.01038 0.00807,0.01777 0.041016,0.01641 0.036405,-0.0015 0.043809,-0.0089 0.01888,-0.01888 l 0,10e-7 z m 0.1582031,-0.0306 c -0.021484,-0.0087 -0.056641,-0.0087 -0.078125,0 -0.021484,0.0087 -0.00391,0.01576 0.039063,0.01576 0.042969,0 0.060547,-0.0071 0.039063,-0.01576 z m 0.3901575,-1.721491 c -0.00644,-0.08164 -0.011704,-0.01484 -0.011704,0.148438 0,0.163281 0.00527,0.230078 0.011704,0.148437 0.00644,-0.08164 0.00644,-0.215234 0,-0.296875 z m -0.093877,-0.623218 c -0.030405,-0.0079 -0.072593,-0.0074 -0.09375,0.0012 -0.021157,0.0086 0.00372,0.01504 0.055282,0.01441 0.051562,-6.38e-4 0.068873,-0.0076 0.038468,-0.01556 l 0,-10e-7 z m 1.0709072,-0.962719 c 0.075907,-0.07734 0.1309819,-0.140625 0.1223881,-0.140625 -0.00859,0 -0.077731,0.06328 -0.1536381,0.140625 -0.075907,0.07734 -0.1309819,0.140625 -0.1223881,0.140625 0.00859,0 0.077731,-0.06328 0.1536381,-0.140625 z M 7.0115015,9.994871 C 7.0325385,9.938732 7.0260365,9.922546 6.9792445,9.914573 6.9421375,9.908253 6.9206395,9.878636 6.9206395,9.833844 c 0,-0.038909 -0.00722,-0.077965 -0.016048,-0.086791 -0.021373,-0.021373 -0.6788094,0.1305997 -0.7167647,0.1656868 -0.01717,0.015872 0.1442459,0.027444 0.3828125,0.027444 0.3373387,0 0.4125,0.00816 0.4125,0.044799 0,0.024882 -0.038206,0.050587 -0.085937,0.057818 l -0.085937,0.01302 0.086944,0.0047 c 0.063961,0.0034 0.09391,-0.01391 0.1132928,-0.06563 z m -1.2705497,0.018366 c -0.021484,-0.0087 -0.056641,-0.0087 -0.078125,0 -0.021484,0.0087 -0.00391,0.01576 0.039063,0.01576 0.042969,0 0.060547,-0.0071 0.039063,-0.01576 z M 5.8639987,9.981336 c -0.022558,-0.00903 -0.049512,-0.00792 -0.059896,0.00247 -0.010384,0.010384 0.00807,0.01777 0.041016,0.016413 0.036405,-0.0015 0.043809,-0.0089 0.01888,-0.01888 l 0,1.2e-6 z m 0.125,-0.03125 c -0.022559,-0.00903 -0.049512,-0.00792 -0.059896,0.00247 -0.010384,0.010384 0.00807,0.01777 0.041016,0.016413 0.036405,-0.0015 0.043809,-0.0089 0.01888,-0.01888 l 0,1.2e-6 z m 0.125,-0.03125 c -0.022559,-0.00903 -0.049512,-0.00792 -0.059896,0.00247 -0.010384,0.010384 0.00807,0.01777 0.041016,0.016413 0.036405,-0.0015 0.043809,-0.0089 0.01888,-0.01888 l 0,1.2e-6 z m 0.9844322,-0.15834 c -0.00786,-0.030078 -0.014292,-0.00547 -0.014292,0.054687 0,0.060156 0.00643,0.084766 0.014292,0.054687 0.00786,-0.030078 0.00786,-0.079297 0,-0.109375 z M 5.5514987,8.9188363 c -0.022558,-0.00903 -0.049512,-0.00792 -0.059896,0.00247 -0.010384,0.010384 0.00807,0.01777 0.041016,0.016413 0.036405,-0.0015 0.043809,-0.0089 0.01888,-0.01888 l 0,1.2e-6 z m 0.125,-0.03125 c -0.022558,-0.00903 -0.049512,-0.00792 -0.059896,0.00247 -0.010384,0.010384 0.00807,0.01777 0.041016,0.016413 0.036405,-0.0015 0.043809,-0.0089 0.01888,-0.01888 l 0,1.2e-6 z m 0.125,-0.03125 c -0.022558,-0.00903 -0.049512,-0.00792 -0.059896,0.00247 -0.010384,0.010384 0.00807,0.01777 0.041016,0.016413 0.036405,-0.0015 0.043809,-0.0089 0.01888,-0.01888 l 0,1.2e-6 z m 0.28125,-0.0625 c -0.022559,-0.00903 -0.049512,-0.00792 -0.059896,0.00247 -0.010384,0.010384 0.00807,0.01777 0.041016,0.016413 0.036405,-0.0015 0.043809,-0.0089 0.01888,-0.01888 l 0,1.2e-6 z m 0.28125,-0.0625 c -0.022559,-0.00903 -0.049512,-0.00792 -0.059896,0.00247 -0.010384,0.010384 0.00807,0.01777 0.041016,0.016413 0.036405,-0.0015 0.043809,-0.0089 0.01888,-0.01888 l 0,1.2e-6 z m 0.125,-0.03125 c -0.022559,-0.00903 -0.049512,-0.00792 -0.059896,0.00247 -0.010384,0.010384 0.00807,0.01777 0.041016,0.016413 0.036405,-0.0015 0.043809,-0.0089 0.01888,-0.01888 l 0,1.2e-6 z m 0.28125,-0.0625 c -0.022559,-0.00903 -0.049512,-0.00792 -0.059896,0.00247 -0.010384,0.010384 0.00807,0.01777 0.041016,0.016413 0.036405,-0.0015 0.043809,-0.0089 0.01888,-0.01888 l 0,1.2e-6 z m -1.5,-0.8125 c -0.022558,-0.00903 -0.049512,-0.00792 -0.059896,0.00247 -0.010384,0.010384 0.00807,0.01777 0.041016,0.016413 0.036405,-0.0015 0.043809,-0.0089 0.01888,-0.01888 l 0,1.2e-6 z m 0.125,-0.03125 c -0.022558,-0.00903 -0.049512,-0.00792 -0.059896,0.00247 -0.010384,0.010384 0.00807,0.01777 0.041016,0.016413 0.036405,-0.0015 0.043809,-0.0089 0.01888,-0.01888 l 0,1.2e-6 z m 0.28125,-0.0625 c -0.022558,-0.00903 -0.049512,-0.00792 -0.059896,0.00247 -0.010384,0.010384 0.00807,0.01777 0.041016,0.016413 0.036405,-0.0015 0.043809,-0.0089 0.01888,-0.01888 l 0,1.2e-6 z m 0.125,-0.03125 c -0.022558,-0.00903 -0.049512,-0.00792 -0.059896,0.00247 -0.010384,0.010384 0.00807,0.01777 0.041016,0.016413 0.036405,-0.0015 0.043809,-0.0089 0.01888,-0.01888 l 0,1.2e-6 z m 0.28125,-0.0625 c -0.022559,-0.00903 -0.049512,-0.00792 -0.059896,0.00247 -0.010384,0.010384 0.00807,0.01777 0.041016,0.016413 0.036405,-0.0015 0.043809,-0.0089 0.01888,-0.01888 l 0,1.2e-6 z m 0.28125,-0.0625 c -0.022559,-0.00903 -0.049512,-0.00792 -0.059896,0.00247 -0.010384,0.010384 0.00807,0.01777 0.041016,0.016413 0.036405,-0.0015 0.043809,-0.0089 0.01888,-0.01888 l 0,1.2e-6 z m 0.40625,-0.09375 c -0.022559,-0.00903 -0.049512,-0.00792 -0.059896,0.00247 -0.010384,0.010384 0.00807,0.01777 0.041016,0.016413 0.036405,-0.0015 0.043809,-0.0089 0.01888,-0.01888 l 0,1.2e-6 z M 6.9100855,6.401121 c -0.00867,-0.021484 -0.015762,-0.00391 -0.015762,0.039063 0,0.042969 0.00709,0.060547 0.015762,0.039063 0.00867,-0.021484 0.00867,-0.056641 0,-0.078125 z M 6.8659518,5.2007373 c -0.021484,-0.00867 -0.056641,-0.00867 -0.078125,0 -0.021484,0.00867 -0.00391,0.015762 0.039063,0.015762 0.042969,0 0.060547,-0.00709 0.039063,-0.015762 z"
       id="path3021"
       inkscape:connector-curvature="0" />
    <path
       style="fill:#ffffff;fill-opacity:1;stroke:#ffffff;stroke-width:0.18209375;stroke-miterlimit:4;stroke-opacity:1;stroke-dasharray:none"
       d="m 5.6550143,14.983778 c -0.2575338,-0.06008 -1.6563025,-0.410739 -2.59375,-0.650221 -0.017187,-0.0044 -0.1085938,-0.03068 -0.203125,-0.05843 -0.094531,-0.02774 -0.284375,-0.05384 -0.421875,-0.058 -0.1375,-0.0042 -0.278125,-0.01798 -0.3125,-0.03072 -0.034375,-0.01273 -0.099492,-0.031 -0.1447034,-0.0406 -0.050316,-0.01068 -0.089644,-0.04485 -0.1013858,-0.0881 -0.034671,-0.127704 -0.022053,-7.4266307 0.016941,-9.7998546 l 0.038168,-2.32295 0.1423647,0.019446 c 0.078301,0.010695 0.1799435,0.026822 0.2258733,0.035837 0.069376,0.013617 0.085242,0.00416 0.09375,-0.055871 l 0.010241,-0.072262 4.6211441,-0.00792 c 4.5241478,-0.00775 4.6231928,-0.00665 4.7187498,0.052626 0.164598,0.1020947 0.295333,0.2609168 0.336188,0.4084149 0.02994,0.1081046 0.04113,1.076491 0.04839,4.1875 l 0.0094,4.0468757 0.08247,0.176265 c 0.09648,0.206224 0.117386,0.213459 0.618379,0.214015 l 0.309761,3.44e-4 -0.01994,1.362265 c -0.02254,1.540212 -0.0067,1.446893 -0.287756,1.694296 l -0.137315,0.12087 -0.75638,0.02066 c -0.416009,0.01136 -1.386916,0.02066 -2.1575702,0.02066 l -1.4011897,0 0,-1.387489 0,-1.387489 0.46875,-0.444805 0.46875,-0.444804 0,-3.8083321 c 0,-2.0945824 -0.00445,-3.8083316 -0.00989,-3.8083316 -0.00544,0 -1.1188212,-0.1123972 -2.4741865,-0.2497716 C 5.4874512,2.4905375 4.3728159,2.3838403 4.3658493,2.3908069 c -0.030374,0.030374 1.2772756,0.2677497 1.64854,0.2992567 0.5049881,0.042855 1.1559928,0.2003228 1.4517316,0.3511501 0.14586,0.074389 0.4739787,0.3793352 0.5349156,0.4971386 0.023484,0.045399 0.049248,0.2000866 0.057253,0.34375 0.00801,0.1436634 0.031759,0.3093645 0.052786,0.3682246 0.049498,0.1385589 0.017314,4.6408119 -0.034466,4.8214663 -0.02885,0.1006531 -0.048585,0.1186762 -0.1492953,0.1363456 -0.2727603,0.047855 -0.3334006,0.07182 -0.1362415,0.053842 0.1508068,-0.013751 0.2051787,-0.00765 0.226084,0.025361 0.038683,0.061086 0.035394,1.0993422 -0.00381,1.2024532 -0.01776,0.04671 -0.24276,0.298167 -0.5,0.558788 l -0.4677091,0.473855 0,0.427623 c 0,0.264247 -0.011939,0.427622 -0.03125,0.427622 -0.019788,0 -0.03125,0.228419 -0.03125,0.622758 l 0,0.622759 -0.1640625,0.03345 c -0.090234,0.0184 -0.1992188,0.03859 -0.2421875,0.04486 -0.042969,0.0063 0.030859,0.01332 0.1640625,0.01566 l 0.2421875,0.0043 0,0.185465 c 0,0.203303 -0.036537,0.332998 -0.099788,0.35422 -0.022461,0.0075 -0.00884,0.0084 0.03027,0.0018 0.063361,-0.01057 0.068916,-0.0024 0.050991,0.07487 -0.053522,0.23076 -0.3079994,0.542268 -0.5293844,0.648023 -0.1855318,0.08863 -0.3938253,0.08808 -0.7802137,-0.0021 l 0,2e-6 z m 0.8828125,-0.596386 c -0.030078,-0.0079 -0.079297,-0.0079 -0.109375,0 -0.030078,0.0079 -0.00547,0.01429 0.054687,0.01429 0.060156,0 0.084766,-0.0064 0.054687,-0.01429 z m -0.1796875,-0.02199 c 0,-0.0068 -0.021824,-0.02066 -0.048498,-0.03089 -0.02781,-0.01067 -0.040354,-0.0054 -0.029406,0.01228 0.018352,0.02969 0.077904,0.04392 0.077904,0.01861 l 0,0 z M 6.1270196,14.073647 c -0.010384,-0.01038 -0.01777,0.0081 -0.016413,0.04102 0.0015,0.0364 0.0089,0.04381 0.01888,0.01888 0.00903,-0.02256 0.00792,-0.04951 -0.00247,-0.0599 l -1.3e-6,0 z m -0.028659,-0.219765 c -0.00782,-0.02988 -0.013937,0.0019 -0.013591,0.07068 3.469e-4,0.06875 0.00675,0.09319 0.014221,0.05432 0.00747,-0.03887 0.00719,-0.09512 -6.313e-4,-0.125 l 6e-7,0 z m -0.032223,-0.328356 c -0.00856,-0.02116 -0.015043,0.0037 -0.014406,0.05528 6.375e-4,0.05156 0.00764,0.06887 0.015564,0.03847 0.00792,-0.03041 0.0074,-0.07259 -0.00116,-0.09375 l 1.5e-6,0 z m 0.095306,-0.686905 c -0.00745,-0.03867 -0.013543,-0.007 -0.013543,0.07031 0,0.07734 0.00609,0.108984 0.013543,0.07031 0.00745,-0.03867 0.00745,-0.101953 0,-0.140625 z M 6.397202,12.513237 c -0.021484,-0.0087 -0.056641,-0.0087 -0.078125,0 -0.021484,0.0087 -0.00391,0.01576 0.039063,0.01576 0.042969,0 0.060547,-0.0071 0.039063,-0.01576 z m 0.1855469,-0.0319 c -0.022559,-0.009 -0.049512,-0.0079 -0.059896,0.0025 -0.010384,0.01038 0.00807,0.01777 0.041016,0.01641 0.036405,-0.0015 0.043809,-0.0089 0.01888,-0.01888 l 0,10e-7 z m 0.1875,-0.03125 c -0.022559,-0.009 -0.049512,-0.0079 -0.059896,0.0025 -0.010384,0.01038 0.00807,0.01777 0.041016,0.01641 0.036405,-0.0015 0.043809,-0.0089 0.01888,-0.01888 l 0,10e-7 z"
       id="path3023"
       inkscape:connector-curvature="0" />
  </g>
</svg>
