<?xml version="1.0" encoding="UTF-8" standalone="no"?>
<!-- Created with Inkscape (http://www.inkscape.org/) -->

<svg
   xmlns:dc="http://purl.org/dc/elements/1.1/"
   xmlns:cc="http://creativecommons.org/ns#"
   xmlns:rdf="http://www.w3.org/1999/02/22-rdf-syntax-ns#"
   xmlns:svg="http://www.w3.org/2000/svg"
   xmlns="http://www.w3.org/2000/svg"
   xmlns:xlink="http://www.w3.org/1999/xlink"
   xmlns:sodipodi="http://sodipodi.sourceforge.net/DTD/sodipodi-0.dtd"
   xmlns:inkscape="http://www.inkscape.org/namespaces/inkscape"
   width="16"
   height="16"
   id="svg2"
   sodipodi:version="0.32"
   inkscape:version="0.48.4 r9939"
   version="1.0"
   sodipodi:docname="Folder 16 black.svg"
   inkscape:output_extension="org.inkscape.output.svg.inkscape"
   inkscape:export-filename="C:\Users\Ryan\Desktop\folder black.png"
   inkscape:export-xdpi="90"
   inkscape:export-ydpi="90">
  <defs
     id="defs4">
    <linearGradient
       id="linearGradient3184">
      <stop
         style="stop-color:#dac769;stop-opacity:1"
         offset="0"
         id="stop3186" />
      <stop
         style="stop-color:#f2edb2;stop-opacity:1"
         offset="1"
         id="stop3188" />
    </linearGradient>
    <linearGradient
       id="linearGradient3178">
      <stop
         id="stop3180"
         offset="0"
         style="stop-color:#b79f2f;stop-opacity:1" />
      <stop
         id="stop3182"
         offset="1"
         style="stop-color:#e0d988;stop-opacity:1" />
    </linearGradient>
    <linearGradient
       id="linearGradient3149">
      <stop
         style="stop-color:#ffffff;stop-opacity:0.8"
         offset="0"
         id="stop3151" />
      <stop
         style="stop-color:#ffffff;stop-opacity:0.4"
         offset="1"
         id="stop3153" />
    </linearGradient>
    <linearGradient
       id="linearGradient3175">
      <stop
         style="stop-color:#ffffff;stop-opacity:1;"
         offset="0"
         id="stop3154" />
      <stop
         id="stop3171"
         offset="0.24866499"
         style="stop-color:#ffffb9;stop-opacity:1" />
      <stop
         style="stop-color:#d0bb48;stop-opacity:1"
         offset="1"
         id="stop3179" />
    </linearGradient>
    <linearGradient
       inkscape:collect="always"
       xlink:href="#linearGradient3175"
       id="linearGradient3181"
       x1="2"
       y1="4"
       x2="4.5"
       y2="15"
       gradientUnits="userSpaceOnUse"
       gradientTransform="translate(1,-1)" />
    <linearGradient
       inkscape:collect="always"
       xlink:href="#linearGradient3149"
       id="linearGradient3155"
       x1="8"
       y1="3.5"
       x2="8"
       y2="14.5"
       gradientUnits="userSpaceOnUse" />
    <linearGradient
       inkscape:collect="always"
       xlink:href="#linearGradient3184"
       id="linearGradient3174"
       gradientUnits="userSpaceOnUse"
       gradientTransform="translate(1,-1)"
       x1="10"
       y1="13"
       x2="9"
       y2="5" />
    <linearGradient
       inkscape:collect="always"
       xlink:href="#linearGradient3178"
       id="linearGradient3176"
       gradientUnits="userSpaceOnUse"
       gradientTransform="translate(1,-1)"
       x1="6.5"
       y1="16"
       x2="6.5"
       y2="2" />
  </defs>
  <sodipodi:namedview
     id="base"
     pagecolor="#ffffff"
     bordercolor="#666666"
     borderopacity="1.0"
     gridtolerance="10000"
     guidetolerance="10"
     objecttolerance="10"
     inkscape:pageopacity="0.0"
     inkscape:pageshadow="2"
     inkscape:zoom="32"
     inkscape:cx="3.2896906"
     inkscape:cy="7.6096072"
     inkscape:document-units="px"
     inkscape:current-layer="layer1"
     width="16px"
     height="16px"
     showgrid="true"
     inkscape:grid-points="true"
     inkscape:window-width="1366"
     inkscape:window-height="716"
     inkscape:window-x="-8"
     inkscape:window-y="-8"
     inkscape:window-maximized="1">
    <inkscape:grid
       id="GridFromPre046Settings"
       type="xygrid"
       originx="0px"
       originy="0px"
       spacingx="0.5px"
       spacingy="0.5px"
       color="#0000ff"
       empcolor="#0000ff"
       opacity="0.2"
       empopacity="0.4"
       empspacing="4" />
  </sodipodi:namedview>
  <metadata
     id="metadata7">
    <rdf:RDF>
      <cc:Work
         rdf:about="">
        <dc:format>image/svg+xml</dc:format>
        <dc:type
           rdf:resource="http://purl.org/dc/dcmitype/StillImage" />
        <dc:creator>
          <cc:Agent>
            <dc:title>Arvid Axelsson</dc:title>
          </cc:Agent>
        </dc:creator>
        <cc:license
           rdf:resource="http://creativecommons.org/licenses/by-sa/3.0/" />
        <dc:title></dc:title>
      </cc:Work>
      <cc:License
         rdf:about="http://creativecommons.org/licenses/by-sa/3.0/">
        <cc:permits
           rdf:resource="http://creativecommons.org/ns#Reproduction" />
        <cc:permits
           rdf:resource="http://creativecommons.org/ns#Distribution" />
        <cc:requires
           rdf:resource="http://creativecommons.org/ns#Notice" />
        <cc:requires
           rdf:resource="http://creativecommons.org/ns#Attribution" />
        <cc:permits
           rdf:resource="http://creativecommons.org/ns#DerivativeWorks" />
        <cc:requires
           rdf:resource="http://creativecommons.org/ns#ShareAlike" />
      </cc:License>
    </rdf:RDF>
  </metadata>
  <g
     inkscape:label="Layer 1"
     inkscape:groupmode="layer"
     id="layer1">
    <path
       style="fill:url(#linearGradient3181);fill-opacity:1;fill-rule:evenodd;stroke:none;stroke-width:1px;stroke-linecap:butt;stroke-linejoin:round;stroke-opacity:1"
       d="M 2,2 L 2,14 L 6,15 C 6.4850539,15.121263 7,14.5 7,13.90625 L 7,11.5 L 8,10.53125 L 8,4 C 8,3.5 7.4856761,3.0971352 7,3 L 2,2 z "
       id="path3165"
       sodipodi:nodetypes="ccsccccsc"
       inkscape:export-filename="F:\Development\Kempelton\Firefox\chrome\global\icons\path3165.png"
       inkscape:export-xdpi="90"
       inkscape:export-ydpi="90" />
    <path
       sodipodi:nodetypes="cccc"
       id="path3147"
       d="M 6.5,14 L 6.5,11.25 L 7.5,10.28125 L 7.5,4"
       style="fill:none;fill-opacity:1;fill-rule:evenodd;stroke:url(#linearGradient3155);stroke-width:1px;stroke-linecap:round;stroke-linejoin:round;stroke-opacity:1" />
    <path
       style="fill:#000000;fill-opacity:1;stroke:#000000;stroke-width:0.18209375;stroke-miterlimit:4;stroke-opacity:1;stroke-dasharray:none"
       d="m 8.5146906,12.735339 0,-1.242554 0.4993719,-0.49864 L 9.513434,10.495505 9.5139465,6.6178012 9.514459,2.7400977 5.9755134,2.3868081 C 4.029092,2.1924988 2.4307062,2.0280339 2.4235447,2.0213306 c -0.00716,-0.0067 2.0415325,-0.012188 4.5526531,-0.012188 3.1498682,0 4.5929542,0.010307 4.6536462,0.033238 0.107769,0.040718 0.250319,0.1722195 0.309512,0.2855226 0.06137,0.1174696 0.06621,3.2429272 0.005,3.2451734 -0.02148,7.875e-4 -0.285156,0.034319 -0.585937,0.074512 l -0.546875,0.073078 0.585937,0.00361 0.585938,0.00361 0,0.7909325 0,0.7909325 -0.507813,0.064348 -0.507812,0.064348 0.507812,0.00409 0.507813,0.00409 0,0.8534325 0,0.8534325 -0.507813,0.064348 -0.507812,0.064348 0.505213,0.00409 0.505213,0.00409 0.01041,0.6953125 0.01041,0.6953129 0.08585,0.112212 0.08585,0.112213 -0.617102,0.07928 -0.617101,0.07928 1.023437,0.0038 1.023438,0.0038 0,1.252054 c 0,1.322001 0.0011,1.311636 -0.152256,1.477298 -0.170657,0.184389 -0.07394,0.176898 -2.283693,0.176898 l -2.0328014,0 0,-1.242554 0,0 z"
       id="path3027"
       inkscape:connector-curvature="0" />
    <path
       style="fill:#000000;fill-opacity:1;stroke:#000000;stroke-width:0.18209375;stroke-miterlimit:4;stroke-opacity:1;stroke-dasharray:none"
       d="m 4.0303156,14.504651 c -1.1,-0.275437 -2.0055848,-0.506361 -2.0124105,-0.513166 -0.01349,-0.01345 -0.00932,-11.9555543 0.00418,-11.9686781 0.015385,-0.014957 0.3518979,0.058892 0.3676021,0.080672 0.00859,0.011919 0.1070312,0.031723 0.21875,0.044009 0.1117187,0.012286 1.1734375,0.2180987 2.359375,0.457361 1.9191481,0.3871874 2.1803037,0.4468682 2.375,0.5427493 0.2144975,0.1056326 0.4508728,0.3085197 0.4640509,0.3983073 0.00366,0.024962 0.037491,0.084578 0.075171,0.1324814 0.037681,0.047903 0.076428,0.1313732 0.086106,0.185489 0.00968,0.054116 0.013563,0.7522985 0.00863,1.5515173 l -0.00896,1.453125 -0.296875,0.021181 c -0.1632813,0.01165 -0.3742188,0.040202 -0.46875,0.063448 l -0.171875,0.042267 -0.00211,0.7646769 c -0.00308,1.1159109 -0.025134,2.3630999 -0.037139,2.1006141 -0.0057,-0.1246094 -0.01326,-0.2265232 -0.016804,-0.226475 -0.00354,6.25e-5 -0.6462872,0.1466887 -1.4283185,0.3258675 l -1.421875,0.3257803 1.3254378,0.0023 1.3254379,0.0023 -0.3099394,0.292381 c -0.1704669,0.16081 -0.3295803,0.32908 -0.3535853,0.373934 -0.024005,0.04485 -0.055752,0.07407 -0.070548,0.06493 -0.014797,-0.0091 -0.3876412,0.06516 -0.828544,0.165129 l -0.8016429,0.181758 0.7863788,0.0083 0.7863791,0.0083 0,0.386745 c 0,0.281261 -0.010654,0.390479 -0.039063,0.400435 -0.021484,0.0075 -0.3476638,0.08286 -0.7248435,0.167406 l -0.6857807,0.153716 0.7248432,0.0084 0.7248435,0.0084 0,0.403283 0,0.403283 -0.3671875,0.08433 C 5.4143,13.447573 5.1154718,13.517637 4.9521906,13.556889 l -0.296875,0.07137 0.6595972,0.0029 0.6595968,0.0029 0.016807,0.245202 c 0.019132,0.279132 0.07311,0.406251 0.2186541,0.51493 0.1966722,0.146857 0.4530725,0.127506 0.6402312,-0.04832 0.086272,-0.08105 0.089107,-0.05774 0.011446,0.09412 -0.087994,0.172064 -0.3067759,0.406991 -0.4444125,0.477208 -0.2414756,0.123192 -0.259384,0.120096 -2.386919,-0.412632 l 0,-10e-7 z m 2.921875,-5.6673832 c 0,-0.1804688 -0.012527,-0.328125 -0.027838,-0.328125 -0.032267,0 -2.7847305,0.6215387 -2.8315369,0.6393943 -0.017187,0.00656 0.6191406,0.013032 1.4140625,0.014388 l 1.4453125,0.00247 0,-0.328125 z m 0.03125,-1.140625 c 0,-0.24995 -0.010419,-0.34375 -0.038184,-0.34375 -0.038963,0 -2.9205853,0.6491181 -2.9774406,0.6707021 -0.017188,0.00652 0.6542969,0.012974 1.4921875,0.014331 l 1.5234375,0.00247 0,-0.34375 z m 0.03125,-1.0625 c 0,-0.1458335 -0.013021,-0.25 -0.03125,-0.25 -0.017187,0 -0.03125,-0.042187 -0.03125,-0.09375 0,-0.057503 -0.016183,-0.09375 -0.041855,-0.09375 -0.042139,0 -2.915498,0.6477884 -2.97377,0.6704259 -0.017188,0.00668 0.6683594,0.01325 1.5234375,0.014607 l 1.5546875,0.00247 0,-0.25 z m -0.03125,-1.236481 c 0,-0.3294658 -0.00484,-0.3600785 -0.054687,-0.3456474 -0.030078,0.00871 -0.715625,0.1649259 -1.5234375,0.3471502 -0.8078125,0.1822244 -1.4828125,0.3366557 -1.5,0.3431803 -0.017188,0.00652 0.6683594,0.012974 1.5234375,0.014331 l 1.5546875,0.00247 0,-0.361481 z m 7.456e-4,-1.1619565 c 4.094e-4,-0.1332032 0.012992,-0.2949219 0.027959,-0.359375 0.019316,-0.083178 0.016832,-0.1167508 -0.00856,-0.1156826 -0.019674,8.277e-4 -0.7318653,0.1615245 -1.5826465,0.3571039 l -1.546875,0.355599 1.5546875,0.00227 1.5546875,0.00227 7.469e-4,-0.2421875 -1.3e-6,0 z"
       id="path3029"
       inkscape:connector-curvature="0" />
    <path
       style="fill:#000000;fill-opacity:1;stroke:#000000;stroke-width:0.18209375;stroke-miterlimit:4;stroke-opacity:1;stroke-dasharray:none"
       d="M 5.7959406,15.007988 C 5.6326593,14.975876 4.7031726,14.74962 3.7304145,14.505197 L 1.9617634,14.060793 1.9391663,11.53023 c -0.012428,-1.39181 -0.012406,-4.1174938 5.06e-5,-6.0570754 l 0.022648,-3.5265118 0.066478,0 c 0.036563,0 0.1398549,0.019034 0.229538,0.042297 0.1370991,0.035563 0.1630603,0.035563 0.1630603,0 0,-0.03537 0.7459086,-0.042269 4.5546875,-0.042123 2.9710437,1.138e-4 4.5942083,0.011152 4.6683533,0.031746 0.06794,0.018872 0.164277,0.08648 0.239485,0.168071 0.104967,0.1138756 0.128748,0.1642926 0.143486,0.3041913 0.02571,0.2440706 0.03421,1.6648424 0.02567,4.2926922 -0.0041,1.271875 0.0019,2.6747446 0.01341,3.1174884 l 0.02092,0.8049893 0.112307,0.155028 c 0.108499,0.149772 0.117604,0.155068 0.268557,0.156171 0.08594,6.28e-4 0.251171,0.01011 0.367187,0.02106 l 0.210938,0.01992 -1.88e-4,1.253293 c -9.4e-5,0.753683 -0.01281,1.296895 -0.03186,1.362669 -0.03562,0.122946 -0.13347,0.244911 -0.266396,0.332036 -0.08481,0.05559 -0.197151,0.05904 -2.192355,0.06745 l -2.1029528,0.0089 0,-1.310972 0,-1.310972 L 8.9329146,10.95703 9.4136387,10.493518 9.4339965,6.6584471 9.4543543,2.8233766 9.38296,2.8083017 C 9.3436931,2.8000105 8.8615656,2.7495156 8.3115656,2.6960907 7.5333318,2.6204961 5.1915878,2.3854184 3.4990656,2.2129845 c -0.085937,-0.00876 0.5609375,0.1298958 1.4375,0.3081135 1.8290378,0.3718697 2.2198894,0.4621587 2.4374725,0.5630703 0.2228628,0.1033602 0.4308478,0.3009589 0.5601556,0.5321826 l 0.1117469,0.1998222 0,1.5585818 0,1.5585819 -0.3828125,0.040254 c -0.2105469,0.02214 -0.4214844,0.047985 -0.46875,0.057434 l -0.085937,0.01718 -6.25e-5,0.7382812 c -3.13e-5,0.4060547 -0.00931,1.0441406 -0.020602,1.4179688 l -0.020525,0.6796875 -0.070975,0 c -0.049811,0 -0.073952,-0.020966 -0.080961,-0.070312 -0.00821,-0.057821 -0.026642,-0.068548 -0.103736,-0.060379 -0.051563,0.00546 -0.106864,0.022796 -0.1228921,0.038517 -0.016414,0.0161 0.017616,0.015173 0.077919,-0.00212 0.058883,-0.016887 0.1106694,-0.030705 0.1150797,-0.030705 0.00441,0 0.00802,0.035156 0.00802,0.078125 0,0.047002 0.017847,0.078125 0.044799,0.078125 0.024883,0 0.050587,0.038206 0.057818,0.085938 l 0.013019,0.08594 0.00468,-0.08594 c 0.00291,-0.053475 0.022389,-0.085938 0.051557,-0.085938 0.038821,0 0.046875,-0.058962 0.046875,-0.3431547 0,-0.3302975 0.00263,-0.3437531 0.070312,-0.3591293 0.038672,-0.00879 0.2227313,-0.051242 0.4090207,-0.094345 0.1862897,-0.043104 0.351524,-0.078371 0.3671875,-0.078371 0.01626,0 0.028479,0.2895997 0.028479,0.6749647 0,0.558585 -0.00876,0.693435 -0.050832,0.782085 -0.027958,0.05892 -0.2529578,0.29862 -0.5,0.532676 l -0.4491822,0.425555 0,0.316568 0,0.316567 -0.2578125,0.05217 c -0.5792753,0.117219 -0.5708441,0.11036 -0.140625,0.114412 l 0.3984375,0.0038 0,0.561295 0,0.561296 -0.1171875,0.03008 c -0.064453,0.01655 -0.1453125,0.03655 -0.1796875,0.04445 -0.034375,0.0079 0.018359,0.016 0.1171875,0.018 l 0.1796875,0.0036 0,0.309944 c 0,0.348117 -0.013846,0.408806 -0.093267,0.408806 -0.030432,0 -0.072837,0.02109 -0.094233,0.04687 -0.024532,0.02956 -0.026627,0.04687 -0.00567,0.04687 0.018278,0 0.041923,-0.01406 0.052546,-0.03125 0.026356,-0.04265 0.171875,-0.03974 0.171875,0.0034 0,0.01908 -0.044462,0.118107 -0.098803,0.220063 -0.171335,0.321457 -0.5302265,0.596833 -0.7641971,0.586365 -0.032381,-0.0015 -0.1924682,-0.02891 -0.3557494,-0.06102 l 0,0 z m 0.7265625,-0.613291 c -0.021484,-0.0087 -0.056641,-0.0087 -0.078125,0 -0.021484,0.0087 -0.00391,0.01576 0.039063,0.01576 0.042969,0 0.060547,-0.0071 0.039063,-0.01576 z m 0.2109375,-0.0749 c 0,-0.0182 -0.014062,-0.0244 -0.03125,-0.01378 -0.017187,0.01062 -0.03125,0.02552 -0.03125,0.03309 0,0.0076 0.014063,0.01378 0.03125,0.01378 0.017188,0 0.03125,-0.01489 0.03125,-0.03309 z M 6.0986618,13.860341 c -0.00782,-0.02988 -0.013937,0.0019 -0.013591,0.07068 3.469e-4,0.06875 0.00675,0.09319 0.014221,0.05432 0.00747,-0.03887 0.00719,-0.09512 -6.313e-4,-0.125 l 6e-7,0 z m -0.050221,-0.313906 c -0.042499,-0.01417 -0.044729,-0.131042 -0.0025,-0.131042 0.019531,0 0.03125,-0.1875 0.03125,-0.5 0,-0.346477 -0.010684,-0.5 -0.034797,-0.5 -0.023203,0 -0.027036,-0.03384 -0.011504,-0.101563 0.039676,-0.172994 0.053484,-1.023437 0.016616,-1.023437 -0.046382,0 -0.04096,-0.147182 0.00625,-0.169555 0.067418,-0.03195 -0.1976094,0.0088 -0.5390625,0.08279 l -0.328125,0.07114 0.34375,0.01946 c 0.1890625,0.0107 0.3824219,0.02125 0.4296875,0.02344 l 0.085937,0.004 -4.781e-4,0.414062 c -2.5e-4,0.227735 -0.013729,0.435021 -0.029923,0.460636 -0.016341,0.02585 -0.1795431,0.08336 -0.366709,0.129225 l -0.3372641,0.08265 0.1751034,0.0036 c 0.096307,0.002 0.2615413,0.01262 0.3671875,0.02366 l 0.1920841,0.02008 0,0.463703 c 0,0.455189 -0.00129,0.464004 -0.070312,0.480088 -0.5583084,0.1301 -0.5726572,0.134574 -0.4420841,0.137845 0.070526,0.0018 0.2146663,0.01225 0.3203125,0.02329 0.1883257,0.01968 0.1921819,0.02198 0.1970853,0.117187 0.00497,0.09658 0.00507,0.09652 0.018125,-0.01143 0.00742,-0.0614 -0.00153,-0.113427 -0.020626,-0.119791 l -3e-7,0 z m 0.1849997,-2.554762 c 0,-0.0076 -0.014062,-0.01378 -0.03125,-0.01378 -0.017187,0 -0.03125,0.01489 -0.03125,0.03309 0,0.0182 0.014063,0.0244 0.03125,0.01378 0.017188,-0.01062 0.03125,-0.02552 0.03125,-0.03309 z M 7.0012243,10.20401 c -0.019052,-0.01905 -0.2052837,0.154611 -0.2052837,0.191428 0,0.01772 0.049008,-0.01529 0.1089069,-0.07334 0.059899,-0.05806 0.1032684,-0.111196 0.096377,-0.118087 z M 5.0225031,10.17595 c -0.021484,-0.0087 -0.056641,-0.0087 -0.078125,0 -0.021484,0.0087 -0.00391,0.01576 0.039063,0.01576 0.042969,0 0.060547,-0.0071 0.039063,-0.01576 z m 0.2890625,-0.05524 c 0.085937,-0.02391 0.1351562,-0.04446 0.109375,-0.04567 -0.025781,-0.0012 -0.1171875,0.01737 -0.203125,0.04129 -0.085937,0.02391 -0.1351563,0.04446 -0.109375,0.04567 0.025781,0.0012 0.1171875,-0.01737 0.203125,-0.04129 z m 0.40625,-0.09375 c 0.085937,-0.02391 0.1351562,-0.044464 0.109375,-0.045669 -0.025781,-0.00121 -0.1171875,0.017373 -0.203125,0.041286 -0.085937,0.02391 -0.1351563,0.04446 -0.109375,0.04567 0.025781,0.0012 0.1171875,-0.01737 0.203125,-0.04129 z m 0.359375,-0.080316 c 0.061862,-0.019812 0.065115,-0.02502 0.015625,-0.02502 -0.034375,0 -0.097656,0.011259 -0.140625,0.02502 -0.061862,0.019812 -0.065115,0.02502 -0.015625,0.02502 0.034375,0 0.097656,-0.011259 0.140625,-0.02502 z M 6.4053156,9.870711 C 6.4912526,9.846798 6.5404718,9.826247 6.5146906,9.825042 6.4889096,9.823832 6.3975031,9.842415 6.3115656,9.866328 6.2256286,9.890241 6.1764093,9.910792 6.2021906,9.911997 6.2279716,9.913207 6.3193781,9.894624 6.4053156,9.870711 z M 5.1663484,9.0367134 c -0.088377,-0.017003 -0.1739994,-0.016411 -0.21875,0.00152 -0.056148,0.02249 -0.021817,0.029095 0.1452172,0.027939 0.2175403,-0.00151 0.2179469,-0.00167 0.073533,-0.029454 l 0,-1.2e-6 z m 0.1608422,-0.058821 c 0.061862,-0.019812 0.065115,-0.02502 0.015625,-0.02502 -0.034375,0 -0.097656,0.011259 -0.140625,0.02502 -0.061862,0.019812 -0.065115,0.02502 -0.015625,0.02502 0.034375,0 0.097656,-0.011259 0.140625,-0.02502 z m 0.328125,-0.075933 c 0.085937,-0.023913 0.1351562,-0.044464 0.109375,-0.045669 -0.025781,-0.00121 -0.1171875,0.017373 -0.203125,0.041286 -0.085937,0.023913 -0.1351563,0.044464 -0.109375,0.045669 0.025781,0.00121 0.1171875,-0.017373 0.203125,-0.041286 z m 0.359375,-0.080317 c 0.061862,-0.019812 0.065115,-0.02502 0.015625,-0.02502 -0.034375,0 -0.097656,0.011259 -0.140625,0.02502 -0.061862,0.019812 -0.065115,0.02502 -0.015625,0.02502 0.034375,0 0.097656,-0.011259 0.140625,-0.02502 z m 0.28125,-0.0625 c 0.061862,-0.019812 0.065115,-0.02502 0.015625,-0.02502 -0.034375,0 -0.097656,0.011259 -0.140625,0.02502 -0.061862,0.019812 -0.065115,0.02502 -0.015625,0.02502 0.034375,0 0.097656,-0.011259 0.140625,-0.02502 z m 0.328125,-0.075933 c 0.085937,-0.023913 0.1351562,-0.044464 0.109375,-0.045669 -0.025781,-0.00121 -0.1171875,0.017373 -0.203125,0.041286 -0.085937,0.023913 -0.1351563,0.044464 -0.109375,0.045669 0.025781,0.00121 0.1171875,-0.017373 0.203125,-0.041286 z m 0.234375,-0.017817 c 0,-0.034375 -0.012746,-0.0625 -0.028324,-0.0625 -0.015578,0 -0.02097,0.028125 -0.01198,0.0625 0.00899,0.034375 0.021735,0.0625 0.028324,0.0625 0.00659,0 0.01198,-0.028125 0.01198,-0.0625 z M 5.1114428,7.9139362 c -0.1272553,-0.013321 -0.260849,-0.012303 -0.2968752,0.00226 -0.04212,0.017029 0.040472,0.025675 0.231373,0.02422 l 0.296875,-0.00226 -0.2313728,-0.02422 z M 6.912115,7.7361349 c -0.00718,-0.047502 -0.013252,-0.016055 -0.013487,0.069883 -2.188e-4,0.085937 0.00564,0.1248028 0.01306,0.086367 0.00742,-0.038436 0.00761,-0.1087481 4.25e-4,-0.15625 l 1.6e-6,0 z M 5.2021906,7.8528928 c 0.061862,-0.019812 0.065115,-0.02502 0.015625,-0.02502 -0.034375,0 -0.097656,0.011259 -0.140625,0.02502 -0.061862,0.019811 -0.065115,0.02502 -0.015625,0.02502 0.034375,0 0.097656,-0.011259 0.140625,-0.02502 z m 0.28125,-0.0625 c 0.061862,-0.019812 0.065115,-0.02502 0.015625,-0.02502 -0.034375,0 -0.097656,0.011259 -0.140625,0.02502 -0.061862,0.019811 -0.065115,0.02502 -0.015625,0.02502 0.034375,0 0.097656,-0.011259 0.140625,-0.02502 z m 0.328125,-0.075934 c 0.085937,-0.023913 0.1351562,-0.044464 0.109375,-0.045669 -0.025781,-0.00121 -0.1171875,0.017373 -0.203125,0.041286 -0.085937,0.023913 -0.1351563,0.044464 -0.109375,0.045669 0.025781,0.00121 0.1171875,-0.017373 0.203125,-0.041286 z m 0.359375,-0.080316 c 0.061862,-0.019812 0.065115,-0.02502 0.015625,-0.02502 -0.034375,0 -0.097656,0.011259 -0.140625,0.02502 -0.061862,0.019811 -0.065115,0.02502 -0.015625,0.02502 0.034375,0 0.097656,-0.011259 0.140625,-0.02502 z m 0.28125,-0.0625 c 0.061862,-0.019812 0.065115,-0.02502 0.015625,-0.02502 -0.034375,0 -0.097656,0.011259 -0.140625,0.02502 -0.061862,0.019811 -0.065115,0.02502 -0.015625,0.02502 0.034375,0 0.097656,-0.011259 0.140625,-0.02502 z m 0.4375,-0.0625 c 0,-0.034375 -0.012746,-0.0625 -0.028324,-0.0625 -0.015578,0 -0.02097,0.028125 -0.01198,0.0625 0.00899,0.034375 0.021735,0.0625 0.028324,0.0625 0.00659,0 0.01198,-0.028125 0.01198,-0.0625 z m -0.1875,-0.00143 c 0.034233,-0.023166 0.021591,-0.026065 -0.046875,-0.01075 -0.1149041,0.025702 -0.1398472,0.043589 -0.059896,0.04295 0.032943,-2.5e-4 0.08099,-0.014753 0.106771,-0.032199 z M 5.0944703,6.7580565 c -0.1365902,-0.012977 -0.2772152,-0.011901 -0.3125002,0.00239 -0.039917,0.016167 0.053908,0.025081 0.2483455,0.023594 l 0.3125,-0.00239 -0.2483453,-0.023594 0,0 z M 6.9416368,6.6575803 c -0.00867,-0.021484 -0.015762,-0.00391 -0.015762,0.039063 0,0.042969 0.00709,0.060547 0.015762,0.039063 0.00867,-0.021484 0.00867,-0.056641 0,-0.078125 z m -1.7706962,0.039063 c 0.061862,-0.019812 0.065115,-0.02502 0.015625,-0.02502 -0.034375,0 -0.097656,0.011259 -0.140625,0.02502 -0.061862,0.019811 -0.065115,0.02502 -0.015625,0.02502 0.034375,0 0.097656,-0.011259 0.140625,-0.02502 z m 0.46875,-0.1070319 c 0.1632812,-0.040496 0.2757812,-0.074684 0.25,-0.075973 -0.025781,-0.00129 -0.1804688,0.03079 -0.34375,0.071287 -0.1632813,0.040496 -0.2757813,0.074684 -0.25,0.075973 0.025781,0.00129 0.1804687,-0.03079 0.34375,-0.071286 z M 6.9085709,6.4551062 c -0.010384,-0.010384 -0.01777,0.00807 -0.016413,0.041016 0.0015,0.036405 0.0089,0.043809 0.01888,0.01888 0.00903,-0.022559 0.00792,-0.049512 -0.00247,-0.059896 l -1.2e-6,0 z m -0.7688803,0.022787 c 0.061862,-0.019812 0.065115,-0.02502 0.015625,-0.02502 -0.034375,0 -0.097656,0.011259 -0.140625,0.02502 -0.061862,0.019811 -0.065115,0.02502 -0.015625,0.02502 0.034375,0 0.097656,-0.011259 0.140625,-0.02502 z m 0.328125,-0.07725 c 0.1678203,-0.055309 0.1017637,-0.05747 -0.09375,-0.00307 -0.085937,0.023913 -0.128125,0.043655 -0.09375,0.043871 0.034375,2.187e-4 0.11875,-0.018146 0.1875,-0.040804 l 0,-9e-7 z m 0.4122056,-0.099086 c -0.023756,-0.023757 -0.2403306,0.023939 -0.2403306,0.052928 0,0.045796 0.2333284,0.049392 0.24495,0.00378 0.00582,-0.02283 0.00374,-0.048346 -0.00462,-0.056703 z M 5.1084406,5.6341428 c -0.1117188,-0.011254 -0.1679688,-0.024521 -0.125,-0.029481 0.042969,-0.00496 0.057031,-0.014322 0.03125,-0.020803 -0.025781,-0.00648 -0.1171875,0.00796 -0.203125,0.032081 l -0.15625,0.043865 0.328125,-0.0026 c 0.2977453,-0.00236 0.3093187,-0.00449 0.125,-0.023062 l 0,4e-7 z M 6.9120734,5.4232053 c -0.00716,-0.047266 -0.013018,-0.00859 -0.013018,0.085937 0,0.094531 0.00586,0.1332031 0.013018,0.085937 0.00716,-0.047266 0.00716,-0.1246094 0,-0.171875 z m -1.6005078,0.103754 c 0.085937,-0.023913 0.1351562,-0.044464 0.109375,-0.045669 -0.025781,-0.00121 -0.1171875,0.017373 -0.203125,0.041286 -0.085937,0.023913 -0.1351563,0.044464 -0.109375,0.045669 0.025781,0.00121 0.1171875,-0.017373 0.203125,-0.041286 z m 0.546875,-0.1248484 c 0.1632812,-0.040496 0.2757812,-0.074684 0.25,-0.075973 -0.025781,-0.00129 -0.1804688,0.03079 -0.34375,0.071287 -0.1632813,0.040496 -0.2757813,0.074684 -0.25,0.075973 0.025781,0.00129 0.1804687,-0.03079 0.34375,-0.071286 z m 0.46875,-0.113146 c 0.034233,-0.023166 0.021591,-0.026065 -0.046875,-0.01075 -0.1149041,0.025702 -0.1398472,0.043589 -0.059896,0.04295 0.032943,-2.5e-4 0.08099,-0.014753 0.106771,-0.032199 l 0,0 z m 0.4661459,-0.091209 c 0.024349,-6.125e-4 0.035987,-0.0094 0.025862,-0.019522 -0.022152,-0.022152 -0.3709431,0.049276 -0.4105406,0.084074 -0.015349,0.013489 0.054963,0.00473 0.15625,-0.019457 0.1012868,-0.02419 0.2040797,-0.044483 0.2284287,-0.045095 z m 0.0858,-0.040176 c -0.00867,-0.021484 -0.015762,-0.00391 -0.015762,0.039063 0,0.042969 0.00709,0.060547 0.015762,0.039063 0.00867,-0.021484 0.00867,-0.056641 0,-0.078125 z m 0.035221,-1.0321541 0.00904,-0.2743415 -0.087167,0.0216 c -0.169575,0.042022 -0.2428432,0.068618 -0.196336,0.071272 0.025895,0.00148 0.092692,-0.010395 0.1484375,-0.026383 l 0.1013563,-0.029069 0,0.2468849 0,0.2468849 -0.3828125,0.010146 -0.3828125,0.010146 0.390625,-0.0014 0.390625,-0.0014 0.00904,-0.2743415 0,-10e-8 z m -2.0559169,0.227467 c 0.061862,-0.019812 0.065114,-0.02502 0.015625,-0.02502 -0.034375,0 -0.097656,0.011259 -0.140625,0.02502 -0.061862,0.019812 -0.065115,0.02502 -0.015625,0.02502 0.034375,0 0.097656,-0.011259 0.140625,-0.02502 z m 0.46875,-0.1070318 c 0.1632812,-0.040496 0.2757812,-0.074684 0.25,-0.075973 -0.025781,-0.00129 -0.1804688,0.03079 -0.34375,0.071286 -0.1632813,0.040496 -0.2757813,0.074684 -0.25,0.075973 0.025781,0.00129 0.1804687,-0.03079 0.34375,-0.071287 z M 5.8379334,4.1316905 c 0.066065,-0.018345 0.1147962,-0.038675 0.1082919,-0.04518 -0.0065,-0.0065 -0.081651,0.00733 -0.1669928,0.030734 -0.085342,0.023408 -0.1340732,0.043739 -0.1082919,0.04518 0.025781,0.00144 0.1009281,-0.012389 0.1669928,-0.030734 z M 6.3199437,4.0242762 c 0.1421081,-0.030618 0.252225,-0.061822 0.2447044,-0.069343 -0.019104,-0.019104 -0.4927675,0.086859 -0.5499575,0.1230306 -0.041667,0.026353 -0.041667,0.028111 0,0.015814 0.025781,-0.00761 0.1631453,-0.038884 0.3052531,-0.069502 l 0,0 z"
       id="path3031"
       inkscape:connector-curvature="0" />
    <path
       style="fill:#000000;fill-opacity:1;stroke:#000000;stroke-width:0.18209375;stroke-miterlimit:4;stroke-opacity:1;stroke-dasharray:none"
       d="M 5.9209406,15.111427 C 5.7877862,15.087218 4.873124,14.865982 3.3556236,14.490937 l -1.4559419,-0.359832 -0.020621,-0.89419 c -0.026718,-1.1586 -0.026648,-8.3935915 9.77e-5,-10.0616989 l 0.020636,-1.2870516 4.7883788,-0.00293 c 2.6336084,-0.00161 4.8494098,0.00683 4.9240038,0.018756 0.106745,0.017069 0.169544,0.055607 0.294926,0.1809897 0.09966,0.099661 0.168776,0.200108 0.184605,0.2682953 0.01392,0.059946 0.03392,1.945362 0.04445,4.1898132 l 0.01915,4.0808213 0.08753,0.126287 c 0.09486,0.13685 0.172528,0.163865 0.474967,0.165197 0.08594,3.78e-4 0.209536,0.0095 0.274665,0.02026 l 0.118415,0.01957 -0.009,1.365229 -0.009,1.36523 -0.08383,0.126634 c -0.04611,0.06965 -0.137515,0.159933 -0.203125,0.200634 -0.134106,0.08319 -0.01945,0.07953 -3.0646041,0.09782 l -1.3515625,0.0081 0,-1.373554 0,-1.373554 0.4722953,-0.454755 0.472295,-0.454755 0.012217,-2.6875006 c 0.00672,-1.478125 0.017661,-3.1815939 0.024314,-3.7854864 L 9.3829087,2.891295 9.2378621,2.872286 C 9.1580865,2.861831 8.2490656,2.7691129 7.2178156,2.6662459 6.1865656,2.5633787 5.2948106,2.4723966 5.2361378,2.4640633 c -0.058673,-0.00833 -0.093829,-0.00395 -0.078125,0.00973 0.015704,0.013686 0.3871465,0.098857 0.8254278,0.1892685 0.8882572,0.1832354 1.2933994,0.2878712 1.4767081,0.3813883 0.1807266,0.0922 0.3798328,0.2880835 0.5226034,0.5141444 l 0.1256885,0.1990138 0,1.6257659 0,1.625766 -0.1015625,4.781e-4 c -0.063231,3.125e-4 -0.086641,0.00995 -0.062026,0.025575 0.030749,0.019518 0.037694,0.2327334 0.03125,0.95929 l -0.00829,0.9341937 -0.21875,0.042928 C 7.6287496,8.995215 7.5181068,9.026228 7.503189,9.040522 7.488271,9.054816 7.593413,9.0403658 7.7368361,9.008382 7.9349846,8.964212 8.0032949,8.9592 8.0212933,8.987509 c 0.037265,0.058613 0.029484,1.411081 -0.0087,1.511501 -0.018337,0.04823 -0.2433366,0.297865 -0.5,0.554746 l -0.4666603,0.467056 0,1.331664 c 0,0.909319 0.010671,1.342335 0.033646,1.365309 0.049705,0.04971 -0.1321678,0.390719 -0.3095284,0.580369 -0.2087832,0.223249 -0.4186694,0.336409 -0.6147422,0.331437 -0.085937,-0.0022 -0.1914063,-0.01036 -0.234375,-0.01817 l 0,0 z M 7.4013237,9.0699396 c 0.014992,-0.013579 -0.02368,-0.0132 -0.085937,8.407e-4 l -0.1131956,0.025531 0,-0.9790085 0,-0.9790084 0.085937,-0.014411 c 0.081653,-0.013693 0.081263,-0.014186 -0.00781,-0.00989 l -0.09375,0.00452 -0.00824,1.0071175 -0.00824,1.0071178 0.1019947,-0.019063 c 0.056097,-0.010484 0.1142606,-0.030173 0.1292525,-0.043751 l 0,0 z M 7.8870865,7.0519493 c 0.024537,-0.021778 -0.2316984,-0.00797 -0.3567709,0.019225 -0.092664,0.020149 -0.06437,0.022672 0.109375,0.00976 0.1289062,-0.00958 0.2402344,-0.022624 0.2473959,-0.028981 z"
       id="path3033"
       inkscape:connector-curvature="0" />
  </g>
</svg>
