<svg xmlns="http://www.w3.org/2000/svg" xmlns:xlink="http://www.w3.org/1999/xlink" width="32" height="32" version="1">
  <defs>
    <linearGradient id="b">
      <stop offset="0" stop-color="#90b1d8"/>
      <stop offset=".5" stop-color="#2c64a4" stop-opacity="0"/>
      <stop offset=".542" stop-color="#fff" stop-opacity="0"/>
      <stop offset="1" stop-color="#fff"/>
    </linearGradient>
    <linearGradient id="a">
      <stop offset="0" stop-color="#d7e7ff"/>
      <stop offset=".356" stop-color="#9db2cc"/>
      <stop offset=".712" stop-color="#e1f7ff"/>
      <stop offset="1" stop-color="#fff"/>
    </linearGradient>
    <linearGradient xlink:href="#a" id="c" x1="23.549" y1="29.475" x2="10.233" y2="8.1" gradientUnits="userSpaceOnUse" gradientTransform="rotate(15 18.149 14.351)"/>
    <linearGradient xlink:href="#b" id="d" x1="13.399" y1="10.973" x2="17.305" y2="21.66" gradientUnits="userSpaceOnUse"/>
  </defs>
  <path d="M19.546 1.27l-2.3 3.75c-.492-.031-.978-.002-1.463.03l-2.316-3.792-1.95.513-.12 4.432c-.435.216-.858.46-1.263.73L6.236 4.82l-1.42 1.432 2.126 3.902c-.27.404-.538.81-.757 1.253l-4.398.115-.518 1.932 3.752 2.3c-.032.492-.003.978.028 1.463l-3.791 2.316.513 1.95 4.432.12c.216.435.46.858.73 1.263L4.82 26.764l1.432 1.42 3.902-2.126c.404.27.81.538 1.253.757l.115 4.398 1.932.518 2.3-3.752c.492.032.978.003 1.463-.028l2.316 3.791 1.95-.513.12-4.432c.435-.216.858-.46 1.263-.73l3.898 2.113 1.42-1.432-2.126-3.902c.27-.404.538-.81.757-1.253l4.398-.115.518-1.932-3.752-2.3c.032-.492.003-.978-.028-1.463l3.791-2.316-.513-1.95-4.432-.12c-.216-.435-.46-.858-.73-1.263l2.113-3.898-1.432-1.42-3.902 2.126c-.404-.27-.81-.538-1.253-.757l-.115-4.398-1.932-.518zm-2.01 11.366a4.001 4.001 0 0 1 2.828 4.9 4.001 4.001 0 0 1-4.9 2.828 4.001 4.001 0 0 1-2.828-4.9 4.001 4.001 0 0 1 4.9-2.828z" fill="#3d628b" fill-rule="evenodd"/>
  <path d="M19.046.77l-2.3 3.75c-.492-.031-.978-.002-1.463.03L12.967.757l-1.95.513-.12 4.432c-.435.216-.858.46-1.263.73L5.736 4.32l-1.42 1.432 2.126 3.902c-.27.404-.538.81-.757 1.253l-4.398.115-.518 1.932 3.752 2.3c-.032.492-.003.978.028 1.463L.758 19.033l.513 1.95 4.432.12c.216.435.46.858.73 1.263L4.32 26.264l1.432 1.42 3.902-2.126c.404.27.81.538 1.253.757l.115 4.398 1.932.518 2.3-3.752c.492.032.978.003 1.463-.028l2.316 3.791 1.95-.513.12-4.432c.435-.216.858-.46 1.263-.73l3.898 2.113 1.42-1.432-2.126-3.902c.27-.404.538-.81.757-1.253l4.398-.115.518-1.932-3.752-2.3c.032-.492.003-.978-.028-1.463l3.791-2.316-.513-1.95-4.432-.12c-.216-.435-.46-.858-.73-1.263l2.113-3.898-1.432-1.42-3.902 2.126c-.404-.27-.81-.538-1.253-.757l-.115-4.398-1.932-.518zm-2.01 11.366a4.001 4.001 0 0 1 2.828 4.9 4.001 4.001 0 0 1-4.9 2.828 4.001 4.001 0 0 1-2.828-4.9 4.001 4.001 0 0 1 4.9-2.828z" fill="url(#c)" fill-rule="evenodd"/>
  <path style="marker:none" d="M24 16a8 8 0 1 1-16 0 8 8 0 1 1 16 0z" transform="translate(-1 -1) scale(1.0625)" color="#000" fill="none" stroke="url(#d)" stroke-width=".941" stroke-linecap="round" overflow="visible"/>
</svg>
