<svg xmlns="http://www.w3.org/2000/svg" xmlns:xlink="http://www.w3.org/1999/xlink" width="32" height="32" version="1">
  <defs>
    <linearGradient id="e">
      <stop offset="0" stop-color="#7590a3"/>
      <stop offset="1" stop-color="#2b323b"/>
    </linearGradient>
    <linearGradient id="d">
      <stop offset="0" stop-color="#617b76"/>
      <stop offset="1" stop-color="#e3ede7"/>
    </linearGradient>
    <linearGradient id="c">
      <stop offset="0" stop-color="#fff"/>
      <stop offset="1" stop-color="#969696"/>
    </linearGradient>
    <linearGradient id="b">
      <stop offset="0" stop-color="#f8e96f"/>
      <stop offset="1" stop-color="#fff"/>
    </linearGradient>
    <linearGradient id="a">
      <stop offset="0" stop-color="#bfa631"/>
      <stop offset=".5" stop-color="#a07800"/>
      <stop offset="1" stop-color="#d1b21f"/>
    </linearGradient>
    <linearGradient xlink:href="#a" id="f" x1="26.5" y1="23.5" x2="16" y2="23.5" gradientUnits="userSpaceOnUse" gradientTransform="matrix(1.04762 0 0 1.07143 -.762 -1.679)"/>
    <linearGradient xlink:href="#b" id="j" x1="25" y1="24.72" x2="11" y2="24.72" gradientUnits="userSpaceOnUse" gradientTransform="matrix(.44444 0 0 1.13636 4.889 -4.09)"/>
    <linearGradient xlink:href="#c" id="i" gradientUnits="userSpaceOnUse" x1="21" y1="1" x2="21" y2="6"/>
    <linearGradient xlink:href="#d" id="g" x1="16" y1="17" x2="16" y2="3" gradientUnits="userSpaceOnUse"/>
    <linearGradient xlink:href="#e" id="h" x1="15" y1="3.5" x2="26.5" y2="8" gradientUnits="userSpaceOnUse" spreadMethod="reflect"/>
  </defs>
  <path d="M5 16h22v15H5V16z" fill="url(#f)"/>
  <path style="marker:none" d="M8.5 17v-7c0-4.14 3.36-7.5 7.5-7.5 4.14 0 7.5 3.36 7.5 7.5v7" transform="translate(0 -1)" fill="none" stroke="url(#g)" stroke-width="3" stroke-linejoin="round" overflow="visible"/>
  <path style="marker:none" d="M16 .5C11.048.5 7 4.048 7 9v3l1.5-1.5V9c0-4 3.992-7 7.5-7s7.5 3 7.5 7v7H25V9c0-4.952-4.048-8.5-9-8.5z" fill="url(#h)" fill-rule="evenodd" overflow="visible"/>
  <path style="marker:none" d="M16 0c-.31 0-.605.008-.906.031C11.594.39 8.678 2.786 7.53 6l1-.5C9.671 3.403 11.731 1 16 1c4.27 0 6.329 2.403 7.469 4.5l1 .5C23.322 2.788 20.403.389 16.906.031A11.524 11.524 0 0 0 16 0z" fill="url(#i)" fill-rule="evenodd" overflow="visible"/>
  <path style="marker:none" fill="url(#j)" fill-rule="evenodd" overflow="visible" d="M8 17h8v13H8z"/>
  <path d="M6 17h20s-3 2-10 2-10-2-10-2z" fill="#fffcc4"/>
</svg>
