<svg xmlns="http://www.w3.org/2000/svg" xmlns:xlink="http://www.w3.org/1999/xlink" width="24" height="24" version="1">
  <defs>
    <linearGradient id="g">
      <stop offset="0" stop-color="#003878"/>
      <stop offset=".463" stop-color="#006ab3"/>
      <stop offset=".537" stop-color="#5796c4"/>
      <stop offset="1" stop-color="#6ec5e9"/>
    </linearGradient>
    <linearGradient id="f">
      <stop offset="0" stop-color="#c1aa89"/>
      <stop offset="1" stop-color="#8c744f"/>
    </linearGradient>
    <linearGradient id="e">
      <stop offset="0" stop-color="#846a44"/>
      <stop offset="1" stop-color="#ded1b2"/>
    </linearGradient>
    <linearGradient id="d">
      <stop offset="0" stop-color="#d2bc97"/>
      <stop offset="1" stop-color="#543b24"/>
    </linearGradient>
    <linearGradient id="b">
      <stop offset="0" stop-color="#eee4ca"/>
      <stop offset=".5" stop-color="#c8b28c"/>
      <stop offset="1" stop-color="#775e3d"/>
    </linearGradient>
    <linearGradient id="c">
      <stop offset="0" stop-color="#fff"/>
      <stop offset=".5" stop-color="#fdf3de"/>
      <stop offset="1" stop-color="#d8c091"/>
    </linearGradient>
    <linearGradient id="a">
      <stop offset="0" stop-color="#fff"/>
      <stop offset=".15" stop-color="#faf4d2"/>
      <stop offset="1" stop-color="#8b6d3d"/>
    </linearGradient>
    <linearGradient xlink:href="#a" id="h" x1="9" y1="20.5" x2="10" y2="26.5" gradientUnits="userSpaceOnUse" gradientTransform="translate(0 -3)"/>
    <linearGradient xlink:href="#b" id="j" x1="12" y1="11" x2="12.487" y2="16" gradientUnits="userSpaceOnUse" gradientTransform="translate(0 -2)"/>
    <linearGradient xlink:href="#c" id="k" x1="4" y1="17" x2="20" y2="17" gradientUnits="userSpaceOnUse" gradientTransform="translate(0 -2)"/>
    <linearGradient xlink:href="#d" id="m" x1="18.5" y1="11" x2="18.5" y2="16" gradientUnits="userSpaceOnUse" gradientTransform="translate(0 -2)"/>
    <linearGradient xlink:href="#e" id="l" x1="5" y1="16" x2="5" y2="11" gradientUnits="userSpaceOnUse" gradientTransform="translate(0 -2)"/>
    <linearGradient xlink:href="#f" id="i" x1="10.764" y1="17.649" x2="13.107" y2="24" gradientUnits="userSpaceOnUse" gradientTransform="translate(0 -2)"/>
    <linearGradient xlink:href="#g" id="n" gradientUnits="userSpaceOnUse" gradientTransform="rotate(-90 8.5 12.5)" x1="14.5" y1="21.5" x2="14.5" y2="10.5"/>
  </defs>
  <path d="M3 14l-1 3h20l-1-3H3z" style="marker:none" fill="none" stroke="#bea983" stroke-width="2" stroke-linejoin="round" stroke-opacity=".941" overflow="visible"/>
  <path d="M6 9l-2 .5-3.5 5L3 14l3-5zM18 9l2 .5 3.5 5L21 14l-3-5zM6 9l-2 5h16l-2-5H6z" fill="none" stroke="#bea983" stroke-width="2" stroke-linejoin="round"/>
  <path d="M21.5 22.5V14h-19v8.5h19z" fill="url(#h)" fill-rule="evenodd" stroke="url(#i)"/>
  <path d="M6 14h12V9H6v5z" fill="url(#j)" fill-rule="evenodd"/>
  <path d="M3 14v4h18v-4H3z" style="marker:none" opacity=".5" fill="#7f4d21" fill-rule="evenodd" overflow="visible"/>
  <path style="marker:none" d="M3 14l-1 3h20l-1-3H3z" fill="url(#k)" fill-rule="evenodd" overflow="visible"/>
  <path d="M6 9l-3 5h3V9z" fill="url(#l)" fill-rule="evenodd"/>
  <path d="M18 9l3 5h-3V9z" fill="url(#m)" fill-rule="evenodd"/>
  <path d="M6 9l-2 .5-3.5 5L3 14l3-5zM18 9l2 .5 3.5 5L21 14l-3-5z" fill="#fff" fill-rule="evenodd"/>
  <path d="M10 0v3.5l-3-1-.5 1 5.5 7 5.5-7-.5-1-3 1V0h-4z" opacity=".5" fill="none" stroke="#fff" stroke-width="2"/>
  <path d="M10 0v3.5l-3-1-.5 1 5.5 7 5.5-7-.5-1-3 1V0h-4z" fill="url(#n)" fill-rule="evenodd"/>
</svg>
