<svg xmlns="http://www.w3.org/2000/svg" xmlns:xlink="http://www.w3.org/1999/xlink" width="16" height="16" version="1">
  <defs>
    <linearGradient id="b">
      <stop offset="0" stop-color="#e3e6e9"/>
      <stop offset="1" stop-color="#84888d"/>
    </linearGradient>
    <linearGradient id="a">
      <stop offset="0" stop-color="#3c3c3c"/>
      <stop offset="1" stop-color="#b4b4b4"/>
    </linearGradient>
    <linearGradient id="c">
      <stop offset="0" stop-color="#fff"/>
      <stop offset="1" stop-color="#fff" stop-opacity="0"/>
    </linearGradient>
    <linearGradient xlink:href="#a" id="d" x1="13.855" y1="22.914" x2="6.99" y2="2.311" gradientUnits="userSpaceOnUse" spreadMethod="reflect"/>
    <linearGradient xlink:href="#b" id="e" x1="11.73" y1="22.621" x2="10.833" y2="2" gradientUnits="userSpaceOnUse"/>
    <linearGradient xlink:href="#c" id="f" gradientUnits="userSpaceOnUse" x1="7.095" y1="6.377" x2="12" y2="20.112"/>
  </defs>
  <path style="marker:none" d="M24 12.5a11.5 11.5 0 1 1-23 0 11.5 11.5 0 1 1 23 0z" transform="matrix(.65294 0 0 .65084 .338 .365)" color="#000" fill="url(#d)" fill-rule="evenodd" overflow="visible"/>
  <path style="marker:none" d="M23 12.5a10.5 10.5 0 1 1-21 0 10.5 10.5 0 1 1 21 0z" transform="matrix(.60567 0 0 .60465 1.07 1.093)" color="#000" fill="url(#e)" fill-rule="evenodd" overflow="visible"/>
  <path style="marker:none" d="M12.84 7.361c.648 2.411-2.211-.467-4.611.175-2.4.641-3.435 4.561-4.083 2.15-.647-2.411.775-4.889 3.175-5.53 2.4-.642 4.873.794 5.52 3.205z" color="#000" fill="#fff" fill-rule="evenodd" overflow="visible"/>
  <path style="marker:none" d="M22 12a10 10 0 1 1-20 0 10 10 0 1 1 20 0z" transform="matrix(.6 0 0 .6 1.3 1.3)" color="#000" fill="none" stroke="url(#f)" stroke-width="1.667" stroke-linecap="square" stroke-linejoin="round" overflow="visible"/>
  <path d="M7.201 7.75L11.098 10M8.5 10V4" fill="none" stroke="#000"/>
</svg>
