<svg xmlns="http://www.w3.org/2000/svg" xmlns:xlink="http://www.w3.org/1999/xlink" width="32" height="32" version="1">
  <defs>
    <linearGradient id="h">
      <stop offset="0" stop-color="#fff" stop-opacity=".698"/>
      <stop offset="1" stop-color="#fff" stop-opacity=".302"/>
    </linearGradient>
    <radialGradient xlink:href="#a" id="i" cx="172.586" cy="241.614" fx="172.586" fy="241.614" r="140.25" gradientTransform="matrix(.18545 -.0497 .03848 .14362 200.989 233.099)" gradientUnits="userSpaceOnUse"/>
    <linearGradient xlink:href="#b" id="k" x1="140" y1="377.5" x2="215" y2="377.5" gradientUnits="userSpaceOnUse" gradientTransform="matrix(.06667 0 0 .06667 228.854 242.583)"/>
    <linearGradient xlink:href="#c" id="n" x1="3.975" y1="3.442" x2="11.193" y2="6.481" gradientUnits="userSpaceOnUse" gradientTransform="translate(229.188 244.917) scale(1.33333)"/>
    <linearGradient xlink:href="#d" id="o" x1="244.938" y1="252.125" x2="247.188" y2="248" gradientUnits="userSpaceOnUse" gradientTransform="translate(-76.395 -81.416) scale(1.33333)"/>
    <filter x="-.138" width="1.275" y="-.261" height="1.521" id="m">
      <feGaussianBlur stdDeviation="20.625"/>
    </filter>
    <linearGradient xlink:href="#e" id="j" x1="245.688" y1="266.375" x2="244.188" y2="256.625" gradientUnits="userSpaceOnUse" gradientTransform="translate(-76.395 -81.416) scale(1.33333)"/>
    <linearGradient id="d">
      <stop offset="0" stop-color="#7f3321"/>
      <stop offset="1" stop-color="#e4b398"/>
    </linearGradient>
    <linearGradient id="c">
      <stop offset="0" stop-color="#924b36"/>
      <stop offset=".797" stop-color="#ffdab9"/>
      <stop offset="1" stop-color="#fff"/>
    </linearGradient>
    <linearGradient id="f">
      <stop offset="0" stop-color="#fff" stop-opacity=".633"/>
      <stop offset="1" stop-color="#fff" stop-opacity=".416"/>
    </linearGradient>
    <linearGradient id="g">
      <stop offset="0" stop-color="#828282"/>
      <stop offset="1" stop-color="#828282" stop-opacity=".41"/>
    </linearGradient>
    <linearGradient id="b">
      <stop offset="0" stop-color="#9d7667"/>
      <stop offset="1" stop-color="#bba699"/>
    </linearGradient>
    <linearGradient id="a">
      <stop offset="0" stop-color="#fff"/>
      <stop offset=".2" stop-color="#fff"/>
      <stop offset=".45" stop-color="#f9f4dd"/>
      <stop offset=".5" stop-color="#ebdec3"/>
      <stop offset="1" stop-color="#b9855f"/>
    </linearGradient>
    <linearGradient id="e">
      <stop offset="0" stop-color="#a5785f"/>
      <stop offset="1" stop-color="#e4c6ac"/>
    </linearGradient>
    <linearGradient xlink:href="#g" id="l" x1="250.188" y1="267.75" x2="249.688" y2="266.25" gradientUnits="userSpaceOnUse" gradientTransform="translate(0 -1)"/>
    <linearGradient xlink:href="#h" id="p" x1="12" y1="29" x2="12" y2="27" gradientUnits="userSpaceOnUse" gradientTransform="translate(229.188 243.75)"/>
  </defs>
  <g fill-rule="evenodd">
    <path d="M257.688 259.75v13.5h-25v-13.5l12.5-8.5 12.5 8.5z" fill="url(#i)" stroke="url(#j)" transform="translate(-229.188 -244.75)"/>
    <path d="M238.188 272.75v-9h5v9h-5z" fill="url(#k)" transform="translate(-229.188 -244.75)"/>
    <path style="marker:none" d="M248.188 263.75h5v5h-5v-5z" fill="url(#l)" overflow="visible" enable-background="accumulate" transform="translate(-229.188 -244.75)"/>
  </g>
  <path d="M240 162.5l180 105v-45l-180-120-180 120v45l180-105z" transform="matrix(.06667 0 0 .06667 0 -.333)" opacity=".8" fill="#883000" fill-rule="evenodd" filter="url(#m)"/>
  <path d="M229.188 260.75l4.5-8 11.5-8v5.5l-16 10.5z" fill="url(#n)" fill-rule="evenodd" transform="translate(-229.188 -244.75)"/>
  <path d="M6 9.5V3h4v4" fill="#8b3d3d" fill-rule="evenodd"/>
  <path d="M261.188 260.75l-4.5-8-11.5-8v5.5l16 10.5z" fill="url(#o)" fill-rule="evenodd" transform="translate(-229.188 -244.75)"/>
  <path d="M16 5.5L0 16l1 1.5L16 8l15 9.5 1-1.5L16 5.5z" fill="#844430" fill-rule="evenodd"/>
  <path d="M29.5 16L16 7.5 2.5 16" opacity=".7" fill="none" stroke="#fff"/>
  <path d="M238.688 272.75l1.5-2h2v2h-3.5z" fill="url(#p)" transform="translate(-229.188 -244.75)"/>
</svg>
