<svg xmlns="http://www.w3.org/2000/svg" xmlns:xlink="http://www.w3.org/1999/xlink" width="24" height="24" version="1">
  <defs>
    <linearGradient id="d">
      <stop offset="0" stop-color="#e6f2fb"/>
      <stop offset="1" stop-color="#a4c3d8"/>
    </linearGradient>
    <linearGradient id="c">
      <stop offset="0" stop-color="#fff"/>
      <stop offset="1" stop-color="#e1e1e1"/>
    </linearGradient>
    <linearGradient id="a">
      <stop offset="0" stop-color="#cbe2ed"/>
      <stop offset="1" stop-color="#fff"/>
    </linearGradient>
    <linearGradient id="b">
      <stop offset="0" stop-color="#b1cce3"/>
      <stop offset="1" stop-color="#cfe8f7"/>
    </linearGradient>
    <linearGradient xlink:href="#a" id="g" x1="13" y1="17" x2="13" y2="9" gradientUnits="userSpaceOnUse" gradientTransform="translate(0 1)"/>
    <linearGradient xlink:href="#b" id="h" x1="14.5" y1="11" x2="14.5" y2="6" gradientUnits="userSpaceOnUse" gradientTransform="translate(0 1)"/>
    <linearGradient xlink:href="#c" id="i" x1="10" y1="16.5" x2="10.5" y2="21" gradientUnits="userSpaceOnUse"/>
    <filter id="f" x="-.143" width="1.286" y="-.242" height="1.485">
      <feGaussianBlur stdDeviation=".656"/>
    </filter>
    <linearGradient xlink:href="#d" id="e" x1="7" y1="5" x2="7" y2="10" gradientUnits="userSpaceOnUse"/>
  </defs>
  <rect style="marker:none" width="11" height="6" x="2" y="5" rx="1" ry="1" fill="none" stroke="#8dafca" stroke-width="2" stroke-linecap="square" overflow="visible" enable-background="accumulate"/>
  <path d="M13 4c-.554 0-1 .446-1 1v5H1v11h22V5c0-.554-.446-1-1-1h-9z" fill="none" stroke="#9cb9cc" stroke-width="2"/>
  <rect ry="1" rx="1" y="5" x="2" height="6" width="11" style="marker:none" fill="url(#e)" fill-rule="evenodd" overflow="visible" enable-background="accumulate"/>
  <path style="marker:none" d="M3.5 10.5H12v-4" opacity=".5" fill="none" stroke="#004678" stroke-width="2" stroke-linecap="square" overflow="visible" enable-background="accumulate" filter="url(#f)"/>
  <path d="M13 4c-.554 0-1 .446-1 1v5H1v11h22V5c0-.554-.446-1-1-1h-9z" fill="url(#g)" fill-rule="evenodd"/>
  <path d="M13 7h9v14H2V11l11 .047V7z" fill="url(#h)"/>
  <path fill="url(#i)" d="M3 12h18v9H3z"/>
</svg>
