<svg xmlns="http://www.w3.org/2000/svg" xmlns:xlink="http://www.w3.org/1999/xlink" width="24" height="24" version="1">
  <defs>
    <linearGradient id="d">
      <stop offset="0" stop-color="#58ae4c"/>
      <stop offset="1" stop-color="#316f31"/>
    </linearGradient>
    <linearGradient id="b">
      <stop offset="0" stop-color="#fffde1"/>
      <stop offset=".5" stop-color="#a8d070"/>
      <stop offset="1" stop-color="#3d8b3d"/>
    </linearGradient>
    <linearGradient id="c">
      <stop offset="0" stop-color="#308430"/>
      <stop offset="1" stop-color="#92cc74"/>
    </linearGradient>
    <linearGradient id="a">
      <stop offset="0" stop-color="#fff"/>
      <stop offset=".5" stop-color="#f3ffb9"/>
      <stop offset="1" stop-color="#7dcc38"/>
    </linearGradient>
    <radialGradient xlink:href="#b" id="g" cx="6.598" cy=".505" fx="6.598" fy=".505" r="6.938" gradientTransform="matrix(1.8048 0 0 1.0653 -6.908 1.962)" gradientUnits="userSpaceOnUse" spreadMethod="pad"/>
    <radialGradient xlink:href="#b" id="h" cx="10.9" cy="11.792" fx="10.9" fy="11.792" r="6.938" gradientTransform="matrix(2.0218 0 0 1.18326 -12.037 -.953)" gradientUnits="userSpaceOnUse" spreadMethod="pad"/>
    <linearGradient xlink:href="#d" id="e" x1="8" y1="2" x2="14" y2="10" gradientUnits="userSpaceOnUse"/>
    <linearGradient xlink:href="#d" id="f" x1="10" y1="14" x2="16" y2="22" gradientUnits="userSpaceOnUse"/>
  </defs>
  <g fill-rule="evenodd">
    <path d="M18.647 4.722C15.203 1.277 9.701 1.175 6.118 4.39L3.621 1.893 1.5 12.5l10.607-2.121L9.3 7.572a8.859 8.859 0 0 1 10.938-.685 9.054 9.054 0 0 0-1.59-2.165z" fill="url(#e)"/>
    <path d="M5.353 19.278c3.444 3.445 8.946 3.547 12.529.332l2.497 2.497L22.5 11.5l-10.607 2.121 2.807 2.807a8.859 8.859 0 0 1-10.938.685 9.054 9.054 0 0 0 1.59 2.165z" fill="url(#f)"/>
    <path d="M12.407 2.804a8.13 8.13 0 0 0-5.625 2.093l-.687.625-.688-.687L4.22 3.647l-1.47 7.344 7.345-1.469-1.5-1.5-.75-.75.78-.687c2.25-2.012 5.192-2.693 8-2.281-1.299-.869-2.719-1.465-4.218-1.5z" fill="url(#g)"/>
    <path d="M21.231 12.504l-7.312 1.469 1.5 1.5.75.75-.813.687c-2.252 2.015-5.188 2.698-8 2.282 3.039 2.037 7.047 1.947 9.844-.563l.719-.656.656.687 1.188 1.188 1.468-7.344z" fill="url(#h)"/>
  </g>
</svg>
