<svg xmlns="http://www.w3.org/2000/svg" xmlns:xlink="http://www.w3.org/1999/xlink" width="32" height="32" version="1">
  <defs>
    <linearGradient xlink:href="#a" id="e" x1="224.286" y1="237.909" x2="224.286" y2="-113.624" gradientUnits="userSpaceOnUse"/>
    <linearGradient xlink:href="#b" id="g" gradientUnits="userSpaceOnUse" x1="188.039" y1="72.652" x2="152.545" y2="-113.624"/>
    <linearGradient xlink:href="#c" id="h" gradientUnits="userSpaceOnUse" x1="266.625" y1="287.177" x2="247.684" y2="219.405" gradientTransform="matrix(.05 0 0 .04991 3.998 4.001)"/>
    <linearGradient id="c">
      <stop offset="0" stop-color="#eacdc4"/>
      <stop offset="1" stop-color="#fff"/>
    </linearGradient>
    <linearGradient id="b">
      <stop offset="0" stop-color="#bf4e4e" stop-opacity="0"/>
      <stop offset=".2" stop-color="#c77165"/>
      <stop offset="1" stop-color="#ecc4ae"/>
    </linearGradient>
    <linearGradient id="d">
      <stop offset="0" stop-color="#e47e5e" stop-opacity="0"/>
      <stop offset="1" stop-color="#ecd4cc" stop-opacity=".235"/>
    </linearGradient>
    <linearGradient id="a">
      <stop offset="0" stop-color="#933535"/>
      <stop offset=".65" stop-color="#a2423a"/>
      <stop offset="1" stop-color="#e38c85"/>
    </linearGradient>
    <linearGradient xlink:href="#d" id="f" gradientUnits="userSpaceOnUse" x1="215.916" y1="170.947" x2="215.916" y2="237.909"/>
  </defs>
  <path style="marker:none" d="M297.143 237.857l-145.588.052L48.57 135 48.52-10.588l102.91-102.983 145.588-.053L400-10.714l.052 145.588-102.91 102.983z" transform="matrix(.09103 0 0 .09103 -4.417 10.344)" fill="url(#e)" fill-rule="evenodd" overflow="visible"/>
  <path transform="matrix(.08534 0 0 .08534 -3.142 10.697)" d="M297.143 237.857l-145.588.052L48.57 135 48.52-10.588l102.91-102.983 145.588-.053L400-10.714l.052 145.588-102.91 102.983z" style="marker:none" fill="url(#f)" overflow="visible"/>
  <path transform="matrix(.08535 0 0 .08535 -3.144 10.695)" d="M297.143 237.857l-145.588.052L48.57 135 48.52-10.588l102.91-102.983 145.588-.053L400-10.714l.052 145.588-102.91 102.983z" style="marker:none" fill="url(#g)" fill-rule="evenodd" overflow="visible"/>
  <path d="M11.5 10.5l9 9m-9 0l9-9" opacity=".5" fill="none" stroke="#640000" stroke-width="5" stroke-linecap="square"/>
  <path d="M11.5 11.5l9 9m-9 0l9-9" fill="none" stroke="url(#h)" stroke-width="5" stroke-linecap="square"/>
</svg>
