<?xml version="1.0" encoding="UTF-8" standalone="no"?>
<!-- Created with Inkscape (http://www.inkscape.org/) -->

<svg
   xmlns:dc="http://purl.org/dc/elements/1.1/"
   xmlns:cc="http://creativecommons.org/ns#"
   xmlns:rdf="http://www.w3.org/1999/02/22-rdf-syntax-ns#"
   xmlns:svg="http://www.w3.org/2000/svg"
   xmlns="http://www.w3.org/2000/svg"
   xmlns:xlink="http://www.w3.org/1999/xlink"
   xmlns:sodipodi="http://sodipodi.sourceforge.net/DTD/sodipodi-0.dtd"
   xmlns:inkscape="http://www.inkscape.org/namespaces/inkscape"
   width="16"
   height="16"
   id="svg2"
   sodipodi:version="0.32"
   inkscape:version="0.48.4 r9939"
   version="1.0"
   sodipodi:docname="Folder.svg"
   inkscape:output_extension="org.inkscape.output.svg.inkscape"
   inkscape:export-filename="C:\Users\Ryan\Desktop\folder.png"
   inkscape:export-xdpi="90"
   inkscape:export-ydpi="90">
  <defs
     id="defs4">
    <inkscape:perspective
       sodipodi:type="inkscape:persp3d"
       inkscape:vp_x="0 : 8 : 1"
       inkscape:vp_y="0 : 1000 : 0"
       inkscape:vp_z="16 : 8 : 1"
       inkscape:persp3d-origin="8 : 5.3333333 : 1"
       id="perspective114" />
    <linearGradient
       id="linearGradient5095"
       inkscape:collect="always">
      <stop
         id="stop5097"
         offset="0"
         style="stop-color:#969696;stop-opacity:1" />
      <stop
         id="stop5099"
         offset="1"
         style="stop-color:#000000;stop-opacity:1" />
    </linearGradient>
    <linearGradient
       id="linearGradient5001">
      <stop
         style="stop-color:#969696;stop-opacity:1"
         offset="0"
         id="stop5003" />
      <stop
         style="stop-color:#000000;stop-opacity:1"
         offset="1"
         id="stop5005" />
    </linearGradient>
    <linearGradient
       id="linearGradient4992"
       inkscape:collect="always">
      <stop
         id="stop4994"
         offset="0"
         style="stop-color:#d2d2d2;stop-opacity:1" />
      <stop
         id="stop4996"
         offset="1"
         style="stop-color:#aaaaaa;stop-opacity:1" />
    </linearGradient>
    <linearGradient
       inkscape:collect="always"
       id="linearGradient4986">
      <stop
         style="stop-color:#d2d2d2;stop-opacity:1"
         offset="0"
         id="stop4988" />
      <stop
         style="stop-color:#f0f0f0;stop-opacity:1"
         offset="1"
         id="stop4990" />
    </linearGradient>
    <linearGradient
       inkscape:collect="always"
       id="linearGradient3197">
      <stop
         style="stop-color:#bebebe;stop-opacity:1"
         offset="0"
         id="stop3199" />
      <stop
         style="stop-color:#a0a0a0;stop-opacity:1"
         offset="1"
         id="stop3201" />
    </linearGradient>
    <linearGradient
       inkscape:collect="always"
       xlink:href="#linearGradient4992"
       id="linearGradient3203"
       x1="4"
       y1="0"
       x2="4"
       y2="16"
       gradientUnits="userSpaceOnUse" />
    <linearGradient
       id="linearGradient3217"
       inkscape:collect="always">
      <stop
         id="stop3219"
         offset="0"
         style="stop-color:#c3c3c3;stop-opacity:1" />
      <stop
         id="stop3221"
         offset="1"
         style="stop-color:#e6e6e6;stop-opacity:1" />
    </linearGradient>
    <linearGradient
       inkscape:collect="always"
       xlink:href="#linearGradient4986"
       id="linearGradient3215"
       gradientUnits="userSpaceOnUse"
       x1="1.1428571"
       y1="16"
       x2="1.1428571"
       y2="0"
       gradientTransform="matrix(0.875,0,0,0.875,1.0000001,1)" />
    <linearGradient
       id="linearGradient3284">
      <stop
         id="stop3286"
         offset="0"
         style="stop-color:#98cee5;stop-opacity:1;" />
      <stop
         id="stop3288"
         offset="1"
         style="stop-color:#478dbd;stop-opacity:1" />
    </linearGradient>
    <linearGradient
       id="linearGradient3278">
      <stop
         style="stop-color:#3a77a2;stop-opacity:0;"
         offset="0"
         id="stop3280" />
      <stop
         style="stop-color:#3a77a2;stop-opacity:1;"
         offset="1"
         id="stop3282" />
    </linearGradient>
    <linearGradient
       id="linearGradient3272">
      <stop
         id="stop3274"
         offset="0"
         style="stop-color:#98cee5;stop-opacity:1;" />
      <stop
         id="stop3276"
         offset="1"
         style="stop-color:#448cc0;stop-opacity:1;" />
    </linearGradient>
    <linearGradient
       id="linearGradient3266">
      <stop
         id="stop3268"
         offset="0"
         style="stop-color:#3184bf;stop-opacity:1;" />
      <stop
         id="stop3270"
         offset="1"
         style="stop-color:#1a3f68;stop-opacity:1;" />
    </linearGradient>
    <linearGradient
       id="linearGradient3902">
      <stop
         style="stop-color:#56a2c2;stop-opacity:0;"
         offset="0"
         id="stop3904" />
      <stop
         style="stop-color:#56a2c2;stop-opacity:1;"
         offset="1"
         id="stop3906" />
    </linearGradient>
    <linearGradient
       id="linearGradient3896">
      <stop
         id="stop3898"
         offset="0"
         style="stop-color:#b9ebff;stop-opacity:1" />
      <stop
         id="stop3900"
         offset="1"
         style="stop-color:#78bfdc;stop-opacity:1" />
    </linearGradient>
    <linearGradient
       id="linearGradient3378">
      <stop
         id="stop3380"
         offset="0"
         style="stop-color:#58afd4;stop-opacity:1;" />
      <stop
         id="stop3382"
         offset="1"
         style="stop-color:#296e9f;stop-opacity:1;" />
    </linearGradient>
    <linearGradient
       id="linearGradient3384">
      <stop
         style="stop-color:#19a0d6;stop-opacity:1;"
         offset="0"
         id="stop3386" />
      <stop
         style="stop-color:#0f4f7d;stop-opacity:1;"
         offset="1"
         id="stop3388" />
    </linearGradient>
    <linearGradient
       id="linearGradient3636">
      <stop
         style="stop-color:#b3e9f4;stop-opacity:1"
         offset="0"
         id="stop3638" />
      <stop
         style="stop-color:#63abc9;stop-opacity:1;"
         offset="1"
         id="stop3640" />
    </linearGradient>
    <linearGradient
       inkscape:collect="always"
       xlink:href="#linearGradient3636"
       id="linearGradient3642"
       x1="7.0753851"
       y1="1.069738"
       x2="7.5550723"
       y2="7"
       gradientUnits="userSpaceOnUse"
       gradientTransform="matrix(1.0714286,0,0,1.0833334,-0.5714286,-0.5833334)" />
    <linearGradient
       id="linearGradient3167">
      <stop
         id="stop3169"
         offset="0"
         style="stop-color:#3e90b2;stop-opacity:0" />
      <stop
         id="stop3171"
         offset="1"
         style="stop-color:#3e90b2;stop-opacity:1;" />
    </linearGradient>
    <linearGradient
       inkscape:collect="always"
       xlink:href="#linearGradient3167"
       id="linearGradient3165"
       gradientUnits="userSpaceOnUse"
       x1="8"
       y1="8"
       x2="8"
       y2="16"
       gradientTransform="matrix(1,0,0,0.5,0,8)" />
    <linearGradient
       inkscape:collect="always"
       xlink:href="#linearGradient3384"
       id="linearGradient3390"
       x1="8"
       y1="0"
       x2="8"
       y2="16"
       gradientUnits="userSpaceOnUse" />
    <linearGradient
       inkscape:collect="always"
       xlink:href="#linearGradient3896"
       id="linearGradient2597"
       gradientUnits="userSpaceOnUse"
       gradientTransform="matrix(1.0714286,0,0,1.0833334,-0.571428,-0.583333)"
       x1="7.0753851"
       y1="1.069738"
       x2="7.5550723"
       y2="7" />
    <linearGradient
       inkscape:collect="always"
       xlink:href="#linearGradient3902"
       id="linearGradient2599"
       gradientUnits="userSpaceOnUse"
       gradientTransform="matrix(1,0,0,0.5,0,8)"
       x1="8"
       y1="8"
       x2="8"
       y2="16" />
    <linearGradient
       inkscape:collect="always"
       xlink:href="#linearGradient3378"
       id="linearGradient3385"
       gradientUnits="userSpaceOnUse"
       x1="8"
       y1="0"
       x2="8"
       y2="16" />
    <linearGradient
       inkscape:collect="always"
       xlink:href="#linearGradient3284"
       id="linearGradient4034"
       gradientUnits="userSpaceOnUse"
       gradientTransform="matrix(1.0714286,0,0,1.0833334,-0.5714281,-0.5833333)"
       x1="7.0753851"
       y1="1.069738"
       x2="7.5550723"
       y2="7" />
    <linearGradient
       inkscape:collect="always"
       xlink:href="#linearGradient3266"
       id="linearGradient3260"
       gradientUnits="userSpaceOnUse"
       x1="8"
       y1="0"
       x2="8"
       y2="16" />
    <linearGradient
       inkscape:collect="always"
       xlink:href="#linearGradient3272"
       id="linearGradient3262"
       gradientUnits="userSpaceOnUse"
       gradientTransform="matrix(1.0714286,0,0,1.0833334,-0.5714281,-0.5833334)"
       x1="7.0753851"
       y1="1.069738"
       x2="7.5550723"
       y2="7" />
    <linearGradient
       inkscape:collect="always"
       xlink:href="#linearGradient3278"
       id="linearGradient3264"
       gradientUnits="userSpaceOnUse"
       gradientTransform="matrix(1,0,0,0.5,5e-7,8)"
       x1="8"
       y1="8"
       x2="8"
       y2="16" />
    <linearGradient
       inkscape:collect="always"
       xlink:href="#linearGradient3197"
       id="linearGradient3614"
       gradientUnits="userSpaceOnUse"
       x1="0"
       y1="0"
       x2="0"
       y2="16" />
    <linearGradient
       inkscape:collect="always"
       xlink:href="#linearGradient3217"
       id="linearGradient3616"
       gradientUnits="userSpaceOnUse"
       gradientTransform="matrix(0.875,0,0,0.875,0.9999999,1)"
       x1="0"
       y1="16"
       x2="0"
       y2="0" />
    <linearGradient
       inkscape:collect="always"
       xlink:href="#linearGradient5001"
       id="linearGradient5007"
       x1="8"
       y1="4"
       x2="8"
       y2="12"
       gradientUnits="userSpaceOnUse"
       gradientTransform="translate(0,0.5)" />
    <linearGradient
       inkscape:collect="always"
       xlink:href="#linearGradient5095"
       id="linearGradient5083"
       x1="8"
       y1="4"
       x2="8"
       y2="12"
       gradientUnits="userSpaceOnUse" />
    <linearGradient
       inkscape:collect="always"
       xlink:href="#linearGradient5001"
       id="linearGradient3306"
       gradientUnits="userSpaceOnUse"
       x1="9.5"
       y1="3.5"
       x2="9.5"
       y2="12.5"
       gradientTransform="translate(-16.76657,1.1647011)" />
    <linearGradient
       gradientTransform="matrix(0,-0.8731379,0.87987409,0,-16.219061,15.061942)"
       inkscape:collect="always"
       xlink:href="#linearGradient3149"
       id="linearGradient3155"
       x1="8"
       y1="3.5"
       x2="8"
       y2="14.5"
       gradientUnits="userSpaceOnUse" />
    <linearGradient
       id="linearGradient3149">
      <stop
         style="stop-color:#ffffff;stop-opacity:0.8"
         offset="0"
         id="stop3151" />
      <stop
         style="stop-color:#ffffff;stop-opacity:0.4"
         offset="1"
         id="stop3153" />
    </linearGradient>
    <linearGradient
       inkscape:collect="always"
       xlink:href="#linearGradient3175"
       id="linearGradient3181"
       x1="2"
       y1="4"
       x2="4.5"
       y2="15"
       gradientUnits="userSpaceOnUse"
       gradientTransform="translate(1,-1)" />
    <linearGradient
       id="linearGradient3175">
      <stop
         style="stop-color:#ffffff;stop-opacity:1;"
         offset="0"
         id="stop3154" />
      <stop
         id="stop3171-1"
         offset="0.24866499"
         style="stop-color:#ffffb9;stop-opacity:1" />
      <stop
         style="stop-color:#d0bb48;stop-opacity:1"
         offset="1"
         id="stop3179" />
    </linearGradient>
    <linearGradient
       y2="15"
       x2="4.5"
       y1="4"
       x1="2"
       gradientTransform="matrix(0,-0.8731379,0.87987409,0,-18.054201,9.3465922)"
       gradientUnits="userSpaceOnUse"
       id="linearGradient3060"
       xlink:href="#linearGradient3175"
       inkscape:collect="always" />
    <linearGradient
       inkscape:collect="always"
       xlink:href="#linearGradient5001"
       id="linearGradient5568"
       x1="3.0409057"
       y1="8.0324192"
       x2="13.024912"
       y2="8.0324192"
       gradientUnits="userSpaceOnUse"
       gradientTransform="matrix(0,1,-1,0,16.065329,-4.8921722e-4)" />
    <linearGradient
       inkscape:collect="always"
       xlink:href="#linearGradient5001"
       id="linearGradient5576"
       x1="3.0409057"
       y1="8.0324192"
       x2="13.024912"
       y2="8.0324192"
       gradientUnits="userSpaceOnUse"
       gradientTransform="matrix(0,1,-1,0,16.065329,-4.8921722e-4)" />
    <linearGradient
       inkscape:collect="always"
       xlink:href="#linearGradient5001-5"
       id="linearGradient5576-5"
       x1="3.0409057"
       y1="8.0324192"
       x2="13.024912"
       y2="8.0324192"
       gradientUnits="userSpaceOnUse"
       gradientTransform="matrix(0,1,-1,0,16.065329,-4.8921722e-4)" />
    <linearGradient
       id="linearGradient5001-5">
      <stop
         style="stop-color:#969696;stop-opacity:1"
         offset="0"
         id="stop5003-1" />
      <stop
         style="stop-color:#000000;stop-opacity:1"
         offset="1"
         id="stop5005-5" />
    </linearGradient>
    <linearGradient
       inkscape:collect="always"
       xlink:href="#linearGradient5001-5"
       id="linearGradient5568-5"
       x1="3.0409057"
       y1="8.0324192"
       x2="13.024912"
       y2="8.0324192"
       gradientUnits="userSpaceOnUse"
       gradientTransform="matrix(0,1,-1,0,16.065329,-4.8921722e-4)" />
    <linearGradient
       id="linearGradient5593">
      <stop
         style="stop-color:#969696;stop-opacity:1"
         offset="0"
         id="stop5595" />
      <stop
         style="stop-color:#000000;stop-opacity:1"
         offset="1"
         id="stop5597" />
    </linearGradient>
  </defs>
  <sodipodi:namedview
     id="base"
     pagecolor="#ffffff"
     bordercolor="#666666"
     borderopacity="1.0"
     gridtolerance="10000"
     guidetolerance="10"
     objecttolerance="10"
     inkscape:pageopacity="0.0"
     inkscape:pageshadow="2"
     inkscape:zoom="7.589507"
     inkscape:cx="5.7352815"
     inkscape:cy="10.898496"
     inkscape:document-units="px"
     inkscape:current-layer="layer12"
     width="16px"
     height="16px"
     showgrid="true"
     inkscape:window-width="1366"
     inkscape:window-height="716"
     inkscape:window-x="-8"
     inkscape:window-y="-8"
     inkscape:grid-points="true"
     inkscape:window-maximized="1">
    <inkscape:grid
       id="GridFromPre046Settings"
       type="xygrid"
       originx="0px"
       originy="0px"
       spacingx="0.5px"
       spacingy="0.5px"
       color="#0000ff"
       empcolor="#0000ff"
       opacity="0.2"
       empopacity="0.4"
       empspacing="4" />
  </sodipodi:namedview>
  <metadata
     id="metadata7">
    <rdf:RDF>
      <cc:Work
         rdf:about="">
        <dc:format>image/svg+xml</dc:format>
        <dc:type
           rdf:resource="http://purl.org/dc/dcmitype/StillImage" />
        <dc:creator>
          <cc:Agent>
            <dc:title>Arvid Axelsson</dc:title>
          </cc:Agent>
        </dc:creator>
        <cc:license
           rdf:resource="http://creativecommons.org/licenses/by-sa/3.0/" />
        <dc:title></dc:title>
      </cc:Work>
      <cc:License
         rdf:about="http://creativecommons.org/licenses/by-sa/3.0/">
        <cc:permits
           rdf:resource="http://creativecommons.org/ns#Reproduction" />
        <cc:permits
           rdf:resource="http://creativecommons.org/ns#Distribution" />
        <cc:requires
           rdf:resource="http://creativecommons.org/ns#Notice" />
        <cc:requires
           rdf:resource="http://creativecommons.org/ns#Attribution" />
        <cc:permits
           rdf:resource="http://creativecommons.org/ns#DerivativeWorks" />
        <cc:requires
           rdf:resource="http://creativecommons.org/ns#ShareAlike" />
      </cc:License>
    </rdf:RDF>
  </metadata>
  <g
     inkscape:groupmode="layer"
     id="layer7"
     inkscape:label="Blue darker"
     style="display:none">
    <rect
       style="opacity:1;fill:url(#linearGradient3260);fill-opacity:1;fill-rule:evenodd;stroke:none;stroke-width:2;stroke-linecap:square;stroke-linejoin:miter;marker:none;marker-start:none;marker-mid:none;marker-end:none;stroke-miterlimit:4;stroke-dasharray:none;stroke-dashoffset:0;stroke-opacity:1;visibility:visible;display:inline;overflow:visible;enable-background:accumulate"
       id="rect3254"
       width="16"
       height="16"
       x="7.1884153e-07"
       y="6.1065677e-09"
       rx="2.5"
       ry="2.5" />
    <path
       style="fill:url(#linearGradient3262);fill-opacity:1;stroke:none;stroke-width:2;stroke-linecap:round;stroke-linejoin:round;stroke-miterlimit:4;stroke-opacity:1;display:inline"
       d="M 2.5000005,0.5 L 13.500001,0.5 C 14.608,0.5 15.5,1.392 15.5,2.5 L 15.5,4 C 15.5,5 6.0000005,7 0.5000005,7 L 0.5000005,2.5 C 0.5000005,1.392 1.3920005,0.5 2.5000005,0.5 z"
       id="path3256"
       sodipodi:nodetypes="ccccccc" />
    <rect
       ry="2.5"
       rx="2.5"
       y="8"
       x="7.1884153e-07"
       height="8"
       width="16"
       id="rect3258"
       style="opacity:1;fill:url(#linearGradient3264);fill-opacity:1;fill-rule:evenodd;stroke:none;stroke-width:2;stroke-linecap:square;stroke-linejoin:miter;marker:none;marker-start:none;marker-mid:none;marker-end:none;stroke-miterlimit:4;stroke-dasharray:none;stroke-dashoffset:0;stroke-opacity:1;visibility:visible;display:inline;overflow:visible;enable-background:accumulate" />
  </g>
  <g
     inkscape:label="Med blue"
     inkscape:groupmode="layer"
     id="layer1"
     style="display:none">
    <rect
       style="opacity:1;fill:url(#linearGradient3390);fill-opacity:1;fill-rule:evenodd;stroke:none;stroke-width:2;stroke-linecap:square;stroke-linejoin:miter;marker:none;marker-start:none;marker-mid:none;marker-end:none;stroke-miterlimit:4;stroke-dasharray:none;stroke-dashoffset:0;stroke-opacity:1;visibility:visible;display:inline;overflow:visible;enable-background:accumulate"
       id="rect3149"
       width="16"
       height="16"
       x="0"
       y="0"
       rx="2.5"
       ry="2.5" />
    <path
       style="fill:url(#linearGradient3642);fill-opacity:1;stroke:none;stroke-width:2;stroke-linecap:round;stroke-linejoin:round;stroke-miterlimit:4;stroke-opacity:1;display:inline"
       d="M 2.5,0.5 L 13.5,0.5 C 14.608,0.5 15.5,1.392 15.5,2.5 L 15.5,4 C 15.5,5 6,7 0.5,7 L 0.5,2.5 C 0.5,1.392 1.392,0.5 2.5,0.5 z"
       id="rect3602"
       sodipodi:nodetypes="ccccccc" />
    <rect
       ry="2.5"
       rx="2.5"
       y="8"
       x="0"
       height="8"
       width="16"
       id="rect3163"
       style="opacity:1;fill:url(#linearGradient3165);fill-opacity:1;fill-rule:evenodd;stroke:none;stroke-width:2;stroke-linecap:square;stroke-linejoin:miter;marker:none;marker-start:none;marker-mid:none;marker-end:none;stroke-miterlimit:4;stroke-dasharray:none;stroke-dashoffset:0;stroke-opacity:1;visibility:visible;display:inline;overflow:visible;enable-background:accumulate" />
  </g>
  <g
     inkscape:groupmode="layer"
     id="layer4"
     inkscape:label="Blue brighter"
     style="display:none">
    <rect
       style="opacity:1;fill:url(#linearGradient3385);fill-opacity:1;fill-rule:evenodd;stroke:none;stroke-width:2;stroke-linecap:square;stroke-linejoin:miter;marker:none;marker-start:none;marker-mid:none;marker-end:none;stroke-miterlimit:4;stroke-dasharray:none;stroke-dashoffset:0;stroke-opacity:1;visibility:visible;display:inline;overflow:visible;enable-background:accumulate"
       id="rect2589"
       width="16"
       height="16"
       x="0"
       y="0"
       rx="2.5"
       ry="2.5" />
    <path
       style="fill:url(#linearGradient2597);fill-opacity:1;stroke:none;stroke-width:2;stroke-linecap:round;stroke-linejoin:round;stroke-miterlimit:4;stroke-opacity:1;display:inline"
       d="M 2.5,0.49999999 L 13.5,0.49999999 C 14.608,0.49999999 15.5,1.392 15.5,2.5 L 15.5,4 C 15.5,5 6,7 0.5,7 L 0.5,2.5 C 0.5,1.392 1.392,0.49999999 2.5,0.49999999 z"
       id="path2591"
       sodipodi:nodetypes="ccccccc" />
    <rect
       ry="2.5"
       rx="2.5"
       y="8"
       x="0"
       height="8"
       width="16"
       id="rect2593"
       style="opacity:1;fill:url(#linearGradient2599);fill-opacity:1;fill-rule:evenodd;stroke:none;stroke-width:2;stroke-linecap:square;stroke-linejoin:miter;marker:none;marker-start:none;marker-mid:none;marker-end:none;stroke-miterlimit:4;stroke-dasharray:none;stroke-dashoffset:0;stroke-opacity:1;visibility:visible;display:inline;overflow:visible;enable-background:accumulate" />
  </g>
  <g
     inkscape:groupmode="layer"
     id="layer5"
     style="display:none"
     inkscape:label="Blue pressed">
    <rect
       style="opacity:1;fill:#214d7f;fill-opacity:1;fill-rule:evenodd;stroke:none;stroke-width:2;stroke-linecap:square;stroke-linejoin:miter;marker:none;marker-start:none;marker-mid:none;marker-end:none;stroke-miterlimit:4;stroke-dasharray:none;stroke-dashoffset:0;stroke-opacity:1;visibility:visible;display:inline;overflow:visible;enable-background:accumulate"
       id="rect4030"
       width="16"
       height="16"
       x="0"
       y="0"
       rx="2.5"
       ry="2.5" />
    <path
       style="opacity:0.8;fill:url(#linearGradient4034);fill-opacity:1;stroke:none;stroke-width:2;stroke-linecap:round;stroke-linejoin:round;stroke-miterlimit:4;stroke-opacity:1;display:inline"
       d="M 2.4999999,1.0000001 L 13.5,1.0000001 C 14.608,1.0000001 15.500001,1.8920001 15.500001,3.0000001 L 15.500001,4.5000001 C 15.500001,5.5000003 5.9999999,7.5000003 0.49999991,7.5000003 L 0.49999991,3.0000001 C 0.49999991,1.8920001 1.3919999,1.0000001 2.4999999,1.0000001 z"
       id="path4032"
       sodipodi:nodetypes="ccccccc" />
  </g>
  <g
     inkscape:groupmode="layer"
     id="layer3"
     style="display:inline"
     inkscape:label="Gray">
    <rect
       style="opacity:1;fill:url(#linearGradient3614);fill-opacity:1;fill-rule:evenodd;stroke:none;stroke-width:2;stroke-linecap:square;stroke-linejoin:miter;marker:none;marker-start:none;marker-mid:none;marker-end:none;stroke-miterlimit:4;stroke-dasharray:none;stroke-dashoffset:0;stroke-opacity:1;visibility:visible;display:inline;overflow:visible;enable-background:accumulate"
       id="rect3609"
       width="16"
       height="16"
       x="0"
       y="0"
       rx="2.5"
       ry="2.5" />
    <rect
       rx="1.5"
       y="0.99999976"
       x="1"
       height="14"
       width="14"
       id="rect3213"
       style="opacity:1;fill:url(#linearGradient3616);fill-opacity:1;fill-rule:evenodd;stroke:none;stroke-width:2;stroke-linecap:square;stroke-linejoin:miter;marker:none;marker-start:none;marker-mid:none;marker-end:none;stroke-miterlimit:4;stroke-dasharray:none;stroke-dashoffset:0;stroke-opacity:1;visibility:visible;display:inline;overflow:visible;enable-background:accumulate"
       ry="1.5" />
    <path
       style="fill:#ffffff;fill-opacity:1;stroke:none;stroke-width:2;stroke-linecap:round;stroke-linejoin:round;stroke-miterlimit:4;stroke-opacity:1;display:inline"
       d="M 2.8666666,1 L 13.133333,1 C 14.167467,1 15,1.7547692 15,2.6923077 L 15,3.9615385 C 15,4.8076923 6.1333328,6.5000004 0.99999987,6.5000004 L 0.99999987,2.6923077 C 0.99999987,1.7547692 1.8325332,1 2.8666666,1 z"
       id="path3612"
       sodipodi:nodetypes="ccccccc" />
  </g>
  <g
     inkscape:groupmode="layer"
     id="layer8"
     inkscape:label="Gray hover"
     style="display:none">
    <rect
       style="opacity:1;fill:url(#linearGradient3203);fill-opacity:1;fill-rule:evenodd;stroke:none;stroke-width:2;stroke-linecap:square;stroke-linejoin:miter;marker:none;marker-start:none;marker-mid:none;marker-end:none;stroke-miterlimit:4;stroke-dasharray:none;stroke-dashoffset:0;stroke-opacity:1;visibility:visible;display:inline;overflow:visible;enable-background:accumulate"
       id="rect4980"
       width="16"
       height="16"
       x="0"
       y="5.9604645e-08"
       rx="2.5"
       ry="2.5" />
    <rect
       rx="1.5"
       y="1"
       x="1"
       height="14"
       width="14"
       id="rect4982"
       style="opacity:1;fill:url(#linearGradient3215);fill-opacity:1;fill-rule:evenodd;stroke:none;stroke-width:2;stroke-linecap:square;stroke-linejoin:miter;marker:none;marker-start:none;marker-mid:none;marker-end:none;stroke-miterlimit:4;stroke-dasharray:none;stroke-dashoffset:0;stroke-opacity:1;visibility:visible;display:inline;overflow:visible;enable-background:accumulate"
       ry="1.5" />
    <path
       style="fill:#ffffff;fill-opacity:1;stroke:none;stroke-width:2;stroke-linecap:round;stroke-linejoin:round;stroke-miterlimit:4;stroke-opacity:1;display:inline"
       d="M 2.8666667,1 L 13.133333,1 C 14.167467,1 15,1.7547692 15,2.6923077 L 15,3.9615385 C 15,4.8076923 6.1333334,6.5 1.0000001,6.5 L 1.0000001,2.6923077 C 1.0000001,1.7547692 1.8325333,1 2.8666667,1 z"
       id="path4984"
       sodipodi:nodetypes="ccccccc" />
  </g>
  <g
     inkscape:groupmode="layer"
     id="layer10"
     inkscape:label="Gray active"
     style="display:none">
    <rect
       style="opacity:1;fill:#aaaaaa;fill-opacity:1;fill-rule:evenodd;stroke:none;stroke-width:2;stroke-linecap:square;stroke-linejoin:miter;marker:none;marker-start:none;marker-mid:none;marker-end:none;stroke-miterlimit:4;stroke-dasharray:none;stroke-dashoffset:0;stroke-opacity:1;visibility:visible;display:inline;overflow:visible;enable-background:accumulate"
       id="rect5066"
       width="16"
       height="16"
       x="1.8857422e-07"
       y="-2.0129517e-07"
       rx="2.5"
       ry="2.5" />
    <path
       style="opacity:0.5;fill:#ffffff;fill-opacity:1;stroke:none;stroke-width:2;stroke-linecap:round;stroke-linejoin:round;stroke-miterlimit:4;stroke-opacity:1;display:inline"
       d="M 2.8666667,1 L 13.133333,1 C 14.167467,1 15,1.7547692 15,2.6923077 L 15,3.9615385 C 15,4.8076923 6.1333333,6.5 1,6.5 L 1,2.6923077 C 1,1.7547692 1.8325333,1 2.8666667,1 z"
       id="path5068"
       sodipodi:nodetypes="ccccccc" />
  </g>
  <g
     inkscape:groupmode="layer"
     id="layer2"
     style="display:none"
     inkscape:label="Pause">
    <path
       id="rect2399"
       style="opacity:0.7;fill:#ffffff;fill-opacity:1;stroke:none;stroke-width:2;stroke-linecap:square;stroke-linejoin:miter;stroke-miterlimit:4;stroke-opacity:1;display:inline"
       d="M 5,4.5 L 7,4.5 L 7,12.5 L 5,12.5 L 5,4.5 z M 9,4.5 L 11,4.5 L 11,12.5 L 9,12.5 L 9,4.5 z" />
  </g>
  <g
     inkscape:groupmode="layer"
     id="layer9"
     inkscape:label="Pause dark"
     style="display:none">
    <path
       d="M 5,5.4999997 L 7,5.4999997 L 7,13.5 L 5,13.5 L 5,5.4999997 z M 9,5.4999997 L 11,5.4999997 L 11,13.5 L 9,13.5 L 9,5.4999997 z"
       style="opacity:0.5;fill:#ffffff;fill-opacity:1;stroke:none;stroke-width:2;stroke-linecap:square;stroke-linejoin:miter;stroke-miterlimit:4;stroke-opacity:1;display:inline"
       id="path5009" />
    <path
       id="path4999"
       style="opacity:1;fill:url(#linearGradient5007);fill-opacity:1;stroke:none;stroke-width:2;stroke-linecap:square;stroke-linejoin:miter;stroke-miterlimit:4;stroke-opacity:1;display:inline"
       d="M 5,4.4999997 L 7,4.4999997 L 7,12.5 L 5,12.5 L 5,4.4999997 z M 9,4.4999997 L 11,4.4999997 L 11,12.5 L 9,12.5 L 9,4.4999997 z" />
  </g>
  <g
     inkscape:groupmode="layer"
     id="layer6"
     style="display:none"
     inkscape:label="Resume">
    <path
       style="opacity:0.7;fill:#ffffff;fill-opacity:1;fill-rule:evenodd;stroke:none;stroke-width:1px;stroke-linecap:butt;stroke-linejoin:miter;stroke-opacity:1;display:inline"
       d="M 5,4.5 C 5,4.5 5,12.5 5,12.5 L 12.5,8.5 L 5,4.5 z"
       id="path3179"
       sodipodi:nodetypes="cccc" />
  </g>
  <g
     inkscape:groupmode="layer"
     id="layer11"
     inkscape:label="Resume dark"
     style="display:none">
    <path
       sodipodi:nodetypes="cccc"
       id="path5091"
       d="M 5,5 C 5,5 5,13 5,13 L 12.5,9 L 5,5 z"
       style="opacity:0.5;fill:#ffffff;fill-opacity:1;fill-rule:evenodd;stroke:none;stroke-width:1px;stroke-linecap:butt;stroke-linejoin:miter;stroke-opacity:1;display:inline" />
    <path
       style="opacity:1;fill:url(#linearGradient5083);fill-opacity:1;fill-rule:evenodd;stroke:none;stroke-width:1px;stroke-linecap:butt;stroke-linejoin:miter;stroke-opacity:1;display:inline"
       d="M 5,4 C 5,4 5,12 5,12 L 12.5,8 L 5,4 z"
       id="path5075"
       sodipodi:nodetypes="cccc" />
  </g>
  <g
     inkscape:groupmode="layer"
     id="layer12"
     inkscape:label="Restart"
     style="display:inline">
    <path
       sodipodi:nodetypes="cccc"
       id="path3309"
       d="M 8,3 L 8,8 L 4,5.5 L 8,3 z"
       style="opacity:1;fill:none;fill-opacity:1;fill-rule:evenodd;stroke:none;stroke-width:1;stroke-linecap:butt;stroke-linejoin:round;marker:none;marker-start:none;marker-mid:none;marker-end:none;stroke-miterlimit:4;stroke-dasharray:none;stroke-dashoffset:0;stroke-opacity:1;visibility:visible;display:inline;overflow:visible;enable-background:accumulate" />
    <path
       style="opacity:0.5;fill:#ffffff;fill-opacity:1;stroke:none;display:inline"
       d="m 13.833296,10.1394 c -0.0213,0.116263 -0.215961,0.91489 -0.545953,2.239877 l -0.316607,1.271238 -0.786775,0.018 c -1.019421,0.02333 -7.3853042,0.02327 -8.8530292,-8.5e-5 l -1.1324429,-0.01802 -0.0026,-4.1809164 c -0.0014,-2.299504 0.006,-4.234204 0.01651,-4.299335 0.01502,-0.0932 0.04893,-0.148034 0.159248,-0.25751 0.08769,-0.08702 0.1760699,-0.147365 0.2360659,-0.161186 0.05275,-0.01215 1.711673,-0.02962 3.686509,-0.03881 l 3.590608,-0.01672 0.111117,-0.07643 c 0.1204122,-0.08283 0.1441822,-0.150641 0.1453542,-0.414712 3.32e-4,-0.07504 0.0084,-0.182953 0.01783,-0.23982 l 0.01722,-0.103393 1.201229,0.0079 1.20123,0.0079 0.111422,0.0732 c 0.06128,0.04026 0.140721,0.12007 0.176533,0.177356 0.0732,0.117093 0.06998,0.01698 0.08607,2.675823 l 0.0071,1.180099 -1.208554,0 -1.208555,0 -0.400084,-0.412379 -0.4001282,-0.412378 -2.364662,-0.01067 c -1.300564,-0.0059 -2.799403,-0.01542 -3.330753,-0.02123 l -0.966076,-0.01049 -0.01673,0.126646 c -0.0092,0.06966 -0.09078,0.863355 -0.181289,1.763779 -0.09051,0.900423 -0.170563,1.6790484 -0.177895,1.7302784 -0.0073,0.05123 -0.0034,0.08193 0.0085,0.06822 0.01205,-0.01371 0.08699,-0.338031 0.166532,-0.72071 0.161225,-0.7755714 0.25329,-1.1293164 0.335574,-1.2893704 0.08112,-0.1578 0.253477,-0.331647 0.452383,-0.456304 l 0.175107,-0.109744 1.430469,0 1.430471,0 4.2e-4,0.08868 c 2.75e-4,0.05521 0.0087,0.07565 0.0225,0.05416 0.01717,-0.02685 0.204775,-0.03291 0.844054,-0.02729 l 0.821972,0.0073 0.03777,0.190999 c 0.02077,0.105049 0.04806,0.201655 0.06064,0.214681 0.01257,0.01303 -1.37e-4,-0.07877 -0.02828,-0.204006 -0.03886,-0.173012 -0.04327,-0.232656 -0.01836,-0.248371 0.05157,-0.03254 1.241574,-0.02574 1.329931,0.0076 0.04244,0.01601 0.2620842,0.212466 0.4881082,0.436569 l 0.41095,0.407459 1.171697,0 c 0.800085,0 1.181084,-0.0093 1.201299,-0.02938 0.04374,-0.0434 0.343783,0.115401 0.510651,0.270261 0.196431,0.182296 0.295998,0.365556 0.291623,0.536754 -0.0019,0.07504 -0.0091,0.1671254 -0.01599,0.2046424 l 0,0 z M 8.5175468,8.8468216 c -0.01195,-0.01309 -0.01161,0.02068 7.4e-4,0.07504 l 0.02246,0.09884 -0.861404,0 -0.861404,0 -0.01268,-0.07504 c -0.01205,-0.07129 -0.01249,-0.07095 -0.0087,0.0068 l 0.004,0.08186 0.886136,0.0072 0.886137,0.0072 -0.01677,-0.08906 c -0.0092,-0.04898 -0.02655,-0.09977 -0.03849,-0.112856 l 0,0 z m -1.775576,-0.424138 c -0.01916,-0.02143 -0.007,0.202305 0.01691,0.31151 0.01773,0.0809 0.01995,0.0562 0.0086,-0.0955 -0.0084,-0.112553 -0.0199,-0.209757 -0.0255,-0.216011 z"
       id="path3033-8"
       inkscape:connector-curvature="0" />
    <path
       style="fill:url(#linearGradient5576);fill-opacity:1;stroke:url(#linearGradient5568);stroke-width:0.15960509;stroke-miterlimit:4;stroke-opacity:1;stroke-dasharray:none"
       d="m 13.843666,9.3980414 c -0.0213,0.116263 -0.215961,0.9148896 -0.545953,2.2398766 l -0.316607,1.271238 -0.786775,0.018 c -1.019422,0.02333 -7.3853049,0.02327 -8.8530299,-8.5e-5 l -1.132443,-0.01802 -0.0026,-4.1809154 c -0.0014,-2.299504 0.006,-4.2342048 0.01651,-4.2993358 0.01502,-0.0932 0.04893,-0.148034 0.159248,-0.25751 0.08769,-0.08702 0.17607,-0.147365 0.236066,-0.161186 0.05275,-0.01215 1.711673,-0.02962 3.6865085,-0.03881 l 3.5906089,-0.01672 0.1111165,-0.07643 c 0.120412,-0.08283 0.144182,-0.150641 0.145354,-0.414712 3.32e-4,-0.07504 0.0084,-0.182953 0.01783,-0.23982 l 0.01722,-0.103393 1.201229,0.0079 1.201231,0.0079 0.111422,0.0732 c 0.06128,0.04026 0.140721,0.12007 0.176533,0.177356 0.0732,0.117093 0.06998,0.01698 0.08607,2.675823 l 0.0071,1.1800998 -1.208555,0 -1.208555,0 -0.400084,-0.412379 -0.4001284,-0.412378 -2.3646616,-0.01067 c -1.3005644,-0.0059 -2.7994029,-0.01542 -3.3307529,-0.02123 l -0.966076,-0.01049 -0.01673,0.126646 c -0.0092,0.06966 -0.09078,0.863355 -0.181289,1.763779 -0.09051,0.9004228 -0.170563,1.6790478 -0.177895,1.7302778 -0.0073,0.05123 -0.0034,0.08193 0.0085,0.06822 0.01205,-0.01371 0.08699,-0.3380324 0.166532,-0.7207114 0.161225,-0.7755708 0.25329,-1.1293158 0.335574,-1.2893698 0.08112,-0.1578 0.253477,-0.331647 0.452383,-0.456304 l 0.175107,-0.109744 1.430469,0 1.4304705,0 4.2e-4,0.08868 c 2.75e-4,0.05521 0.0087,0.07565 0.0225,0.05416 0.01717,-0.02685 0.2047756,-0.03291 0.8440543,-0.02729 l 0.8219722,0.0073 0.037773,0.190999 c 0.020774,0.105049 0.048059,0.201655 0.060641,0.214681 0.012573,0.01303 -1.372e-4,-0.07877 -0.028279,-0.204006 -0.038864,-0.173012 -0.043272,-0.232656 -0.018363,-0.248371 0.051569,-0.03254 1.2415736,-0.02574 1.3299306,0.0076 0.042436,0.01601 0.2620843,0.212466 0.4881083,0.436569 l 0.41095,0.407459 1.171697,0 c 0.800086,0 1.181085,-0.0093 1.2013,-0.02938 0.04374,-0.0434 0.343783,0.115401 0.510651,0.270261 0.196431,0.182296 0.295998,0.365556 0.291623,0.5367538 -0.0019,0.07504 -0.0091,0.167125 -0.01599,0.204642 l 0,0 z M 8.5279165,8.1054636 c -0.011949,-0.01309 -0.011614,0.02068 7.4e-4,0.07504 l 0.022463,0.09884 -0.8614047,0 -0.8614037,0 -0.012679,-0.07504 c -0.012045,-0.07129 -0.012485,-0.07095 -0.00871,0.0068 l 0.00396,0.08186 0.8861361,0.0072 0.886137,0.0072 -0.01677,-0.08906 c -0.00922,-0.04898 -0.026546,-0.09977 -0.038494,-0.112856 l 0,0 z M 6.7523396,7.6813256 c -0.01916,-0.02143 -0.007,0.202305 0.016911,0.31151 0.017729,0.0809 0.019947,0.0562 0.00862,-0.0955 -0.00845,-0.112553 -0.019903,-0.209757 -0.025499,-0.216011 z"
       id="path3033"
       inkscape:connector-curvature="0" />
  </g>
</svg>
