<svg xmlns="http://www.w3.org/2000/svg" xmlns:xlink="http://www.w3.org/1999/xlink" width="24" height="24" version="1">
  <defs>
    <linearGradient id="d">
      <stop offset="0" stop-color="#c3eeff"/>
      <stop offset="1" stop-color="#fff"/>
    </linearGradient>
    <linearGradient id="c">
      <stop offset="0" stop-color="#527bc6"/>
      <stop offset="1" stop-color="#0038a0"/>
    </linearGradient>
    <linearGradient id="a">
      <stop offset="0" stop-color="#fff" stop-opacity="0"/>
      <stop offset=".151" stop-color="#fff" stop-opacity="0"/>
      <stop offset="1" stop-color="#fff"/>
    </linearGradient>
    <linearGradient id="b">
      <stop offset="0" stop-color="#e1feff"/>
      <stop offset=".254" stop-color="#52b9e3"/>
      <stop offset=".508" stop-color="#005ec8"/>
      <stop offset="1" stop-color="#0038a0" stop-opacity="0"/>
    </linearGradient>
    <radialGradient xlink:href="#a" id="g" cx="15.599" cy="20.4" fx="15.599" fy="20.4" r="15" gradientTransform="matrix(1.26734 0 0 .73333 -7.77 -3.46)" gradientUnits="userSpaceOnUse"/>
    <linearGradient xlink:href="#b" id="f" x1="16" y1="30.769" x2="16" y2="16" gradientUnits="userSpaceOnUse"/>
    <linearGradient xlink:href="#c" id="e" x1="11.077" y1="1.231" x2="11.077" y2="16" gradientUnits="userSpaceOnUse"/>
    <linearGradient xlink:href="#d" id="h" gradientUnits="userSpaceOnUse" gradientTransform="matrix(1 0 0 1.05882 -5 -3.824)" x1="16" y1="18.722" x2="15.5" y2="15.889"/>
  </defs>
  <path style="marker:none" d="M30.77 16a14.77 14.77 0 1 1-29.54 0 14.77 14.77 0 1 1 29.54 0z" transform="translate(-1 -1) scale(.8125)" fill="url(#e)" fill-rule="evenodd" overflow="visible"/>
  <path transform="matrix(.7448 0 0 .7448 .083 .083)" d="M30.77 16a14.77 14.77 0 1 1-29.54 0 14.77 14.77 0 1 1 29.54 0z" style="marker:none" fill="url(#f)" fill-rule="evenodd" overflow="visible"/>
  <path style="marker:none" d="M23 11.987c0 6.072-3.666-2.658-11-2.658s-11 8.73-11 2.658c0-6.072 4.928-11 11-11s11 4.928 11 11z" fill="url(#g)" fill-rule="evenodd" overflow="visible"/>
  <path d="M8.5 11H14v6.5l1.5.5v1h-7v-1l1.5-.5v-5L8.5 12v-1z" opacity=".2" fill="none" stroke="#000" stroke-width="2" stroke-linecap="square" stroke-linejoin="round"/>
  <path d="M8.5 11H14v6.5l1.5.5v1h-7v-1l1.5-.5v-5L8.5 12v-1z" fill="url(#h)"/>
  <path d="M15 6.5a3 3 0 1 1-6 0 3 3 0 1 1 6 0z" opacity=".2" fill="none" stroke="#000" stroke-linecap="square" stroke-linejoin="round"/>
  <path d="M14.5 6.5a2.5 2.5 0 1 1-5 0 2.5 2.5 0 1 1 5 0z" fill="#fff"/>
</svg>
