<svg xmlns="http://www.w3.org/2000/svg" xmlns:xlink="http://www.w3.org/1999/xlink" width="24" height="24" version="1">
  <defs>
    <linearGradient id="e">
      <stop offset="0" stop-color="#103968"/>
      <stop offset="1" stop-color="#3184bf"/>
    </linearGradient>
    <linearGradient id="d">
      <stop offset="0" stop-color="#fff"/>
      <stop offset="1" stop-color="#fff" stop-opacity="0"/>
    </linearGradient>
    <linearGradient id="c">
      <stop offset="0" stop-color="#0066ae"/>
      <stop offset="1" stop-color="#a7d6e9"/>
    </linearGradient>
    <linearGradient id="a">
      <stop offset="0" stop-color="#4799d1"/>
      <stop offset="1" stop-color="#cdf1ff"/>
    </linearGradient>
    <linearGradient id="b">
      <stop offset="0" stop-color="#fff"/>
      <stop offset="1" stop-color="#98afd3"/>
    </linearGradient>
    <linearGradient xlink:href="#a" id="f" x1="11.645" y1="31" x2="7.29" y2="4.871" gradientUnits="userSpaceOnUse"/>
    <linearGradient xlink:href="#b" id="h" x1="17.772" y1="13.046" x2="20.726" y2="28.997" gradientUnits="userSpaceOnUse"/>
    <linearGradient xlink:href="#c" id="g" x1="22.774" y1="31.968" x2="11.161" y2="1" gradientUnits="userSpaceOnUse"/>
    <linearGradient xlink:href="#d" id="j" x1="18" y1="18.5" x2="17.5" y2="13" gradientUnits="userSpaceOnUse"/>
    <linearGradient xlink:href="#e" id="i" gradientUnits="userSpaceOnUse" x1="19.694" y1="23.5" x2="18.694" y2="14" gradientTransform="matrix(.75 0 0 .75 1.068 -.337)"/>
  </defs>
  <path style="marker:none" d="M30.839 16A14.839 14.839 0 1 1 1.16 16a14.839 14.839 0 1 1 29.678 0z" transform="matrix(.775 0 0 .775 -.4 -.4)" fill="url(#f)" fill-rule="evenodd" stroke="url(#g)" stroke-width="1.29" overflow="visible"/>
  <path style="marker:none" d="M30.966 16a14.966 14.966 0 1 1-29.932 0 14.966 14.966 0 1 1 29.932 0z" transform="matrix(.63477 0 0 .63477 1.844 1.844)" fill="url(#h)" fill-rule="evenodd" overflow="visible"/>
  <text y="18" x="9.176" style="text-align:start;line-height:125%;-inkscape-font-specification:Georgia Bold" font-size="16" font-weight="700" fill="url(#i)" font-family="Georgia">
    <tspan style="text-align:start;line-height:125%;-inkscape-font-specification:Georgia Bold" y="18" x="9.176">i</tspan>
  </text>
  <path d="M28 16a12 12 0 1 1-24 0 12 12 0 1 1 24 0z" transform="scale(.75)" fill="none" stroke="url(#j)" stroke-width="1.333" stroke-linecap="square"/>
</svg>
