<svg xmlns="http://www.w3.org/2000/svg" xmlns:xlink="http://www.w3.org/1999/xlink" width="16" height="16" version="1">
  <defs>
    <linearGradient id="c">
      <stop offset="0" stop-color="#a0a0a0"/>
      <stop offset="1" stop-color="#c8c8c8"/>
    </linearGradient>
    <linearGradient id="b">
      <stop offset="0"/>
      <stop offset="1" stop-opacity="0"/>
    </linearGradient>
    <linearGradient id="a">
      <stop offset="0" stop-color="#fff"/>
      <stop offset="1" stop-color="#c8c8c8"/>
    </linearGradient>
    <linearGradient xlink:href="#a" id="e" x1="10.202" y1="10.04" x2="10.779" y2="17" gradientUnits="userSpaceOnUse" gradientTransform="translate(-4 -3)"/>
    <linearGradient xlink:href="#b" id="f" x1="21" y1="11" x2="21" y2="14" gradientUnits="userSpaceOnUse" gradientTransform="matrix(1.75 0 0 1 -24.75 -6)"/>
    <linearGradient xlink:href="#c" id="d" gradientUnits="userSpaceOnUse" gradientTransform="translate(-16 -13)" x1="29" y1="28" x2="29" y2="14"/>
  </defs>
  <path d="M2.5 14.5h10V5L9 1.5H2.5v13z" fill="none" stroke="url(#d)"/>
  <path d="M3 14h9V5L9 2H3v12z" fill="url(#e)" fill-rule="evenodd"/>
  <path d="M9 5v3h3V5H9z" opacity=".3" fill="url(#f)" fill-rule="evenodd"/>
  <path d="M9 2L8 6l4-1-3-3z" opacity=".25" fill-rule="evenodd"/>
  <path d="M9 2v3h3L9 2z" fill="#fff" fill-rule="evenodd"/>
  <path style="marker:none" d="M6.815 11.67a1.26 1.26 0 1 1-2.52 0 1.26 1.26 0 0 1 2.52 0z" fill="#29609f" fill-rule="evenodd" overflow="visible"/>
  <path d="M6.5 6c-1.101 0-2.11.392-2.914 1.024a5.056 5.056 0 0 1 1.969-.394 5.042 5.042 0 0 1 5.04 5.04c0 .696-.139 1.366-.394 1.969a4.704 4.704 0 0 0 1.024-2.914A4.727 4.727 0 0 0 6.5 6z" fill="#29609f"/>
  <path d="M6.027 8.205c-.87 0-1.638.39-2.185.984.341-.118.702-.197 1.083-.197A3.309 3.309 0 0 1 8.232 12.3c0 .381-.078.742-.196 1.083.595-.547.984-1.314.984-2.185a2.994 2.994 0 0 0-2.992-2.993z" fill="#29609f"/>
</svg>
