<svg xmlns="http://www.w3.org/2000/svg" xmlns:xlink="http://www.w3.org/1999/xlink" width="16" height="16" version="1">
  <defs>
    <linearGradient id="b">
      <stop offset="0" stop-color="#fff"/>
      <stop offset="1" stop-color="#fff"/>
    </linearGradient>
    <linearGradient id="a">
      <stop offset="0" stop-color="#b7a02f"/>
      <stop offset="1" stop-color="#e0d988"/>
    </linearGradient>
    <linearGradient id="c">
      <stop offset="0" stop-color="#fff"/>
      <stop offset=".25" stop-color="#ffffb9"/>
      <stop offset="1" stop-color="#d0bc48"/>
    </linearGradient>
    <linearGradient xlink:href="#a" id="d" x1="6.5" y1="16" x2="6.5" y2="2" gradientUnits="userSpaceOnUse" gradientTransform="translate(1 -1)"/>
    <linearGradient xlink:href="#b" id="f" x1="9.5" y1="3" x2="9.5" y2="14" gradientUnits="userSpaceOnUse"/>
    <linearGradient xlink:href="#c" id="e" gradientUnits="userSpaceOnUse" gradientTransform="translate(1 -1)" x1="1.5" y1="3" x2="7" y2="15"/>
  </defs>
  <path d="M1.5 2.531V13.5c0 .5.5 1 1 1h10c.5 0 1-.5 1-1v-3h-1v-8c0-.5-.5-1-1-1h-9c-.5 0-1 .531-1 1.031z" fill="#dac769" fill-rule="evenodd" stroke="url(#d)" stroke-linejoin="round"/>
  <path d="M2 2v12h9v-3.5l1-.969V2H2z" fill="url(#e)" fill-rule="evenodd"/>
  <path d="M11.5 14v-2.75l.5-.469" opacity=".4" fill="none" stroke="#a07100" stroke-linejoin="round"/>
  <path d="M2.5 2.5H12" fill="none" stroke="#fff" stroke-opacity=".41"/>
  <path d="M10.5 14v-3.25l1-.969V3" opacity=".5" fill="none" stroke="url(#f)" stroke-linejoin="round"/>
  <path style="marker:none" d="M5.781 10.619a1.4 1.4 0 1 1-2.8-.001 1.4 1.4 0 0 1 2.8 0z" opacity=".5" fill-rule="evenodd" overflow="visible"/>
  <path d="M5.431 4.319a5.226 5.226 0 0 0-3.237 1.137A5.618 5.618 0 0 1 4.38 5.02c3.091 0 5.6 2.509 5.6 5.6 0 .773-.154 1.517-.437 2.187A5.226 5.226 0 0 0 10.68 9.57a5.252 5.252 0 0 0-5.25-5.25z" opacity=".5"/>
  <path d="M4.906 6.769c-.968 0-1.82.432-2.428 1.093a3.64 3.64 0 0 1 1.203-.218 3.676 3.676 0 0 1 3.675 3.675c0 .423-.087.824-.218 1.203.66-.608 1.093-1.46 1.093-2.428a3.326 3.326 0 0 0-3.325-3.325z" opacity=".5"/>
</svg>
