<svg xmlns="http://www.w3.org/2000/svg" xmlns:xlink="http://www.w3.org/1999/xlink" width="16" height="16" version="1">
  <defs>
    <linearGradient id="a">
      <stop offset="0" stop-color="#ffeb2b"/>
      <stop offset="1" stop-color="#fff"/>
    </linearGradient>
    <linearGradient xlink:href="#a" id="m" gradientUnits="userSpaceOnUse" x1="8.054" y1="12.972" x2="5.076" y2="5.825"/>
    <linearGradient id="g">
      <stop offset="0" stop-color="#c1aa89"/>
      <stop offset="1" stop-color="#8c744f"/>
    </linearGradient>
    <linearGradient id="f">
      <stop offset="0" stop-color="#846a44"/>
      <stop offset="1" stop-color="#ded1b2"/>
    </linearGradient>
    <linearGradient id="e">
      <stop offset="0" stop-color="#d2bc97"/>
      <stop offset="1" stop-color="#543b24"/>
    </linearGradient>
    <linearGradient id="c">
      <stop offset="0" stop-color="#eee4ca"/>
      <stop offset=".5" stop-color="#c8b28c"/>
      <stop offset="1" stop-color="#775e3d"/>
    </linearGradient>
    <linearGradient id="d">
      <stop offset="0" stop-color="#fff"/>
      <stop offset=".5" stop-color="#fdf3de"/>
      <stop offset="1" stop-color="#d8c091"/>
    </linearGradient>
    <linearGradient id="b">
      <stop offset="0" stop-color="#fff"/>
      <stop offset=".15" stop-color="#faf4d2"/>
      <stop offset="1" stop-color="#a78349"/>
    </linearGradient>
    <linearGradient xlink:href="#b" id="k" x1="9" y1="20.5" x2="10.25" y2="27" gradientUnits="userSpaceOnUse" gradientTransform="translate(.167 -1.5) scale(.66667)"/>
    <linearGradient xlink:href="#c" id="h" x1="11.75" y1="11" x2="11.75" y2="16.25" gradientUnits="userSpaceOnUse" gradientTransform="translate(.167 -.833) scale(.66667)"/>
    <linearGradient xlink:href="#d" id="n" x1="4" y1="17" x2="20" y2="17" gradientUnits="userSpaceOnUse" gradientTransform="translate(.167 -.833) scale(.66667)"/>
    <linearGradient xlink:href="#e" id="j" x1="18.5" y1="11" x2="18.5" y2="16.25" gradientUnits="userSpaceOnUse" gradientTransform="translate(.167 -.833) scale(.66667)"/>
    <linearGradient xlink:href="#f" id="i" x1="5" y1="16.25" x2="5" y2="11" gradientUnits="userSpaceOnUse" gradientTransform="translate(.167 -.833) scale(.66667)"/>
    <linearGradient xlink:href="#g" id="l" x1="11.75" y1="19.25" x2="13.25" y2="26" gradientUnits="userSpaceOnUse" gradientTransform="translate(.167 -.833) scale(.66667)"/>
  </defs>
  <path d="M4.833 6.5H3.5L.5 10H3l1.833-3.5zM11 6.5h1.5l3 3.5H13l-2-3.5zM5 6.5h6-6z" fill="none" stroke="#bea983" stroke-width="2" stroke-linejoin="round"/>
  <path d="M5 10h6V6.5H5V10z" fill="url(#h)" fill-rule="evenodd"/>
  <path d="M5 6.5L2 10h3V6.5z" fill="url(#i)" fill-rule="evenodd"/>
  <path d="M11 6.5l3 3.5h-3V6.5z" fill="url(#j)" fill-rule="evenodd"/>
  <path d="M5 6.5H3.5L.5 10H2l3-3.5zM11 6.5h1.5l3 3.5H14l-3-3.5z" fill="#fff" fill-rule="evenodd"/>
  <path transform="matrix(.71374 0 0 .71362 2.29 -.412)" d="M8 1.5l1.934 4.338 4.723.499-3.528 3.18.985 4.646L8 11.79l-4.114 2.373.985-4.646-3.528-3.18 4.723-.499L8 1.5z" style="marker:none" fill="none" stroke="#c89c00" stroke-width="2.102" stroke-linecap="square" stroke-linejoin="round" overflow="visible"/>
  <path d="M14.5 15.5v-5h-13v5h13z" fill="url(#k)" fill-rule="evenodd" stroke="url(#l)"/>
  <path style="marker:none" d="M8 1.5l1.934 4.338 4.723.499-3.528 3.18.985 4.646L8 11.79l-4.114 2.373.985-4.646-3.528-3.18 4.723-.499L8 1.5z" transform="matrix(.71374 0 0 .71362 2.29 -.412)" fill="url(#m)" fill-rule="evenodd" overflow="visible"/>
  <path d="M2 10v3h12v-3H2z" style="marker:none" opacity=".5" fill="#7f4d21" fill-rule="evenodd" overflow="visible"/>
  <path style="marker:none" d="M2 10v2h12v-2H2z" fill="url(#n)" fill-rule="evenodd" overflow="visible"/>
</svg>
