<svg xmlns="http://www.w3.org/2000/svg" xmlns:xlink="http://www.w3.org/1999/xlink" width="16" height="16" version="1">
  <defs>
    <linearGradient id="a">
      <stop offset="0" stop-color="#b4b4b4"/>
      <stop offset="1" stop-color="#777f8d"/>
    </linearGradient>
    <linearGradient id="b">
      <stop offset="0" stop-color="#c2c8ce"/>
      <stop offset="1" stop-color="#fff"/>
    </linearGradient>
    <linearGradient xlink:href="#a" id="c" x1="8" y1="-.008" x2="8" y2="15.5" gradientUnits="userSpaceOnUse"/>
    <linearGradient xlink:href="#b" id="d" gradientUnits="userSpaceOnUse" x1="9" y1="12.5" x2="7.5" y2="5.5"/>
  </defs>
  <path style="marker:none" d="M1.75 1.75v6l7.5 7.5 6-6-7.5-7.5h-6zm3.5 1.5a2 2 0 1 1-.001 4.001A2 2 0 0 1 5.25 3.25z" fill="none" stroke="url(#c)" stroke-width="1.5" stroke-linecap="square" stroke-linejoin="round" overflow="visible"/>
  <path style="marker:none" d="M1.5 1.5v6L9 15l6-6-7.5-7.5h-6zM5 3a2 2 0 1 1-.001 4.001A2 2 0 0 1 5 3z" fill="url(#d)" fill-rule="evenodd" overflow="visible"/>
  <path style="marker:none" d="M9 6l2.5 2.5M8 7l2.5 2.5" opacity=".3" fill="#989da8" fill-rule="evenodd" stroke="#000" stroke-width=".75" stroke-linecap="square" stroke-linejoin="round" overflow="visible"/>
  <path d="M2.5 7.75l6.5 6.5 5-5" style="marker:none" opacity=".5" fill="none" stroke="#fff" stroke-linecap="square" overflow="visible"/>
</svg>
