<svg xmlns="http://www.w3.org/2000/svg" xmlns:xlink="http://www.w3.org/1999/xlink" width="24" height="24" version="1">
  <defs>
    <linearGradient id="a">
      <stop offset="0" stop-color="#b4b4b4"/>
      <stop offset="1" stop-color="#777f8d"/>
    </linearGradient>
    <linearGradient id="b">
      <stop offset="0" stop-color="#c2c8ce"/>
      <stop offset="1" stop-color="#fff"/>
    </linearGradient>
    <linearGradient xlink:href="#a" id="c" gradientUnits="userSpaceOnUse" x1="8" y1="-.008" x2="8" y2="15.5"/>
    <linearGradient xlink:href="#b" id="d" gradientUnits="userSpaceOnUse" x1="10.5" y1="19.5" x2="7" y2="9.5"/>
  </defs>
  <path style="marker:none" d="M2.75 2.75v8.5l12 12 8.5-8.5-12-12h-8.5zm5 2.5a2.5 2.5 0 0 1 0 5 2.5 2.5 0 0 1 0-5z" fill="none" stroke="url(#c)" stroke-width="1.5" stroke-linecap="square" stroke-linejoin="round" overflow="visible"/>
  <path style="marker:none" d="M2.5 2.5V11l12 12 8.5-8.5-12-12H2.5zm5 2.5a2.5 2.5 0 0 1 0 5 2.5 2.5 0 0 1 0-5z" fill="url(#d)" fill-rule="evenodd" overflow="visible"/>
  <path style="marker:none" d="M13 9l4.5 4.5M11.5 10.5L16 15" opacity=".3" fill="#989da8" fill-rule="evenodd" stroke="#000" stroke-linecap="square" stroke-linejoin="round" overflow="visible"/>
  <path d="M3.5 11.25l11 11 7.5-7.5" style="marker:none" opacity=".5" fill="none" stroke="#fff" stroke-linecap="square" overflow="visible"/>
</svg>
