<?xml version="1.0" encoding="UTF-8" standalone="no"?>
<!-- Created with Inkscape (http://www.inkscape.org/) -->

<svg
   xmlns:dc="http://purl.org/dc/elements/1.1/"
   xmlns:cc="http://creativecommons.org/ns#"
   xmlns:rdf="http://www.w3.org/1999/02/22-rdf-syntax-ns#"
   xmlns:svg="http://www.w3.org/2000/svg"
   xmlns="http://www.w3.org/2000/svg"
   xmlns:xlink="http://www.w3.org/1999/xlink"
   xmlns:sodipodi="http://sodipodi.sourceforge.net/DTD/sodipodi-0.dtd"
   xmlns:inkscape="http://www.inkscape.org/namespaces/inkscape"
   width="61"
   height="96"
   id="svg2"
   sodipodi:version="0.32"
   inkscape:version="0.47 r22583"
   version="1.0"
   sodipodi:docname="Back-forward small.svg"
   inkscape:output_extension="org.inkscape.output.svg.inkscape"
   inkscape:export-filename="F:\Design\Kempelton\Back forward\back-forward-small.png"
   inkscape:export-xdpi="90"
   inkscape:export-ydpi="90">
  <defs
     id="defs4">
    <linearGradient
       id="linearGradient3767">
      <stop
         id="stop3769"
         offset="0"
         style="stop-color:#ffffff;stop-opacity:1;" />
      <stop
         id="stop3771"
         offset="1"
         style="stop-color:#ffffff;stop-opacity:0.251" />
    </linearGradient>
    <linearGradient
       id="linearGradient3216">
      <stop
         style="stop-color:#c3eeff;stop-opacity:1;"
         offset="0"
         id="stop3218" />
      <stop
         id="stop3220"
         offset="0.44999999"
         style="stop-color:#cdf0ff;stop-opacity:1;" />
      <stop
         id="stop3222"
         offset="0.55000001"
         style="stop-color:#ffffff;stop-opacity:1;" />
      <stop
         id="stop3224"
         offset="1"
         style="stop-color:#ffffff;stop-opacity:1;" />
    </linearGradient>
    <linearGradient
       id="linearGradient3216-1">
      <stop
         style="stop-color:#89b0cb;stop-opacity:1;"
         offset="0"
         id="stop3218-7" />
      <stop
         id="stop3220-4"
         offset="0.49897343"
         style="stop-color:#9fcbdd;stop-opacity:1" />
      <stop
         id="stop3222-0"
         offset="0.54257411"
         style="stop-color:#c5e0eb;stop-opacity:1;" />
      <stop
         id="stop3224-9"
         offset="1"
         style="stop-color:#cde4ed;stop-opacity:1;" />
    </linearGradient>
    <linearGradient
       id="linearGradient3874">
      <stop
         id="stop3876"
         offset="0"
         style="stop-color:#8c8c8c;stop-opacity:1;" />
      <stop
         id="stop3878"
         offset="1"
         style="stop-color:#6e6e6e;stop-opacity:0;" />
    </linearGradient>
    <linearGradient
       id="linearGradient3656">
      <stop
         style="stop-color:#ffffff;stop-opacity:0;"
         offset="0"
         id="stop3658" />
      <stop
         id="stop3664"
         offset="1"
         style="stop-color:#ffffff;stop-opacity:1;" />
    </linearGradient>
    <linearGradient
       id="linearGradient3800">
      <stop
         style="stop-color:#c7eaf1;stop-opacity:1;"
         offset="0"
         id="stop3802" />
      <stop
         style="stop-color:#68b0ce;stop-opacity:1;"
         offset="1"
         id="stop3804" />
    </linearGradient>
    <linearGradient
       id="linearGradient3195">
      <stop
         style="stop-color:#ffffff;stop-opacity:1;"
         offset="0"
         id="stop3199" />
      <stop
         style="stop-color:#39c5ff;stop-opacity:0"
         offset="1"
         id="stop3202" />
    </linearGradient>
    <linearGradient
       id="linearGradient3665">
      <stop
         id="stop3667"
         offset="0"
         style="stop-color:#5c87b8;stop-opacity:0;" />
      <stop
         style="stop-color:#518bb3;stop-opacity:1;"
         offset="1"
         id="stop3669" />
    </linearGradient>
    <linearGradient
       id="linearGradient3246-2">
      <stop
         id="stop3248-4"
         offset="0"
         style="stop-color:#7fc6e9;stop-opacity:1;" />
      <stop
         id="stop3250-5"
         offset="1"
         style="stop-color:#3a77a2;stop-opacity:1;" />
    </linearGradient>
    <linearGradient
       id="linearGradient3171-5">
      <stop
         id="stop3173-1"
         offset="0"
         style="stop-color:#1d3a6f;stop-opacity:1;" />
      <stop
         style="stop-color:#29619f;stop-opacity:1;"
         offset="1"
         id="stop3177-1" />
    </linearGradient>
    <linearGradient
       inkscape:collect="always"
       xlink:href="#linearGradient3787"
       id="linearGradient3779"
       gradientUnits="userSpaceOnUse"
       gradientTransform="matrix(1,0,0,0.95454523,-7.4999999,72.181846)"
       x1="290.5"
       y1="176.33333"
       x2="290.5"
       y2="168.4762" />
    <linearGradient
       id="linearGradient3787">
      <stop
         id="stop3789"
         offset="0"
         style="stop-color:#ffffff;stop-opacity:0.54901963;" />
      <stop
         id="stop3792"
         offset="1"
         style="stop-color:#ffffff;stop-opacity:0.3137255;" />
    </linearGradient>
    <linearGradient
       id="linearGradient3793">
      <stop
         style="stop-color:#dcdcdc;stop-opacity:1;"
         offset="0"
         id="stop3795" />
      <stop
         style="stop-color:#b4b4b4;stop-opacity:1;"
         offset="1"
         id="stop3797" />
    </linearGradient>
    <linearGradient
       id="linearGradient3785">
      <stop
         style="stop-color:#6e6e6e;stop-opacity:1;"
         offset="0"
         id="stop3787" />
      <stop
         id="stop3791"
         offset="1"
         style="stop-color:#b4b4b4;stop-opacity:1;" />
    </linearGradient>
    <linearGradient
       id="linearGradient3171">
      <stop
         id="stop3173"
         offset="0"
         style="stop-color:#2d599b;stop-opacity:1;" />
      <stop
         style="stop-color:#3a77a2;stop-opacity:1;"
         offset="0.43174258"
         id="stop3198" />
      <stop
         style="stop-color:#6cbad4;stop-opacity:1;"
         offset="1"
         id="stop3177" />
    </linearGradient>
    <linearGradient
       inkscape:collect="always"
       xlink:href="#linearGradient3171"
       id="linearGradient4976"
       x1="8"
       y1="17"
       x2="8"
       y2="3"
       gradientUnits="userSpaceOnUse" />
    <linearGradient
       inkscape:collect="always"
       xlink:href="#linearGradient3216"
       id="linearGradient4978"
       gradientUnits="userSpaceOnUse"
       gradientTransform="matrix(-1,0,0,1,491,-76)"
       x1="248.5"
       y1="249.49998"
       x2="248.5"
       y2="239.49998" />
    <linearGradient
       inkscape:collect="always"
       xlink:href="#linearGradient3800"
       id="linearGradient4995"
       x1="12"
       y1="4"
       x2="12"
       y2="11"
       gradientUnits="userSpaceOnUse" />
    <linearGradient
       inkscape:collect="always"
       xlink:href="#linearGradient3665"
       id="linearGradient4999"
       gradientUnits="userSpaceOnUse"
       x1="16"
       y1="8"
       x2="16"
       y2="2"
       gradientTransform="matrix(1,0,0,-1,228.5,180.49999)" />
    <linearGradient
       inkscape:collect="always"
       xlink:href="#linearGradient3216"
       id="linearGradient5041"
       gradientUnits="userSpaceOnUse"
       gradientTransform="matrix(-1,0,0,1,491,-52)"
       x1="248.5"
       y1="249.49998"
       x2="248.5"
       y2="239.49998" />
    <linearGradient
       inkscape:collect="always"
       xlink:href="#linearGradient3767"
       id="linearGradient5082"
       gradientUnits="userSpaceOnUse"
       gradientTransform="translate(-7.4999999,15.499998)"
       x1="292"
       y1="174.99998"
       x2="292"
       y2="180.99998" />
    <linearGradient
       inkscape:collect="always"
       xlink:href="#linearGradient3785"
       id="linearGradient5118"
       gradientUnits="userSpaceOnUse"
       gradientTransform="translate(228.5,204.49999)"
       x1="8"
       y1="17"
       x2="8"
       y2="3" />
    <linearGradient
       inkscape:collect="always"
       xlink:href="#linearGradient3793"
       id="linearGradient5120"
       gradientUnits="userSpaceOnUse"
       gradientTransform="translate(228.5,204.49999)"
       x1="12"
       y1="4"
       x2="12"
       y2="11" />
    <linearGradient
       inkscape:collect="always"
       xlink:href="#linearGradient3874"
       id="linearGradient5242"
       gradientUnits="userSpaceOnUse"
       gradientTransform="matrix(1,0,0,-1,228.5,228.49999)"
       x1="14"
       y1="2"
       x2="14"
       y2="8" />
    <linearGradient
       inkscape:collect="always"
       xlink:href="#linearGradient3171-5"
       id="linearGradient5336"
       gradientUnits="userSpaceOnUse"
       gradientTransform="translate(228.5,228.49999)"
       x1="8"
       y1="21"
       x2="8"
       y2="3" />
    <linearGradient
       inkscape:collect="always"
       xlink:href="#linearGradient3216-1"
       id="linearGradient5364"
       gradientUnits="userSpaceOnUse"
       gradientTransform="matrix(-1,0,0,1,491,-3)"
       x1="248.5"
       y1="249.49998"
       x2="248.5"
       y2="239.49998" />
    <linearGradient
       inkscape:collect="always"
       xlink:href="#linearGradient3246-2"
       id="linearGradient5368"
       gradientUnits="userSpaceOnUse"
       gradientTransform="translate(228.5,229.49999)"
       x1="12"
       y1="4"
       x2="12"
       y2="11" />
    <filter
       inkscape:collect="always"
       id="filter5604"
       x="-0.11714286"
       width="1.2342857"
       y="-0.123"
       height="1.246">
      <feGaussianBlur
         inkscape:collect="always"
         stdDeviation="0.5125"
         id="feGaussianBlur5606" />
    </filter>
    <linearGradient
       inkscape:collect="always"
       xlink:href="#linearGradient3195"
       id="linearGradient5948"
       gradientUnits="userSpaceOnUse"
       gradientTransform="translate(0,72.93096)"
       x1="239"
       y1="160.49998"
       x2="239"
       y2="170.49998" />
    <linearGradient
       inkscape:collect="always"
       xlink:href="#linearGradient3656"
       id="linearGradient5952"
       gradientUnits="userSpaceOnUse"
       gradientTransform="translate(0,47.93096)"
       x1="240"
       y1="170.49998"
       x2="240"
       y2="160.49998" />
    <linearGradient
       inkscape:collect="always"
       xlink:href="#linearGradient3656"
       id="linearGradient5956"
       gradientUnits="userSpaceOnUse"
       gradientTransform="translate(0,23.93096)"
       x1="240"
       y1="170.49998"
       x2="240"
       y2="160.49998" />
    <linearGradient
       inkscape:collect="always"
       xlink:href="#linearGradient3656"
       id="linearGradient5960"
       gradientUnits="userSpaceOnUse"
       x1="240"
       y1="170.49998"
       x2="240"
       y2="160.49998"
       gradientTransform="translate(0,-0.06904)" />
    <linearGradient
       inkscape:collect="always"
       xlink:href="#linearGradient3216-7"
       id="linearGradient3788-1"
       gradientUnits="userSpaceOnUse"
       gradientTransform="translate(174.5,193.49999)"
       x1="14"
       y1="24"
       x2="14"
       y2="10" />
    <linearGradient
       id="linearGradient3216-7">
      <stop
         style="stop-color:#c3eeff;stop-opacity:1;"
         offset="0"
         id="stop3218-4" />
      <stop
         id="stop3220-0"
         offset="0.44999999"
         style="stop-color:#cdf0ff;stop-opacity:1;" />
      <stop
         id="stop3222-9"
         offset="0.55000001"
         style="stop-color:#ffffff;stop-opacity:1;" />
      <stop
         id="stop3224-4"
         offset="1"
         style="stop-color:#ffffff;stop-opacity:1;" />
    </linearGradient>
    <filter
       color-interpolation-filters="sRGB"
       inkscape:collect="always"
       id="filter3757"
       x="-0.23612903"
       width="1.4722581"
       y="-0.244"
       height="1.488">
      <feGaussianBlur
         inkscape:collect="always"
         stdDeviation="1.525"
         id="feGaussianBlur3759" />
    </filter>
    <linearGradient
       inkscape:collect="always"
       xlink:href="#linearGradient3195-8"
       id="linearGradient3780-8"
       gradientUnits="userSpaceOnUse"
       x1="26.761902"
       y1="5.160718"
       x2="12.928572"
       y2="10.660717" />
    <linearGradient
       id="linearGradient3195-8">
      <stop
         style="stop-color:#ffffff;stop-opacity:1;"
         offset="0"
         id="stop3199-2" />
      <stop
         style="stop-color:#39c5ff;stop-opacity:0"
         offset="1"
         id="stop3202-4" />
    </linearGradient>
    <linearGradient
       inkscape:collect="always"
       xlink:href="#linearGradient3800-5"
       id="linearGradient3778-5"
       gradientUnits="userSpaceOnUse"
       gradientTransform="translate(176,194.99961)"
       x1="8.5"
       y1="2"
       x2="11"
       y2="15.5" />
    <linearGradient
       id="linearGradient3800-5">
      <stop
         style="stop-color:#cceff6;stop-opacity:1;"
         offset="0"
         id="stop3802-1" />
      <stop
         style="stop-color:#78bfdc;stop-opacity:1;"
         offset="1"
         id="stop3804-7" />
    </linearGradient>
    <linearGradient
       inkscape:collect="always"
       xlink:href="#linearGradient3757"
       id="linearGradient3763"
       gradientUnits="userSpaceOnUse"
       x1="16"
       y1="30"
       x2="16"
       y2="23" />
    <linearGradient
       id="linearGradient3757">
      <stop
         id="stop3759"
         offset="0"
         style="stop-color:#5795c1;stop-opacity:1;" />
      <stop
         id="stop3761"
         offset="1"
         style="stop-color:#5696c2;stop-opacity:0;" />
    </linearGradient>
    <linearGradient
       id="linearGradient3792-1">
      <stop
         style="stop-color:#356fb1;stop-opacity:1;"
         offset="0"
         id="stop3794-5" />
      <stop
         id="stop3796-2"
         offset="0.43174258"
         style="stop-color:#478cbd;stop-opacity:1;" />
      <stop
         id="stop3798-7"
         offset="1"
         style="stop-color:#8bc9dd;stop-opacity:1;" />
    </linearGradient>
    <linearGradient
       y2="6.5357175"
       x2="28.738092"
       y1="8.598217"
       x1="7.9880962"
       spreadMethod="pad"
       gradientUnits="userSpaceOnUse"
       id="linearGradient3034"
       xlink:href="#linearGradient3792-1"
       inkscape:collect="always" />
    <linearGradient
       inkscape:collect="always"
       xlink:href="#linearGradient3792-1"
       id="linearGradient3840"
       gradientUnits="userSpaceOnUse"
       gradientTransform="translate(228.5,180.49999)"
       x1="8"
       y1="17"
       x2="8"
       y2="3" />
    <linearGradient
       inkscape:collect="always"
       xlink:href="#linearGradient3800-5"
       id="linearGradient3842"
       gradientUnits="userSpaceOnUse"
       gradientTransform="translate(228.5,180.49999)"
       x1="12"
       y1="4"
       x2="12"
       y2="11" />
    <linearGradient
       inkscape:collect="always"
       xlink:href="#linearGradient3757"
       id="linearGradient4035"
       gradientUnits="userSpaceOnUse"
       gradientTransform="matrix(1,0,0,-1,228.5,204.49999)"
       x1="18"
       y1="2"
       x2="18"
       y2="8" />
  </defs>
  <sodipodi:namedview
     id="base"
     pagecolor="#000000"
     bordercolor="#666666"
     borderopacity="1.0"
     gridtolerance="10000"
     guidetolerance="10"
     objecttolerance="10"
     inkscape:pageopacity="0"
     inkscape:pageshadow="2"
     inkscape:zoom="4.0455577"
     inkscape:cx="10.639382"
     inkscape:cy="27.371062"
     inkscape:document-units="px"
     inkscape:current-layer="layer1"
     width="32px"
     height="32px"
     inkscape:window-width="996"
     inkscape:window-height="1061"
     inkscape:window-x="1032"
     inkscape:window-y="251"
     showgrid="false"
     inkscape:grid-points="true"
     showborder="true"
     inkscape:showpageshadow="false"
     borderlayer="false"
     showguides="true"
     inkscape:guide-bbox="true"
     inkscape:window-maximized="0">
    <inkscape:grid
       id="GridFromPre046Settings"
       type="xygrid"
       originx="0px"
       originy="0px"
       spacingx="0.5px"
       spacingy="0.5px"
       color="#0000ff"
       empcolor="#0000ff"
       opacity="0.2"
       empopacity="0.4"
       empspacing="4"
       visible="true"
       enabled="true"
       dotted="false"
       snapvisiblegridlinesonly="true" />
  </sodipodi:namedview>
  <metadata
     id="metadata7">
    <rdf:RDF>
      <cc:Work
         rdf:about="">
        <dc:format>image/svg+xml</dc:format>
        <dc:type
           rdf:resource="http://purl.org/dc/dcmitype/StillImage" />
        <dc:creator>
          <cc:Agent>
            <dc:title>Arvid Axelsson</dc:title>
          </cc:Agent>
        </dc:creator>
        <cc:license
           rdf:resource="http://creativecommons.org/licenses/by-sa/3.0/" />
        <dc:title></dc:title>
      </cc:Work>
      <cc:License
         rdf:about="http://creativecommons.org/licenses/by-sa/3.0/">
        <cc:permits
           rdf:resource="http://creativecommons.org/ns#Reproduction" />
        <cc:permits
           rdf:resource="http://creativecommons.org/ns#Distribution" />
        <cc:requires
           rdf:resource="http://creativecommons.org/ns#Notice" />
        <cc:requires
           rdf:resource="http://creativecommons.org/ns#Attribution" />
        <cc:permits
           rdf:resource="http://creativecommons.org/ns#DerivativeWorks" />
        <cc:requires
           rdf:resource="http://creativecommons.org/ns#ShareAlike" />
      </cc:License>
    </rdf:RDF>
  </metadata>
  <g
     inkscape:label="Layer 1"
     inkscape:groupmode="layer"
     id="layer1"
     style="display:inline"
     transform="translate(-228.5,-156.49999)">
    <path
       transform="translate(228.5,156.49999)"
       style="fill:url(#linearGradient4976);fill-opacity:1;stroke:none"
       d="M 5,3 22,3 22,21 5,21 C 2.23,21 0,18.77 0,16 L 0,8 C 0,5.23 2.23,3 5,3 z"
       id="rect4967"
       sodipodi:nodetypes="ccccccc" />
    <path
       sodipodi:nodetypes="cccccc"
       id="path4997"
       d="m 233.5,176.49999 c -2.2333,0 -4,-1.7667 -4,-4 l 0,-3 20,0 0,7 -16,0 z"
       style="fill:url(#linearGradient4999);fill-opacity:1;stroke:none" />
    <path
       style="fill:url(#linearGradient4995);fill-opacity:1;stroke:none"
       d="M 5,4 C 2.7667,4 1,5.7667 1,8 l 0,3 20,0 0,-7 -16,0 z"
       transform="translate(228.5,156.49999)"
       id="path4980"
       sodipodi:nodetypes="cccccc" />
    <path
       sodipodi:nodetypes="cccccccccc"
       id="path3229"
       d="m 244.5,168.49999 -4,0 1,3.5 -1,0.5 -6.5,-5 c 0,0 6.5,-5 6.5,-5 l 1,0.5 -1,3.5 4,0 0,2 z"
       style="opacity:0.5;fill:#003978;fill-opacity:1;fill-rule:evenodd;stroke:none;display:inline" />
    <path
       style="fill:url(#linearGradient4978);fill-opacity:1;fill-rule:evenodd;stroke:none;display:inline"
       d="m 244.5,169.49999 -4.5,0 1.5,3.5 -1,0.5 -6.5,-5 c 0,0 6.5,-5 6.5,-5 l 1,0.5 -1.5,3.5 4.5,0 0,2 z"
       id="path3160"
       sodipodi:nodetypes="cccccccccc" />
    <path
       sodipodi:nodetypes="cccc"
       id="path3253"
       d="m 286,167.49999 -6,0 3,4 3,-4 z"
       style="opacity:0.5;fill:none;stroke:#ffffff;stroke-width:2;stroke-linecap:butt;stroke-linejoin:round;stroke-miterlimit:4;stroke-opacity:1;stroke-dasharray:none;display:inline" />
    <path
       style="fill:#000000;fill-opacity:1;fill-rule:evenodd;stroke:none;display:inline"
       d="m 286,167.49999 -6,0 3,4 3,-4 z"
       id="path3406"
       sodipodi:nodetypes="cccc" />
    <path
       style="opacity:0.5;fill:none;stroke:#ffffff;stroke-width:2;stroke-linecap:butt;stroke-linejoin:round;stroke-miterlimit:4;stroke-opacity:1;stroke-dasharray:none;display:inline"
       d="m 286,215.49999 -6,0 3,4 3,-4 z"
       id="path2913"
       sodipodi:nodetypes="cccc" />
    <path
       sodipodi:nodetypes="cccc"
       id="path2915"
       d="m 286,215.49999 -6,0 3,4 3,-4 z"
       style="opacity:0.3;fill:#000000;fill-opacity:1;fill-rule:evenodd;stroke:none;display:inline" />
    <rect
       rx="3"
       y="231.49997"
       x="276.5"
       height="18.000021"
       width="13"
       id="rect3772"
       style="fill:#95a2ab;fill-opacity:1;stroke:none;display:inline" />
    <rect
       style="fill:url(#linearGradient3779);fill-opacity:1;stroke:none;display:inline"
       id="rect3774"
       width="11"
       height="15.500006"
       x="277.5"
       y="232.99998"
       rx="2" />
    <path
       style="fill:#000000;fill-opacity:1;fill-rule:evenodd;stroke:none;display:inline"
       d="m 286.00001,240.49997 -6,0 3,4 3,-4 z"
       id="path2935"
       sodipodi:nodetypes="cccc" />
    <use
       x="0"
       y="0"
       xlink:href="#rect4967"
       id="use5001"
       transform="matrix(-1,0,0,1,505,0)"
       width="61"
       height="96" />
    <use
       x="0"
       y="0"
       xlink:href="#path4997"
       id="use5003"
       transform="matrix(-1,0,0,1,505,0)"
       width="61"
       height="96" />
    <use
       x="0"
       y="0"
       xlink:href="#path4980"
       id="use5005"
       transform="matrix(-1,0,0,1,505,0)"
       width="61"
       height="96" />
    <use
       x="0"
       y="0"
       xlink:href="#path3229"
       id="use5007"
       transform="matrix(-1,0,0,1,505,0)"
       width="61"
       height="96" />
    <use
       x="0"
       y="0"
       xlink:href="#path3160"
       id="use5009"
       transform="matrix(-1,0,0,1,505,0)"
       width="61"
       height="96" />
    <path
       sodipodi:nodetypes="ccccccc"
       id="path5011"
       d="m 233.5,183.49999 17,0 0,18 -17,0 c -2.77,0 -5,-2.23 -5,-5 l 0,-8 c 0,-2.77 2.23,-5 5,-5 z"
       style="fill:url(#linearGradient3840);fill-opacity:1;stroke:none" />
    <path
       style="fill:url(#linearGradient4035);fill-opacity:1;stroke:none"
       d="m 233.5,200.49999 c -2.2333,0 -4,-1.7667 -4,-4 l 0,-3 20,0 0,7 -16,0 z"
       id="path5013"
       sodipodi:nodetypes="cccccc" />
    <path
       sodipodi:nodetypes="cccccc"
       id="path5015"
       d="m 233.5,184.49999 c -2.2333,0 -4,1.7667 -4,4 l 0,3 20,0 0,-7 -16,0 z"
       style="fill:url(#linearGradient3842);fill-opacity:1;stroke:none" />
    <path
       style="opacity:0.5;fill:#003978;fill-opacity:1;fill-rule:evenodd;stroke:none;display:inline"
       d="m 244.5,192.49999 -4,0 1,3.5 -1,0.5 -6.5,-5 c 0,0 6.5,-5 6.5,-5 l 1,0.5 -1,3.5 4,0 0,2 z"
       id="path5017"
       sodipodi:nodetypes="cccccccccc" />
    <path
       style="fill:#ffffff;fill-opacity:1;fill-rule:evenodd;stroke:#91dfff;display:inline;stroke-opacity:1;filter:url(#filter5604)"
       d="m 244.5,193.49999 -4.5,0 1.5,3.5 -1,0.5 -6.5,-5 c 0,0 6.5,-5 6.5,-5 l 1,0.5 -1.5,3.5 4.5,0 0,2 z"
       id="path5602"
       sodipodi:nodetypes="cccccccccc" />
    <path
       sodipodi:nodetypes="cccccccccc"
       id="path5019"
       d="m 244.5,193.49999 -4.5,0 1.5,3.5 -1,0.5 -6.5,-5 c 0,0 6.5,-5 6.5,-5 l 1,0.5 -1.5,3.5 4.5,0 0,2 z"
       style="fill:url(#linearGradient5041);fill-opacity:1;fill-rule:evenodd;stroke:none;display:inline" />
    <use
       x="0"
       y="0"
       xlink:href="#path5011"
       id="use5043"
       transform="matrix(-1,0,0,1,505,0)"
       width="61"
       height="96" />
    <use
       x="0"
       y="0"
       xlink:href="#path5013"
       id="use5045"
       transform="matrix(-1,0,0,1,505,0)"
       width="61"
       height="96" />
    <use
       x="0"
       y="0"
       xlink:href="#path5015"
       id="use5047"
       transform="matrix(-1,0,0,1,505,0)"
       width="61"
       height="96" />
    <use
       x="0"
       y="0"
       xlink:href="#path5017"
       id="use5049"
       transform="matrix(-1,0,0,1,505,0)"
       width="61"
       height="96" />
    <use
       x="0"
       y="0"
       xlink:href="#path5602"
       id="use5962"
       transform="matrix(-1,0,0,1,505,0)"
       width="61"
       height="96" />
    <use
       x="0"
       y="0"
       xlink:href="#path5019"
       id="use5051"
       transform="matrix(-1,0,0,1,505,0)"
       width="61"
       height="96" />
    <path
       style="opacity:0.5;fill:none;stroke:url(#linearGradient5960);stroke-width:1;stroke-miterlimit:4;stroke-opacity:1"
       d="m 230,172.43095 0,-7.93096 c 0,-1.939 1.561,-3.5 3.5,-3.5 l 16,0"
       id="rect5055"
       sodipodi:nodetypes="cccc" />
    <use
       x="0"
       y="0"
       xlink:href="#rect5055"
       id="use5066"
       transform="matrix(-1,0,0,1,505,0)"
       width="61"
       height="96" />
    <path
       sodipodi:nodetypes="cccc"
       id="path5068"
       d="m 230,196.43095 0,-7.93096 c 0,-1.939 1.561,-3.5 3.5,-3.5 l 16,0"
       style="opacity:0.5;fill:none;stroke:url(#linearGradient5956);stroke-width:1;stroke-miterlimit:4;stroke-opacity:1" />
    <use
       x="0"
       y="0"
       xlink:href="#path5068"
       id="use5072"
       transform="matrix(-1,0,0,1,505,0)"
       width="61"
       height="96" />
    <rect
       rx="3"
       y="183.49998"
       x="276.5"
       height="18.000006"
       width="13"
       id="rect5074"
       style="fill:#b3c3c9;fill-opacity:1;stroke:none;display:inline" />
    <rect
       style="fill:url(#linearGradient5082);fill-opacity:1;stroke:none;display:inline"
       id="rect5076"
       width="11"
       height="16.000006"
       x="277.5"
       y="184.49998"
       rx="2" />
    <path
       style="fill:#000000;fill-opacity:1;fill-rule:evenodd;stroke:none;display:inline"
       d="m 286.00001,191.49999 -6,0 3,4 3,-4 z"
       id="path5078"
       sodipodi:nodetypes="cccc" />
    <rect
       rx="1.5"
       y="184.99998"
       x="278"
       height="15.000006"
       width="10"
       id="rect5080"
       style="opacity:0.5;fill:none;stroke:#ffffff;stroke-opacity:1;display:inline" />
    <path
       sodipodi:nodetypes="ccccccc"
       id="path5084"
       d="m 233.5,207.49999 17,0 0,18 -17,0 c -2.77,0 -5,-2.23 -5,-5 l 0,-8 c 0,-2.77 2.23,-5 5,-5 z"
       style="fill:url(#linearGradient5118);fill-opacity:1;stroke:none" />
    <path
       style="fill:url(#linearGradient5242);fill-opacity:1;stroke:none"
       d="m 233.5,224.49999 c -2.2333,0 -4,-1.7667 -4,-4 l 0,-3 20,0 0,7 -16,0 z"
       id="path5086"
       sodipodi:nodetypes="cccccc" />
    <path
       sodipodi:nodetypes="cccccc"
       id="path5088"
       d="m 233.5,208.49999 c -2.2333,0 -4,1.7667 -4,4 l 0,3 20,0 0,-7 -16,0 z"
       style="fill:url(#linearGradient5120);fill-opacity:1;stroke:none" />
    <path
       style="opacity:0.4;fill:#3c3c3c;fill-opacity:1;fill-rule:evenodd;stroke:none;display:inline"
       d="m 244.5,216.49999 -4,0 1,3.5 -1,0.5 -6.5,-5 c 0,0 6.5,-5 6.5,-5 l 1,0.5 -1,3.5 4,0 0,2 z"
       id="path5090"
       sodipodi:nodetypes="cccccccccc" />
    <path
       sodipodi:nodetypes="cccccccccc"
       id="path5092"
       d="m 244.5,217.49999 -4.5,0 1.5,3.5 -1,0.5 -6.5,-5 c 0,0 6.5,-5 6.5,-5 l 1,0.5 -1.5,3.5 4.5,0 0,2 z"
       style="fill:#e6e6e6;fill-opacity:1;fill-rule:evenodd;stroke:none;display:inline" />
    <path
       sodipodi:nodetypes="cccc"
       id="path5094"
       d="m 230,220.43095 0,-7.93096 c 0,-1.939 1.561,-3.5 3.5,-3.5 l 16,0"
       style="opacity:0.5;fill:none;stroke:url(#linearGradient5952);stroke-width:1;stroke-miterlimit:4;stroke-opacity:1" />
    <use
       x="0"
       y="0"
       xlink:href="#path5084"
       id="use5106"
       transform="matrix(-1,0,0,1,505,0)"
       width="61"
       height="96" />
    <use
       x="0"
       y="0"
       xlink:href="#path5086"
       id="use5108"
       transform="matrix(-1,0,0,1,505,0)"
       width="61"
       height="96" />
    <use
       x="0"
       y="0"
       xlink:href="#path5088"
       id="use5110"
       transform="matrix(-1,0,0,1,505,0)"
       width="61"
       height="96" />
    <use
       x="0"
       y="0"
       xlink:href="#path5090"
       id="use5112"
       transform="matrix(-1,0,0,1,505,0)"
       width="61"
       height="96" />
    <use
       x="0"
       y="0"
       xlink:href="#path5092"
       id="use5114"
       transform="matrix(-1,0,0,1,505,0)"
       width="61"
       height="96" />
    <use
       x="0"
       y="0"
       xlink:href="#path5094"
       id="use5116"
       transform="matrix(-1,0,0,1,505,0)"
       width="61"
       height="96" />
    <path
       sodipodi:nodetypes="ccccccc"
       id="path5244"
       d="m 233.5,231.49999 17,0 0,18 -17,0 c -2.77,0 -5,-2.23 -5,-5 l 0,-8 c 0,-2.77 2.23,-5 5,-5 z"
       style="fill:url(#linearGradient5336);fill-opacity:1;stroke:none" />
    <path
       sodipodi:nodetypes="cccccc"
       id="path5248"
       d="m 233.5,233.49999 c -2.2333,0 -4,1.7667 -4,4 l 0,3 20,0 0,-7 -16,0 z"
       style="fill:url(#linearGradient5368);fill-opacity:1;stroke:none" />
    <path
       style="opacity:0.5;fill:#001d3c;fill-opacity:1;fill-rule:evenodd;stroke:none;display:inline"
       d="m 244.5,241.49999 -4,0 1,3.5 -1,0.5 -6.5,-5 c 0,0 6.5,-5 6.5,-5 l 1,0.5 -1,3.5 4,0 0,2 z"
       id="path5250"
       sodipodi:nodetypes="cccccccccc" />
    <path
       sodipodi:nodetypes="cccccccccc"
       id="path5252"
       d="m 244.5,242.49999 -4.5,0 1.5,3.5 -1,0.5 -6.5,-5 c 0,0 6.5,-5 6.5,-5 l 1,0.5 -1.5,3.5 4.5,0 0,2 z"
       style="fill:url(#linearGradient5364);fill-opacity:1;fill-rule:evenodd;stroke:none;display:inline" />
    <path
       sodipodi:nodetypes="cccc"
       id="path5254"
       d="m 230,245.43095 0,-7.93096 c 0,-1.939 1.561,-3.5 3.5,-3.5 l 16,0"
       style="opacity:0.5;fill:none;stroke:url(#linearGradient5948);stroke-width:1;stroke-miterlimit:4;stroke-opacity:1" />
    <use
       x="0"
       y="0"
       xlink:href="#path5244"
       id="use5266"
       transform="matrix(-1,0,0,1,505,0)"
       width="61"
       height="96" />
    <use
       x="0"
       y="0"
       xlink:href="#path5248"
       id="use5270"
       transform="matrix(-1,0,0,1,505,0)"
       width="61"
       height="96" />
    <use
       x="0"
       y="0"
       xlink:href="#path5250"
       id="use5272"
       transform="matrix(-1,0,0,1,505,0)"
       width="61"
       height="96" />
    <use
       x="0"
       y="0"
       xlink:href="#path5252"
       id="use5274"
       transform="matrix(-1,0,0,1,505,0)"
       width="61"
       height="96" />
    <use
       x="0"
       y="0"
       xlink:href="#path5254"
       id="use5276"
       transform="matrix(-1,0,0,1,505,0)"
       width="61"
       height="96" />
  </g>
  <g
     inkscape:groupmode="layer"
     id="layer2"
     style="display:inline"
     transform="translate(-228.5,-156.49999)" />
</svg>
