<?xml version="1.0" encoding="UTF-8" standalone="no"?>
<!-- Created with Inkscape (http://www.inkscape.org/) -->

<svg
   xmlns:dc="http://purl.org/dc/elements/1.1/"
   xmlns:cc="http://creativecommons.org/ns#"
   xmlns:rdf="http://www.w3.org/1999/02/22-rdf-syntax-ns#"
   xmlns:svg="http://www.w3.org/2000/svg"
   xmlns="http://www.w3.org/2000/svg"
   xmlns:xlink="http://www.w3.org/1999/xlink"
   xmlns:sodipodi="http://sodipodi.sourceforge.net/DTD/sodipodi-0.dtd"
   xmlns:inkscape="http://www.inkscape.org/namespaces/inkscape"
   width="8.4666653mm"
   height="35.560001mm"
   viewBox="0 0 29.999995 126"
   id="svg4429"
   version="1.1"
   inkscape:version="0.91 r13725"
   sodipodi:docname="Forward-full.svg">
  <defs
     id="defs4431">
    <linearGradient
       inkscape:collect="always"
       xlink:href="#linearGradient3216"
       id="linearGradient3788"
       gradientUnits="userSpaceOnUse"
       gradientTransform="matrix(-1,0,0,1,354.16935,539.36221)"
       x1="14"
       y1="24"
       x2="14"
       y2="10" />
    <linearGradient
       id="linearGradient3216">
      <stop
         style="stop-color:#c3eeff;stop-opacity:1;"
         offset="0"
         id="stop3218" />
      <stop
         id="stop3220"
         offset="0.44999999"
         style="stop-color:#cdf0ff;stop-opacity:1;" />
      <stop
         id="stop3222"
         offset="0.55000001"
         style="stop-color:#ffffff;stop-opacity:1;" />
      <stop
         id="stop3224"
         offset="1"
         style="stop-color:#ffffff;stop-opacity:1;" />
    </linearGradient>
    <filter
       inkscape:collect="always"
       id="filter3757"
       x="-0.23612903"
       width="1.4722581"
       y="-0.244"
       height="1.488">
      <feGaussianBlur
         inkscape:collect="always"
         stdDeviation="1.525"
         id="feGaussianBlur3759" />
    </filter>
    <linearGradient
       inkscape:collect="always"
       xlink:href="#linearGradient3216-1"
       id="linearGradient2995"
       gradientUnits="userSpaceOnUse"
       gradientTransform="matrix(-1,0,0,1,354.16935,604.36221)"
       x1="14"
       y1="24"
       x2="14"
       y2="10" />
    <linearGradient
       id="linearGradient3216-1">
      <stop
         style="stop-color:#89b0cb;stop-opacity:1;"
         offset="0"
         id="stop3218-7" />
      <stop
         id="stop3220-4"
         offset="0.49897343"
         style="stop-color:#9fcbdd;stop-opacity:1" />
      <stop
         id="stop3222-0"
         offset="0.54257411"
         style="stop-color:#c5e0eb;stop-opacity:1;" />
      <stop
         id="stop3224-9"
         offset="1"
         style="stop-color:#cde4ed;stop-opacity:1;" />
    </linearGradient>
    <linearGradient
       inkscape:collect="always"
       xlink:href="#linearGradient3216"
       id="linearGradient4329"
       x1="14"
       y1="24"
       x2="14"
       y2="10"
       gradientUnits="userSpaceOnUse"
       gradientTransform="matrix(-1,0,0,1,354.16935,507.36221)" />
    <linearGradient
       gradientTransform="translate(321.14286,572.36221)"
       inkscape:collect="always"
       xlink:href="#linearGradient3874"
       id="linearGradient3866"
       gradientUnits="userSpaceOnUse"
       x1="16"
       y1="30"
       x2="16"
       y2="23" />
    <linearGradient
       id="linearGradient3874">
      <stop
         id="stop3876"
         offset="0"
         style="stop-color:#8c8c8c;stop-opacity:1;" />
      <stop
         id="stop3878"
         offset="1"
         style="stop-color:#6e6e6e;stop-opacity:0;" />
    </linearGradient>
    <linearGradient
       gradientTransform="matrix(1.0120484,0,0,1.4545457,-572.44655,320.63636)"
       inkscape:collect="always"
       xlink:href="#linearGradient3195"
       id="linearGradient3780"
       gradientUnits="userSpaceOnUse"
       x1="26.761902"
       y1="5.160718"
       x2="12.928572"
       y2="10.660717" />
    <linearGradient
       id="linearGradient3195">
      <stop
         style="stop-color:#ffffff;stop-opacity:1;"
         offset="0"
         id="stop3199" />
      <stop
         style="stop-color:#39c5ff;stop-opacity:0"
         offset="1"
         id="stop3202" />
    </linearGradient>
    <linearGradient
       inkscape:collect="always"
       xlink:href="#linearGradient3800"
       id="linearGradient3778"
       gradientUnits="userSpaceOnUse"
       gradientTransform="translate(321.64286,540.86183)"
       x1="8.5"
       y1="2"
       x2="11"
       y2="15.5" />
    <linearGradient
       id="linearGradient3800">
      <stop
         style="stop-color:#cceff6;stop-opacity:1;"
         offset="0"
         id="stop3802" />
      <stop
         style="stop-color:#78bfdc;stop-opacity:1;"
         offset="1"
         id="stop3804" />
    </linearGradient>
    <linearGradient
       gradientTransform="translate(321.14286,540.36221)"
       inkscape:collect="always"
       xlink:href="#linearGradient3757"
       id="linearGradient3763"
       gradientUnits="userSpaceOnUse"
       x1="16"
       y1="30"
       x2="16"
       y2="23" />
    <linearGradient
       id="linearGradient3757">
      <stop
         id="stop3759"
         offset="0"
         style="stop-color:#5795c1;stop-opacity:1;" />
      <stop
         id="stop3761"
         offset="1"
         style="stop-color:#5696c2;stop-opacity:0;" />
    </linearGradient>
    <linearGradient
       gradientTransform="matrix(1.0120484,0,0,1.4545457,-572.44655,320.63636)"
       inkscape:collect="always"
       xlink:href="#linearGradient3792"
       id="linearGradient3774"
       gradientUnits="userSpaceOnUse"
       spreadMethod="pad"
       x1="7.9880962"
       y1="8.598217"
       x2="28.738092"
       y2="6.5357175" />
    <linearGradient
       id="linearGradient3792">
      <stop
         style="stop-color:#356fb1;stop-opacity:1;"
         offset="0"
         id="stop3794" />
      <stop
         id="stop3796"
         offset="0.43174258"
         style="stop-color:#478cbd;stop-opacity:1;" />
      <stop
         id="stop3798"
         offset="1"
         style="stop-color:#8bc9dd;stop-opacity:1;" />
    </linearGradient>
    <linearGradient
       gradientTransform="matrix(1.0120484,0,0,1.4545457,-637.44654,320.63636)"
       inkscape:collect="always"
       xlink:href="#linearGradient3195"
       id="linearGradient2985"
       gradientUnits="userSpaceOnUse"
       x1="26.761902"
       y1="5.160718"
       x2="12.928572"
       y2="10.660717" />
    <linearGradient
       inkscape:collect="always"
       xlink:href="#linearGradient3246-2"
       id="linearGradient2983"
       gradientUnits="userSpaceOnUse"
       gradientTransform="translate(321.64286,605.86183)"
       x1="8.5"
       y1="2"
       x2="11"
       y2="15.5" />
    <linearGradient
       id="linearGradient3246-2">
      <stop
         id="stop3248-4"
         offset="0"
         style="stop-color:#7fc6e9;stop-opacity:1;" />
      <stop
         id="stop3250-5"
         offset="1"
         style="stop-color:#3a77a2;stop-opacity:1;" />
    </linearGradient>
    <linearGradient
       gradientTransform="matrix(1.0120484,0,0,1.4545457,-636.44654,320.63636)"
       inkscape:collect="always"
       xlink:href="#linearGradient3171-5"
       id="linearGradient2981"
       gradientUnits="userSpaceOnUse"
       spreadMethod="pad"
       x1="5.0238113"
       y1="9.285717"
       x2="28.738092"
       y2="6.5357175" />
    <linearGradient
       id="linearGradient3171-5">
      <stop
         id="stop3173-1"
         offset="0"
         style="stop-color:#1d3a6f;stop-opacity:1;" />
      <stop
         style="stop-color:#29619f;stop-opacity:1;"
         offset="1"
         id="stop3177-1" />
    </linearGradient>
    <linearGradient
       gradientTransform="matrix(1.0120484,0,0,1.4545457,-604.44655,320.63636)"
       inkscape:collect="always"
       xlink:href="#linearGradient3656"
       id="linearGradient2973"
       gradientUnits="userSpaceOnUse"
       x1="12.928572"
       y1="10.660717"
       x2="26.761902"
       y2="5.160718" />
    <linearGradient
       id="linearGradient3656">
      <stop
         style="stop-color:#ffffff;stop-opacity:0;"
         offset="0"
         id="stop3658" />
      <stop
         id="stop3664"
         offset="1"
         style="stop-color:#ffffff;stop-opacity:1;" />
    </linearGradient>
    <linearGradient
       inkscape:collect="always"
       xlink:href="#linearGradient3793"
       id="linearGradient2971"
       gradientUnits="userSpaceOnUse"
       gradientTransform="translate(321.64286,572.86183)"
       x1="8.5"
       y1="2"
       x2="11"
       y2="15.5" />
    <linearGradient
       id="linearGradient3793">
      <stop
         style="stop-color:#dcdcdc;stop-opacity:1;"
         offset="0"
         id="stop3795" />
      <stop
         style="stop-color:#b4b4b4;stop-opacity:1;"
         offset="1"
         id="stop3797" />
    </linearGradient>
    <linearGradient
       gradientTransform="matrix(1.0120484,0,0,1.4545457,-604.44655,320.63636)"
       inkscape:collect="always"
       xlink:href="#linearGradient3785"
       id="linearGradient2969"
       gradientUnits="userSpaceOnUse"
       spreadMethod="pad"
       x1="5.0238113"
       y1="9.285717"
       x2="28.738092"
       y2="6.5357175" />
    <linearGradient
       id="linearGradient3785">
      <stop
         style="stop-color:#6e6e6e;stop-opacity:1;"
         offset="0"
         id="stop3787" />
      <stop
         id="stop3791"
         offset="1"
         style="stop-color:#b4b4b4;stop-opacity:1;" />
    </linearGradient>
    <linearGradient
       gradientTransform="matrix(1.0120484,0,0,1.4545457,-540.44655,320.63636)"
       inkscape:collect="always"
       xlink:href="#linearGradient3195"
       id="linearGradient3702"
       x1="26.761902"
       y1="5.160718"
       x2="12.928572"
       y2="10.660717"
       gradientUnits="userSpaceOnUse" />
    <linearGradient
       inkscape:collect="always"
       xlink:href="#linearGradient3246"
       id="linearGradient4424"
       gradientUnits="userSpaceOnUse"
       gradientTransform="translate(321.64286,508.86183)"
       x1="8.5"
       y1="2"
       x2="11"
       y2="15.5" />
    <linearGradient
       id="linearGradient3246">
      <stop
         id="stop3248"
         offset="0"
         style="stop-color:#b8e3ec;stop-opacity:1;" />
      <stop
         id="stop3250"
         offset="1"
         style="stop-color:#69a9c3;stop-opacity:1;" />
    </linearGradient>
    <linearGradient
       gradientTransform="translate(321.14286,508.36221)"
       inkscape:collect="always"
       xlink:href="#linearGradient3739"
       id="linearGradient3745"
       x1="16"
       y1="30"
       x2="16"
       y2="23"
       gradientUnits="userSpaceOnUse" />
    <linearGradient
       id="linearGradient3739">
      <stop
         style="stop-color:#3b70a1;stop-opacity:1;"
         offset="0"
         id="stop3741" />
      <stop
         style="stop-color:#3a70a2;stop-opacity:0;"
         offset="1"
         id="stop3743" />
    </linearGradient>
    <linearGradient
       gradientTransform="matrix(1.0120484,0,0,1.4545457,-540.44655,320.63636)"
       inkscape:collect="always"
       xlink:href="#linearGradient3171"
       id="linearGradient3752"
       gradientUnits="userSpaceOnUse"
       spreadMethod="pad"
       x1="7.9880962"
       y1="8.598217"
       x2="28.738092"
       y2="6.5357175" />
    <linearGradient
       id="linearGradient3171">
      <stop
         id="stop3173"
         offset="0"
         style="stop-color:#2d599b;stop-opacity:1;" />
      <stop
         style="stop-color:#3a77a2;stop-opacity:1;"
         offset="0.43174258"
         id="stop3198" />
      <stop
         style="stop-color:#6cbad4;stop-opacity:1;"
         offset="1"
         id="stop3177" />
    </linearGradient>
  </defs>
  <sodipodi:namedview
     id="base"
     pagecolor="#ffffff"
     bordercolor="#666666"
     borderopacity="1.0"
     inkscape:pageopacity="0.0"
     inkscape:pageshadow="2"
     inkscape:zoom="3.959798"
     inkscape:cx="10.317546"
     inkscape:cy="61.863641"
     inkscape:document-units="px"
     inkscape:current-layer="layer1"
     showgrid="true"
     fit-margin-top="0"
     fit-margin-left="0"
     fit-margin-right="0"
     fit-margin-bottom="0"
     inkscape:window-width="1366"
     inkscape:window-height="715"
     inkscape:window-x="-4"
     inkscape:window-y="-4"
     inkscape:window-maximized="1">
    <inkscape:grid
       type="xygrid"
       id="grid5192" />
  </sodipodi:namedview>
  <metadata
     id="metadata4434">
    <rdf:RDF>
      <cc:Work
         rdf:about="">
        <dc:format>image/svg+xml</dc:format>
        <dc:type
           rdf:resource="http://purl.org/dc/dcmitype/StillImage" />
        <dc:title></dc:title>
      </cc:Work>
    </rdf:RDF>
  </metadata>
  <g
     inkscape:label="Layer 1"
     inkscape:groupmode="layer"
     id="layer1"
     transform="translate(-322.14286,-509.36218)">
    <ellipse
       ry="14.999995"
       rx="15.000001"
       cy="337.14285"
       cx="-524.36218"
       style="display:inline;fill:url(#linearGradient3752);fill-opacity:1;fill-rule:evenodd;stroke:none"
       id="path2430"
       transform="matrix(0,-1,1,0,0,0)" />
    <circle
       r="14"
       cy="524.36218"
       cx="337.14285"
       style="display:inline;fill:url(#linearGradient3745);fill-opacity:1;stroke:none"
       id="path3737" />
    <path
       inkscape:connector-curvature="0"
       style="display:inline;overflow:visible;visibility:visible;fill:url(#linearGradient4424);fill-opacity:1;fill-rule:evenodd;stroke:none;stroke-width:2;marker:none;enable-background:accumulate"
       d="m 323.14286,524.36183 c 0,-7.728 6.272,-14 14,-14 6.50692,0 11.9816,4.44654 13.54923,10.4648 -9.04923,-4.9648 -20.54923,4.5352 -27.54923,3.5352 z"
       id="path2413"
       sodipodi:nodetypes="cscc" />
    <ellipse
       ry="13.499997"
       rx="13.500001"
       cy="337.14285"
       cx="-524.36218"
       transform="matrix(0,-1,1,0,0,0)"
       id="path3693"
       style="display:inline;opacity:0.7;fill:none;stroke:url(#linearGradient3702);stroke-width:1;stroke-miterlimit:4;stroke-dasharray:none;stroke-opacity:1" />
    <rect
       style="color:#000000;display:inline;overflow:visible;visibility:visible;fill:none;stroke:none;stroke-width:2;marker:none;enable-background:accumulate"
       id="rect2949"
       width="2"
       height="26"
       x="350.14285"
       y="511.36221" />
    <ellipse
       ry="14.999995"
       rx="15.000001"
       cy="337.14285"
       cx="-588.36218"
       transform="matrix(0,-1,1,0,0,0)"
       id="path2919"
       style="display:inline;fill:url(#linearGradient2969);fill-opacity:1;fill-rule:evenodd;stroke:none" />
    <path
       inkscape:connector-curvature="0"
       sodipodi:nodetypes="cscc"
       id="path2921"
       d="m 323.14286,588.36183 c 0,-7.728 6.272,-14 14,-14 6.50692,0 11.9816,4.44654 13.54923,10.4648 -9.04923,-4.9648 -20.54923,4.5352 -27.54923,3.5352 z"
       style="display:inline;overflow:visible;visibility:visible;fill:url(#linearGradient2971);fill-opacity:1;fill-rule:evenodd;stroke:none;stroke-width:2;marker:none;enable-background:accumulate" />
    <ellipse
       ry="13.499997"
       rx="13.500001"
       cy="337.14285"
       cx="-588.36218"
       style="display:inline;opacity:0.7;fill:none;stroke:url(#linearGradient2973);stroke-width:1;stroke-miterlimit:4;stroke-dasharray:none;stroke-opacity:1"
       id="path2923"
       transform="matrix(0,-1,1,0,0,0)" />
    <rect
       y="575.36218"
       x="350.14285"
       height="26"
       width="2"
       id="rect2925"
       style="color:#000000;display:inline;overflow:visible;visibility:visible;fill:none;stroke:none;stroke-width:2;marker:none;enable-background:accumulate" />
    <ellipse
       ry="14.999995"
       rx="15.000001"
       cy="337.14285"
       cx="-620.36218"
       style="display:inline;fill:url(#linearGradient2981);fill-opacity:1;fill-rule:evenodd;stroke:none"
       id="path2939"
       transform="matrix(0,-1,1,0,0,0)" />
    <path
       inkscape:connector-curvature="0"
       style="display:inline;overflow:visible;visibility:visible;fill:url(#linearGradient2983);fill-opacity:1;fill-rule:evenodd;stroke:none;stroke-width:2;marker:none;enable-background:accumulate"
       d="m 323.14286,621.36182 c 0,-7.728 6.272,-13.99999 14,-13.99999 6.50692,0 11.9816,4.44653 13.54923,10.46479 -9.04923,-4.9648 -20.54923,4.5352 -27.54923,3.5352 z"
       id="path2941"
       sodipodi:nodetypes="cscc" />
    <ellipse
       ry="13.499997"
       rx="13.500001"
       cy="337.14285"
       cx="-621.36218"
       transform="matrix(0,-1,1,0,0,0)"
       id="path2943"
       style="display:inline;opacity:0.5;fill:none;stroke:url(#linearGradient2985);stroke-width:1;stroke-miterlimit:4;stroke-dasharray:none;stroke-opacity:1" />
    <rect
       style="color:#000000;display:inline;overflow:visible;visibility:visible;fill:none;stroke:none;stroke-width:2;marker:none;enable-background:accumulate"
       id="rect2945"
       width="2"
       height="26"
       x="350.14285"
       y="608.36218" />
    <ellipse
       ry="14.999995"
       rx="15.000001"
       cy="337.14285"
       cx="-556.36218"
       transform="matrix(0,-1,1,0,0,0)"
       id="path3747"
       style="display:inline;fill:url(#linearGradient3774);fill-opacity:1;fill-rule:evenodd;stroke:none" />
    <circle
       r="14"
       cy="556.36218"
       cx="337.14285"
       id="path3749"
       style="display:inline;fill:url(#linearGradient3763);fill-opacity:1;stroke:none" />
    <path
       inkscape:connector-curvature="0"
       sodipodi:nodetypes="cscc"
       id="path3751"
       d="m 323.14286,556.36183 c 0,-7.728 6.272,-14 14,-14 6.50692,0 11.9816,4.44654 13.54923,10.4648 -9.04923,-4.9648 -20.54923,4.5352 -27.54923,3.5352 z"
       style="display:inline;overflow:visible;visibility:visible;fill:url(#linearGradient3778);fill-opacity:1;fill-rule:evenodd;stroke:none;stroke-width:2;marker:none;enable-background:accumulate" />
    <ellipse
       ry="13.499997"
       rx="13.500001"
       cy="337.14285"
       cx="-556.36218"
       style="display:inline;opacity:0.7;fill:none;stroke:url(#linearGradient3780);stroke-width:1;stroke-miterlimit:4;stroke-dasharray:none;stroke-opacity:1"
       id="path3753"
       transform="matrix(0,-1,1,0,0,0)" />
    <rect
       y="543.36218"
       x="350.14285"
       height="26"
       width="2"
       id="rect3755"
       style="color:#000000;display:inline;overflow:visible;visibility:visible;fill:none;stroke:none;stroke-width:2;marker:none;enable-background:accumulate" />
    <circle
       r="14"
       cy="588.36218"
       cx="337.14285"
       id="path3862"
       style="display:inline;fill:url(#linearGradient3866);fill-opacity:1;stroke:none" />
    <path
       inkscape:connector-curvature="0"
       style="display:inline;opacity:0.5;fill:#003878;fill-opacity:1;fill-rule:evenodd;stroke:none"
       d="m 336.16935,515.86221 c 0,0 9.5,7.5 9.5,7.5 l -9.5,7.5 -1,-1 1.5,-4.5 -5.5,0 c -0.554,0 -1,-0.446 -1,-1 l 0,-2 c 0,-0.554 0.446,-1 1,-1 l 5.5,0 -1.5,-4.5 1,-1 z"
       id="path4339"
       sodipodi:nodetypes="cccccccccccc" />
    <path
       inkscape:connector-curvature="0"
       sodipodi:nodetypes="cccccccccccc"
       id="path3668"
       d="m 336.16935,516.86221 c 0,0 9.5,7.5 9.5,7.5 l -9.5,7.5 -1,-1 1.5,-4.5 -5.5,0 c -0.554,0 -1,-0.446 -1,-1 l 0,-2 c 0,-0.554 0.446,-1 1,-1 l 5.5,0 -1.5,-4.5 1,-1 z"
       style="display:inline;fill:url(#linearGradient4329);fill-opacity:1;fill-rule:evenodd;stroke:none" />
    <path
       inkscape:connector-curvature="0"
       sodipodi:nodetypes="cccccccccccc"
       id="path2951"
       d="m 336.16935,579.86221 c 0,0 9.5,7.5 9.5,7.5 l -9.5,7.5 -1,-1 1.5,-4.5 -5.5,0 c -0.554,0 -1,-0.446 -1,-1 l 0,-2 c 0,-0.554 0.446,-1 1,-1 l 5.5,0 -1.5,-4.5 1,-1 z"
       style="display:inline;opacity:0.4;fill:#3c3c3c;fill-opacity:1;fill-rule:evenodd;stroke:none" />
    <path
       inkscape:connector-curvature="0"
       style="display:inline;fill:#e6e6e6;fill-opacity:1;fill-rule:evenodd;stroke:none"
       d="m 336.16935,580.86221 c 0,0 9.5,7.5 9.5,7.5 l -9.5,7.5 -1,-1 1.5,-4.5 -5.5,0 c -0.554,0 -1,-0.446 -1,-1 l 0,-2 c 0,-0.554 0.446,-1 1,-1 l 5.5,0 -1.5,-4.5 1,-1 z"
       id="path2953"
       sodipodi:nodetypes="cccccccccccc" />
    <path
       inkscape:connector-curvature="0"
       style="display:inline;opacity:0.5;fill:#001c3c;fill-opacity:1;fill-rule:evenodd;stroke:none"
       d="m 336.16935,612.8622 c 0,0 9.5,7.5 9.5,7.5 l -9.5,7.5 -1,-1 1.5,-4.5 -5.5,0 c -0.554,0 -1,-0.446 -1,-1 l 0,-2 c 0,-0.554 0.446,-1 1,-1 l 5.5,0 -1.5,-4.5 1,-1 z"
       id="path2959"
       sodipodi:nodetypes="cccccccccccc" />
    <path
       inkscape:connector-curvature="0"
       sodipodi:nodetypes="cccccccccccc"
       id="path2961"
       d="m 336.16935,613.8622 c 0,0 9.5,7.5 9.5,7.5 l -9.5,7.5 -1,-1 1.5,-4.5 -5.5,0 c -0.554,0 -1,-0.446 -1,-1 l 0,-2 c 0,-0.554 0.446,-1 1,-1 l 5.5,0 -1.5,-4.5 1,-1 z"
       style="display:inline;fill:url(#linearGradient2995);fill-opacity:1;fill-rule:evenodd;stroke:none" />
    <path
       inkscape:connector-curvature="0"
       sodipodi:nodetypes="cccccccccccc"
       id="path3763"
       d="m 336.16935,547.86221 c 0,0 9.5,7.5 9.5,7.5 l -9.5,7.5 -1,-1 1.5,-4.5 -5.5,0 c -0.554,0 -1,-0.446 -1,-1 l 0,-2 c 0,-0.554 0.446,-1 1,-1 l 5.5,0 -1.5,-4.5 1,-1 z"
       style="display:inline;opacity:0.5;fill:#003878;fill-opacity:1;fill-rule:evenodd;stroke:none" />
    <path
       inkscape:connector-curvature="0"
       sodipodi:nodetypes="cccccccccccc"
       id="path3806"
       d="m 338.14286,548.86221 c 0,0 -9.5,7.5 -9.5,7.5 l 9.5,7.5 1,-1 -1.5,-4.5 5.5,0 c 0.554,0 1,-0.446 1,-1 l 0,-2 c 0,-0.554 -0.446,-1 -1,-1 l -5.5,0 1.5,-4.5 -1,-1 z"
       style="display:inline;fill:#ffffff;fill-opacity:1;fill-rule:evenodd;stroke:#91dfff;stroke-width:1.5;stroke-miterlimit:4;stroke-dasharray:none;stroke-opacity:1;filter:url(#filter3757)"
       transform="matrix(-1,0,0,1,674.31221,0)" />
    <path
       inkscape:connector-curvature="0"
       style="display:inline;fill:url(#linearGradient3788);fill-opacity:1;fill-rule:evenodd;stroke:none"
       d="m 336.16935,548.86221 c 0,0 9.5,7.5 9.5,7.5 l -9.5,7.5 -1,-1 1.5,-4.5 -5.5,0 c -0.554,0 -1,-0.446 -1,-1 l 0,-2 c 0,-0.554 0.446,-1 1,-1 l 5.5,0 -1.5,-4.5 1,-1 z"
       id="path3765"
       sodipodi:nodetypes="cccccccccccc" />
  </g>
</svg>
