<?xml version="1.0" encoding="UTF-8" standalone="no"?>
<!-- Created with Inkscape (http://www.inkscape.org/) -->

<svg
   xmlns:dc="http://purl.org/dc/elements/1.1/"
   xmlns:cc="http://creativecommons.org/ns#"
   xmlns:rdf="http://www.w3.org/1999/02/22-rdf-syntax-ns#"
   xmlns:svg="http://www.w3.org/2000/svg"
   xmlns="http://www.w3.org/2000/svg"
   xmlns:xlink="http://www.w3.org/1999/xlink"
   xmlns:sodipodi="http://sodipodi.sourceforge.net/DTD/sodipodi-0.dtd"
   xmlns:inkscape="http://www.inkscape.org/namespaces/inkscape"
   width="48"
   height="96"
   id="svg2"
   sodipodi:version="0.32"
   inkscape:version="0.47 r22583"
   version="1.0"
   sodipodi:docname="Glass buttons.svg"
   inkscape:output_extension="org.inkscape.output.svg.inkscape"
   inkscape:export-filename="F:\Design\Kempelton\Back forward\libraryNavigation.png"
   inkscape:export-xdpi="90"
   inkscape:export-ydpi="90">
  <defs
     id="defs4">
    <inkscape:perspective
       sodipodi:type="inkscape:persp3d"
       inkscape:vp_x="0 : 48 : 1"
       inkscape:vp_y="0 : 1000 : 0"
       inkscape:vp_z="48 : 48 : 1"
       inkscape:persp3d-origin="24 : 32 : 1"
       id="perspective94" />
    <linearGradient
       id="linearGradient3878">
      <stop
         id="stop3880"
         offset="0"
         style="stop-color:#001664;stop-opacity:1" />
      <stop
         style="stop-color:#0055b4;stop-opacity:1"
         offset="0.663899"
         id="stop3882" />
      <stop
         id="stop3884"
         offset="1"
         style="stop-color:#55cdff;stop-opacity:1" />
    </linearGradient>
    <linearGradient
       id="linearGradient3337">
      <stop
         style="stop-color:#b7d2f0;stop-opacity:1"
         offset="0"
         id="stop3339" />
      <stop
         style="stop-color:#4c78ae;stop-opacity:1"
         offset="1"
         id="stop3341" />
    </linearGradient>
    <linearGradient
       id="linearGradient3464">
      <stop
         style="stop-color:#91d2ff;stop-opacity:1"
         offset="0"
         id="stop3466" />
      <stop
         id="stop3468"
         offset="0.58116096"
         style="stop-color:#b9e3ff;stop-opacity:1" />
      <stop
         id="stop3470"
         offset="0.64406782"
         style="stop-color:#ffffff;stop-opacity:1;" />
      <stop
         id="stop3472"
         offset="1"
         style="stop-color:#ffffff;stop-opacity:1;" />
    </linearGradient>
    <linearGradient
       inkscape:collect="always"
       xlink:href="#linearGradient3464"
       id="linearGradient3293"
       gradientUnits="userSpaceOnUse"
       gradientTransform="matrix(-1,0,0,1,492,-76)"
       x1="248.5"
       y1="250.49998"
       x2="248.5"
       y2="240.49998" />
    <linearGradient
       inkscape:collect="always"
       xlink:href="#linearGradient3337"
       id="linearGradient3297"
       gradientUnits="userSpaceOnUse"
       gradientTransform="translate(228.5,156.49999)"
       x1="16"
       y1="2"
       x2="16"
       y2="10" />
    <linearGradient
       inkscape:collect="always"
       xlink:href="#linearGradient3878"
       id="linearGradient3301"
       gradientUnits="userSpaceOnUse"
       gradientTransform="translate(228.5,156.49999)"
       x1="14"
       y1="12"
       x2="14"
       y2="22" />
    <linearGradient
       id="linearGradient3464-7">
      <stop
         style="stop-color:#a5dcff;stop-opacity:1"
         offset="0"
         id="stop3466-6" />
      <stop
         id="stop3468-1"
         offset="0.58116096"
         style="stop-color:#c3e7ff;stop-opacity:1" />
      <stop
         id="stop3470-8"
         offset="0.64406782"
         style="stop-color:#ffffff;stop-opacity:1;" />
      <stop
         id="stop3472-9"
         offset="1"
         style="stop-color:#ffffff;stop-opacity:1;" />
    </linearGradient>
    <linearGradient
       id="linearGradient3337-2">
      <stop
         style="stop-color:#ffffff;stop-opacity:0.749"
         offset="0"
         id="stop3339-7" />
      <stop
         style="stop-color:#ffffff;stop-opacity:0.349"
         offset="1"
         id="stop3341-9" />
    </linearGradient>
    <linearGradient
       id="linearGradient4572">
      <stop
         style="stop-color:#0061b4;stop-opacity:1"
         offset="0"
         id="stop4574" />
      <stop
         id="stop4576"
         offset="0.69999999"
         style="stop-color:#55c2ff;stop-opacity:1" />
      <stop
         style="stop-color:#b9fbff;stop-opacity:1"
         offset="1"
         id="stop4578" />
    </linearGradient>
    <linearGradient
       id="linearGradient3337-4">
      <stop
         style="stop-color:#ffffff;stop-opacity:0.74509805;"
         offset="0"
         id="stop3339-1" />
      <stop
         style="stop-color:#ffffff;stop-opacity:0.43137255;"
         offset="1"
         id="stop3341-1" />
    </linearGradient>
    <linearGradient
       id="linearGradient3878-3">
      <stop
         id="stop3880-8"
         offset="0"
         style="stop-color:#000000;stop-opacity:0.3137255;" />
      <stop
         style="stop-color:#ffffff;stop-opacity:0.3137255;"
         offset="0.663899"
         id="stop3882-7" />
      <stop
         id="stop3884-4"
         offset="1"
         style="stop-color:#ffffff;stop-opacity:0.70588237;" />
    </linearGradient>
    <linearGradient
       inkscape:collect="always"
       xlink:href="#linearGradient3464-7"
       id="linearGradient5175"
       gradientUnits="userSpaceOnUse"
       gradientTransform="matrix(-1,0,0,1,492,-52)"
       x1="248.5"
       y1="250.49998"
       x2="248.5"
       y2="240.49998" />
    <linearGradient
       inkscape:collect="always"
       xlink:href="#linearGradient3337-2"
       id="linearGradient5179"
       gradientUnits="userSpaceOnUse"
       gradientTransform="translate(228.5,180.49999)"
       x1="16"
       y1="2"
       x2="16"
       y2="12" />
    <linearGradient
       inkscape:collect="always"
       xlink:href="#linearGradient4572"
       id="linearGradient5183"
       gradientUnits="userSpaceOnUse"
       gradientTransform="translate(228.5,180.49999)"
       x1="11.5"
       y1="14"
       x2="11.5"
       y2="22" />
    <linearGradient
       inkscape:collect="always"
       xlink:href="#linearGradient3337-4"
       id="linearGradient5211"
       gradientUnits="userSpaceOnUse"
       gradientTransform="translate(228.5,204.49999)"
       x1="16"
       y1="2"
       x2="16"
       y2="10" />
    <linearGradient
       inkscape:collect="always"
       xlink:href="#linearGradient3878-3"
       id="linearGradient5215"
       gradientUnits="userSpaceOnUse"
       gradientTransform="translate(228.5,204.49999)"
       x1="14"
       y1="12"
       x2="14"
       y2="22" />
    <linearGradient
       id="linearGradient3464-5">
      <stop
         style="stop-color:#91d2ff;stop-opacity:1"
         offset="0"
         id="stop3466-0" />
      <stop
         id="stop3468-2"
         offset="0.58116096"
         style="stop-color:#b9e3ff;stop-opacity:1" />
      <stop
         id="stop3470-86"
         offset="0.64406782"
         style="stop-color:#ffffff;stop-opacity:1;" />
      <stop
         id="stop3472-0"
         offset="1"
         style="stop-color:#ffffff;stop-opacity:1;" />
    </linearGradient>
    <linearGradient
       id="linearGradient3337-48">
      <stop
         style="stop-color:#8b9acd;stop-opacity:1"
         offset="0"
         id="stop3339-6" />
      <stop
         style="stop-color:#4b5c91;stop-opacity:1"
         offset="1"
         id="stop3341-5" />
    </linearGradient>
    <linearGradient
       id="linearGradient3878-9">
      <stop
         id="stop3880-0"
         offset="0"
         style="stop-color:#000000;stop-opacity:1" />
      <stop
         style="stop-color:#00318c;stop-opacity:1"
         offset="0.663899"
         id="stop3882-0" />
      <stop
         id="stop3884-6"
         offset="1"
         style="stop-color:#0076c8;stop-opacity:1" />
    </linearGradient>
    <linearGradient
       inkscape:collect="always"
       xlink:href="#linearGradient3464-5"
       id="linearGradient6191"
       gradientUnits="userSpaceOnUse"
       gradientTransform="matrix(-1,0,0,1,492,-3)"
       x1="248.5"
       y1="250.49998"
       x2="248.5"
       y2="240.49998" />
    <linearGradient
       inkscape:collect="always"
       xlink:href="#linearGradient3337-48"
       id="linearGradient6195"
       gradientUnits="userSpaceOnUse"
       gradientTransform="translate(228.5,228.49999)"
       x1="16"
       y1="2"
       x2="16"
       y2="10" />
    <linearGradient
       inkscape:collect="always"
       xlink:href="#linearGradient3878-9"
       id="linearGradient6199"
       gradientUnits="userSpaceOnUse"
       gradientTransform="translate(228.5,228.49999)"
       x1="14"
       y1="12"
       x2="14"
       y2="22" />
  </defs>
  <sodipodi:namedview
     id="base"
     pagecolor="#000000"
     bordercolor="#666666"
     borderopacity="1.0"
     gridtolerance="10000"
     guidetolerance="10"
     objecttolerance="10"
     inkscape:pageopacity="0"
     inkscape:pageshadow="2"
     inkscape:zoom="1"
     inkscape:cx="69.880657"
     inkscape:cy="71.350171"
     inkscape:document-units="px"
     inkscape:current-layer="layer1"
     width="32px"
     height="32px"
     inkscape:window-width="973"
     inkscape:window-height="992"
     inkscape:window-x="267"
     inkscape:window-y="395"
     showgrid="false"
     inkscape:grid-points="true"
     showborder="true"
     inkscape:showpageshadow="false"
     borderlayer="true"
     showguides="true"
     inkscape:guide-bbox="true"
     inkscape:window-maximized="0">
    <inkscape:grid
       id="GridFromPre046Settings"
       type="xygrid"
       originx="0px"
       originy="0px"
       spacingx="0.5px"
       spacingy="0.5px"
       color="#0000ff"
       empcolor="#0000ff"
       opacity="0.2"
       empopacity="0.4"
       empspacing="4"
       visible="true"
       enabled="true"
       dotted="false"
       snapvisiblegridlinesonly="true" />
  </sodipodi:namedview>
  <metadata
     id="metadata7">
    <rdf:RDF>
      <cc:Work
         rdf:about="">
        <dc:format>image/svg+xml</dc:format>
        <dc:type
           rdf:resource="http://purl.org/dc/dcmitype/StillImage" />
        <dc:creator>
          <cc:Agent>
            <dc:title>Arvid Axelsson</dc:title>
          </cc:Agent>
        </dc:creator>
        <cc:license
           rdf:resource="http://creativecommons.org/licenses/by-sa/3.0/" />
        <dc:title></dc:title>
      </cc:Work>
      <cc:License
         rdf:about="http://creativecommons.org/licenses/by-sa/3.0/">
        <cc:permits
           rdf:resource="http://creativecommons.org/ns#Reproduction" />
        <cc:permits
           rdf:resource="http://creativecommons.org/ns#Distribution" />
        <cc:requires
           rdf:resource="http://creativecommons.org/ns#Notice" />
        <cc:requires
           rdf:resource="http://creativecommons.org/ns#Attribution" />
        <cc:permits
           rdf:resource="http://creativecommons.org/ns#DerivativeWorks" />
        <cc:requires
           rdf:resource="http://creativecommons.org/ns#ShareAlike" />
      </cc:License>
    </rdf:RDF>
  </metadata>
  <g
     inkscape:label="Layer 1"
     inkscape:groupmode="layer"
     id="layer1"
     style="display:inline"
     transform="translate(-228.5,-156.49999)">
    <path
       style="fill:url(#linearGradient3301);fill-opacity:1;fill-rule:evenodd;stroke:none"
       d="m 233.1875,158.49999 c -2.86985,2.38521 -4.6875,5.9795 -4.6875,10 0,4.0205 1.81765,7.61479 4.6875,10 l 19.3125,0 0,-20 -19.3125,0 z"
       id="path2430"
       sodipodi:nodetypes="cscccc" />
    <use
       x="0"
       y="0"
       xlink:href="#path2430"
       id="use3252"
       transform="matrix(-1,0,0,1,505,0)"
       width="48"
       height="24" />
    <path
       sodipodi:nodetypes="cccccc"
       id="path2466"
       d="m 233.1875,158.49999 c -2.86985,2.38521 -4.6875,5.9795 -4.6875,10 0,0 2,-2 5,-2 l 19,0 0,-8 -19.3125,0 z"
       style="fill:url(#linearGradient3297);fill-opacity:1;fill-rule:evenodd;stroke:none" />
    <path
       sodipodi:nodetypes="cccccccccc"
       id="path3323"
       d="m 247.5,169.49999 -5.5,0 1.5,4 -0.5,0.5 -8.5,-5.5 c 0,0 8.5,-5.5 8.5,-5.5 l 0.5,0.5 -1.5,4 5.5,0 0,2 z"
       style="opacity:0.3;fill:#000000;fill-opacity:1;fill-rule:evenodd;stroke:#00153c;stroke-width:2;stroke-linecap:butt;stroke-linejoin:miter;stroke-miterlimit:4;stroke-opacity:1;stroke-dasharray:none;display:inline" />
    <path
       style="fill:url(#linearGradient3293);fill-opacity:1;fill-rule:evenodd;stroke:none;display:inline"
       d="m 247.5,169.49999 -5.5,0 1.5,4 -0.5,0.5 -8.5,-5.5 c 0,0 8.5,-5.5 8.5,-5.5 l 0.5,0.5 -1.5,4 5.5,0 0,2 z"
       id="path3160"
       sodipodi:nodetypes="cccccccccc" />
    <use
       x="0"
       y="0"
       xlink:href="#path2466"
       id="use3246"
       transform="matrix(-1,0,0,1,505,0)"
       width="48"
       height="24" />
    <use
       x="0"
       y="0"
       xlink:href="#path3323"
       id="use3325"
       transform="matrix(-1,0,0,1,505,0)"
       width="48"
       height="24"
       style="fill:#000000;fill-opacity:1;stroke-width:1;stroke-miterlimit:4;stroke-dasharray:none" />
    <use
       x="0"
       y="0"
       xlink:href="#path3160"
       id="use3260"
       transform="matrix(-1,0,0,1,505,0)"
       width="48"
       height="24" />
    <path
       style="fill:url(#linearGradient5183);fill-opacity:1;fill-rule:evenodd;stroke:none;display:inline"
       d="m 233.1875,182.49999 c -2.86985,2.38521 -4.6875,5.9795 -4.6875,10 0,4.0205 1.81765,7.61479 4.6875,10 l 19.3125,0 0,-20 -19.3125,0 z"
       id="path2430-5"
       sodipodi:nodetypes="cscccc" />
    <path
       sodipodi:nodetypes="cccccc"
       id="path2466-4"
       d="m 233.1875,182.49999 c -2.86985,2.38522 -4.6875,5.9795 -4.6875,10 0,0 2,-2 5,-2 l 19,0 0,-8 -19.3125,0 z"
       style="fill:url(#linearGradient5179);fill-opacity:1;fill-rule:evenodd;stroke:none;display:inline" />
    <use
       style="display:inline"
       x="0"
       y="0"
       xlink:href="#path2430-5"
       id="use3252-3"
       transform="matrix(-1,0,0,1,505,0)"
       width="48"
       height="24" />
    <use
       style="display:inline"
       x="0"
       y="0"
       xlink:href="#path2466-4"
       id="use4762"
       transform="matrix(-1,0,0,1,505,0)"
       width="48"
       height="24" />
    <use
       x="0"
       y="0"
       xlink:href="#path3323-3"
       id="use3325-1"
       transform="matrix(-1,0,0,1,505,0)"
       width="48"
       height="24"
       style="fill:#000000;fill-opacity:1;stroke-width:1;stroke-miterlimit:4;stroke-dasharray:none;display:inline" />
    <use
       style="display:inline"
       x="0"
       y="0"
       xlink:href="#path3160-3"
       id="use3260-2"
       transform="matrix(-1,0,0,1,505,0)"
       width="48"
       height="24" />
    <path
       sodipodi:nodetypes="cccccccccc"
       id="path3323-3"
       d="m 247.5,193.49999 -5.5,0 1.5,4 -0.5,0.5 -8.5,-5.5 c 0,0 8.5,-5.5 8.5,-5.5 l 0.5,0.5 -1.5,4 5.5,0 0,2 z"
       style="opacity:0.3;fill:#000000;fill-opacity:1;fill-rule:evenodd;stroke:#002364;stroke-width:2;stroke-linecap:butt;stroke-linejoin:miter;stroke-miterlimit:4;stroke-opacity:1;stroke-dasharray:none;display:inline" />
    <path
       style="fill:url(#linearGradient5175);fill-opacity:1;fill-rule:evenodd;stroke:none;display:inline"
       d="m 247.5,193.49999 -5.5,0 1.5,4 -0.5,0.5 -8.5,-5.5 c 0,0 8.5,-5.5 8.5,-5.5 l 0.5,0.5 -1.5,4 5.5,0 0,2 z"
       id="path3160-3"
       sodipodi:nodetypes="cccccccccc" />
    <path
       style="fill:url(#linearGradient5215);fill-opacity:1;fill-rule:evenodd;stroke:none;display:inline"
       d="m 233.1875,206.49999 c -2.86985,2.38521 -4.6875,5.9795 -4.6875,10 0,4.0205 1.81765,7.61479 4.6875,10 l 19.3125,0 0,-20 -19.3125,0 z"
       id="path2430-2"
       sodipodi:nodetypes="cscccc" />
    <use
       style="display:inline"
       x="0"
       y="0"
       xlink:href="#path2430-2"
       id="use3252-7"
       transform="matrix(-1,0,0,1,505,0)"
       width="48"
       height="24" />
    <path
       sodipodi:nodetypes="cccccc"
       id="path2466-7"
       d="m 233.1875,206.49999 c -2.86985,2.38521 -4.6875,5.9795 -4.6875,10 0,0 2,-2 5,-2 l 19,0 0,-8 -19.3125,0 z"
       style="fill:url(#linearGradient5211);fill-opacity:1;fill-rule:evenodd;stroke:none;display:inline" />
    <path
       sodipodi:nodetypes="cccccccccc"
       id="path3323-9"
       d="m 247.5,217.49999 -5.5,0 1.5,4 -0.5,0.5 -8.5,-5.5 c 0,0 8.5,-5.5 8.5,-5.5 l 0.5,0.5 -1.5,4 5.5,0 0,2 z"
       style="opacity:0.3;fill:#000000;fill-opacity:1;fill-rule:evenodd;stroke:#000000;stroke-width:2;stroke-linecap:butt;stroke-linejoin:miter;stroke-miterlimit:4;stroke-opacity:1;stroke-dasharray:none;display:inline" />
    <path
       style="fill:#ffffff;fill-opacity:0.62745098;fill-rule:evenodd;stroke:none;display:inline"
       d="m 247.5,217.49999 -5.5,0 1.5,4 -0.5,0.5 -8.5,-5.5 c 0,0 8.5,-5.5 8.5,-5.5 l 0.5,0.5 -1.5,4 5.5,0 0,2 z"
       id="path3160-31"
       sodipodi:nodetypes="cccccccccc" />
    <use
       style="display:inline"
       x="0"
       y="0"
       xlink:href="#path2466-7"
       id="use3246-9"
       transform="matrix(-1,0,0,1,505,0)"
       width="48"
       height="24" />
    <use
       x="0"
       y="0"
       xlink:href="#path3323-9"
       id="use3325-8"
       transform="matrix(-1,0,0,1,505,0)"
       width="48"
       height="24"
       style="fill:#000000;fill-opacity:1;stroke-width:1;stroke-miterlimit:4;stroke-dasharray:none;display:inline" />
    <use
       style="display:inline"
       x="0"
       y="0"
       xlink:href="#path3160-31"
       id="use3260-6"
       transform="matrix(-1,0,0,1,505,0)"
       width="48"
       height="24" />
    <path
       style="fill:url(#linearGradient6199);fill-opacity:1;fill-rule:evenodd;stroke:none;display:inline"
       d="m 233.1875,230.49999 c -2.86985,2.38521 -4.6875,5.9795 -4.6875,10 0,4.0205 1.81765,7.61479 4.6875,10 l 19.3125,0 0,-20 -19.3125,0 z"
       id="path2430-1"
       sodipodi:nodetypes="cscccc" />
    <use
       style="display:inline"
       x="0"
       y="0"
       xlink:href="#path2430-1"
       id="use3252-38"
       transform="matrix(-1,0,0,1,505,0)"
       width="48"
       height="24" />
    <path
       sodipodi:nodetypes="cccccc"
       id="path2466-9"
       d="m 233.1875,231.49999 c -2.86985,2.38521 -4.6875,4.9795 -4.6875,9 0,0 2,-1 5,-1 l 19,0 0,-8 -19.3125,0 z"
       style="fill:url(#linearGradient6195);fill-opacity:1;fill-rule:evenodd;stroke:none;display:inline" />
    <path
       sodipodi:nodetypes="cccccccccc"
       id="path3323-34"
       d="m 247.5,242.49999 -5.5,0 1.5,4 -0.5,0.5 -8.5,-5.5 c 0,0 8.5,-5.5 8.5,-5.5 l 0.5,0.5 -1.5,4 5.5,0 0,2 z"
       style="opacity:0.3;fill:#000000;fill-opacity:1;fill-rule:evenodd;stroke:#00153c;stroke-width:2;stroke-linecap:butt;stroke-linejoin:miter;stroke-miterlimit:4;stroke-opacity:1;stroke-dasharray:none;display:inline" />
    <path
       style="fill:url(#linearGradient6191);fill-opacity:1;fill-rule:evenodd;stroke:none;display:inline"
       d="m 247.5,242.49999 -5.5,0 1.5,4 -0.5,0.5 -8.5,-5.5 c 0,0 8.5,-5.5 8.5,-5.5 l 0.5,0.5 -1.5,4 5.5,0 0,2 z"
       id="path3160-4"
       sodipodi:nodetypes="cccccccccc" />
    <use
       style="display:inline"
       x="0"
       y="0"
       xlink:href="#path2466-9"
       id="use3246-6"
       transform="matrix(-1,0,0,1,505,0)"
       width="48"
       height="24" />
    <use
       x="0"
       y="0"
       xlink:href="#path3323-34"
       id="use3325-0"
       transform="matrix(-1,0,0,1,505,0)"
       width="48"
       height="24"
       style="fill:#000000;fill-opacity:1;stroke-width:1;stroke-miterlimit:4;stroke-dasharray:none;display:inline" />
    <use
       style="display:inline"
       x="0"
       y="0"
       xlink:href="#path3160-4"
       id="use3260-66"
       transform="matrix(-1,0,0,1,505,0)"
       width="48"
       height="24" />
  </g>
</svg>
