<svg xmlns="http://www.w3.org/2000/svg" xmlns:xlink="http://www.w3.org/1999/xlink" width="16" height="16" version="1">
  <defs>
    <linearGradient id="b">
      <stop offset="0" stop-color="#a07100"/>
      <stop offset="1" stop-color="#dab715"/>
    </linearGradient>
    <linearGradient id="a">
      <stop offset="0" stop-color="#c89b00"/>
      <stop offset=".589" stop-color="#e6ce00"/>
      <stop offset=".7" stop-color="#fffe7d"/>
      <stop offset="1" stop-color="#fff"/>
    </linearGradient>
    <linearGradient xlink:href="#a" id="d" gradientUnits="userSpaceOnUse" x1="10.382" y1="12.28" x2="7.524" y2="5.133"/>
    <linearGradient xlink:href="#b" id="c" x1="7.047" y1="14.662" x2="6.571" y2="1.322" gradientUnits="userSpaceOnUse"/>
  </defs>
  <path transform="matrix(1.04962 0 0 1.04944 -.397 .113)" d="M8 1.5l1.934 4.338 4.723.499-3.528 3.18.985 4.646L8 11.79l-4.114 2.373.985-4.646-3.528-3.18 4.723-.499L8 1.5z" style="marker:none" fill="none" stroke="url(#c)" stroke-width="1.906" stroke-linecap="square" stroke-linejoin="round" overflow="visible"/>
  <path style="marker:none" d="M8 1.5l1.934 4.338 4.723.499-3.528 3.18.985 4.646L8 11.79l-4.114 2.373.985-4.646-3.528-3.18 4.723-.499L8 1.5z" transform="matrix(1.04962 0 0 1.04944 -.397 .113)" fill="url(#d)" fill-rule="evenodd" overflow="visible"/>
  <path style="marker:none" d="M13.688 6.625l-3.063 2.75a.986.986 0 0 0-.344.938L10.875 13 8.5 11.625a1.031 1.031 0 0 0-1 0l-3.531 2.063-.281 1.28L8 12.5l4.313 2.469-1.032-4.875L15 6.75l-1.313-.125z" fill="#fff990" fill-opacity=".644" fill-rule="evenodd" overflow="visible"/>
</svg>
