<svg xmlns="http://www.w3.org/2000/svg" xmlns:xlink="http://www.w3.org/1999/xlink" width="32" height="32" version="1">
  <defs>
    <linearGradient id="b">
      <stop offset="0" stop-color="#51b0d8"/>
      <stop offset=".6" stop-color="#1c6497"/>
      <stop offset="1" stop-color="#427faa"/>
    </linearGradient>
    <linearGradient id="a">
      <stop offset="0" stop-color="#fff"/>
      <stop offset=".885" stop-color="#fff" stop-opacity=".298"/>
      <stop offset="1" stop-color="#fff" stop-opacity="0"/>
    </linearGradient>
    <linearGradient xlink:href="#a" id="d" gradientUnits="userSpaceOnUse" x1="10" y1="2" x2="14" y2="15"/>
    <linearGradient xlink:href="#b" id="c" gradientUnits="userSpaceOnUse" x1="11" y1="8" x2="11" y2="28"/>
  </defs>
  <path d="M51.5 24c0-2.484-2.016-3-4.5-3s-4.5.516-4.5 3c0 1.685 2.5 2 2 4-.243.97 1.7 1 2.5 1 .857 0 2.743-.03 2.5-1-.5-2 2-2.373 2-4z" fill="#599033"/>
  <path d="M1 29V5h9.5c.5 2-2 2.315-2 4 0 2.484 2.016 3 4.5 3s4.5-.516 4.5-3c0-1.627-2.5-2-2-4H25v9.5c2 .5 2.373-2 4-2 2.484 0 3 2.016 3 4.5s-.516 4.5-3 4.5c-1.685 0-2-2.5-4-2V29h-9.5c-.5-2 2-2.373 2-4 0-2.484-2.016-3-4.5-3s-4.5.516-4.5 3c0 1.685 2.5 2 2 4H1z" fill="#165a89" fill-rule="evenodd"/>
  <path d="M0 28V4h9.5c.5 2-2 2.315-2 4 0 2.484 2.016 3 4.5 3s4.5-.516 4.5-3c0-1.627-2.5-2-2-4H24v9.5c2 .5 2.373-2 4-2 2.484 0 3 2.016 3 4.5s-.516 4.5-3 4.5c-1.685 0-2-2.5-4-2V28h-9.5c-.5-2 2-2.373 2-4 0-2.484-2.016-3-4.5-3s-4.5.516-4.5 3c0 1.685 2.5 2 2 4H0z" fill="url(#c)" fill-rule="evenodd"/>
  <path d="M1 5v22l22-13.5V5h-7.344c.093.13.165.263.344.438.258.25.597.534.906.937.31.403.594.962.594 1.625 0 1.513-.763 2.73-1.844 3.313-1.08.583-2.345.687-3.656.687s-2.575-.104-3.656-.688C7.263 10.73 6.5 9.512 6.5 8c0-.668.282-1.247.594-1.656.311-.41.647-.69.906-.938.166-.159.221-.286.313-.406H1z" fill="url(#d)" fill-rule="evenodd" opacity=".7"/>
</svg>
