<svg xmlns="http://www.w3.org/2000/svg" xmlns:xlink="http://www.w3.org/1999/xlink" width="16" height="16" version="1">
  <defs>
    <linearGradient id="c">
      <stop offset="0" stop-color="#067b06"/>
      <stop offset="1" stop-color="#5bb25b"/>
    </linearGradient>
    <linearGradient id="b">
      <stop offset="0" stop-color="#51b351"/>
      <stop offset="1" stop-color="#2f852f"/>
    </linearGradient>
    <linearGradient id="a">
      <stop offset="0" stop-color="#7cc964"/>
      <stop offset="1" stop-color="#c9f6af"/>
    </linearGradient>
    <linearGradient xlink:href="#a" id="d" x1="12" y1="10.969" x2="12" y2="19" gradientUnits="userSpaceOnUse" gradientTransform="matrix(.5 0 0 .5 2 -3)"/>
    <linearGradient xlink:href="#b" id="e" x1="8.682" y1="16.6" x2="10.318" y2="25.6" gradientUnits="userSpaceOnUse" gradientTransform="matrix(1.22222 0 0 1.0119 -3.611 -10.905)"/>
    <linearGradient xlink:href="#c" id="f" x1="14.5" y1="12.5" x2="7.5" y2="12.5" gradientUnits="userSpaceOnUse"/>
    <linearGradient xlink:href="#c" id="g" x1="15" y1="11.5" x2="8" y2="11.5" gradientUnits="userSpaceOnUse" gradientTransform="matrix(.5 0 0 .5 -.5 -1)"/>
    <linearGradient xlink:href="#c" id="h" x1="24" y1="12" x2="17" y2="12" gradientUnits="userSpaceOnUse"/>
    <linearGradient xlink:href="#c" id="i" gradientUnits="userSpaceOnUse" x1="14.5" y1="13" x2="7.5" y2="13"/>
    <linearGradient xlink:href="#c" id="j" gradientUnits="userSpaceOnUse" x1="24" y1="12" x2="17" y2="12"/>
  </defs>
  <g fill-rule="evenodd">
    <path style="marker:none" d="M14 6.5H2l1.75-5h8.5l1.75 5z" fill="url(#d)" overflow="visible"/>
    <path d="M7 2.75a1.5.5 0 1 1-3 0 1.5.5 0 1 1 3 0z" style="marker:none" fill="#248f24" overflow="visible"/>
    <path style="marker:none" fill="url(#e)" overflow="visible" d="M2 6.5h12V16H2z"/>
    <path style="marker:none" d="M2 6.5h12v3.25c-2.102.096-9.566.613-12 2V6.5z" opacity=".15" fill="#b7ff90" overflow="visible"/>
    <path style="marker:none" d="M14.5 14a3.5 1 0 1 1-7 0 3.5 1 0 1 1 7 0z" transform="matrix(.5 0 0 .5 -.25 -1.5)" fill="url(#f)" overflow="visible"/>
    <path style="marker:none" fill="url(#g)" overflow="visible" d="M3.5 3.75H7V5.5H3.5z"/>
    <path style="marker:none" fill="#248f24" overflow="visible" d="M4 1.25h3v1.5H4z"/>
    <path style="marker:none" d="M7 1.25a1.5.5 0 1 1-3 0 1.5.5 0 1 1 3 0z" fill="#99d786" overflow="visible"/>
    <g transform="matrix(.5 0 0 .5 .5 -1)" fill="url(#h)">
      <path transform="translate(9.5 -1)" style="marker:none" d="M14.5 14a3.5 1 0 1 1-7 0 3.5 1 0 1 1 7 0z" fill="url(#i)" overflow="visible"/>
      <path style="marker:none" fill="url(#j)" overflow="visible" d="M17 9.5h7V13h-7z"/>
    </g>
    <path d="M7 3.75a1.75.5 0 1 1-3.5 0 1.75.5 0 1 1 3.5 0z" style="marker:none" fill="#b3e598" overflow="visible"/>
    <path style="marker:none" d="M12 2.75a1.5.5 0 1 1-3 0 1.5.5 0 1 1 3 0z" fill="#248f24" overflow="visible"/>
    <path style="marker:none" fill="#248f24" overflow="visible" d="M9 1.25h3v1.5H9z"/>
    <path style="marker:none" d="M12.5 3.75a1.75.5 0 1 1-3.5 0 1.75.5 0 1 1 3.5 0z" fill="#b3e598" overflow="visible"/>
    <path d="M12 1.25a1.5.5 0 1 1-3 0 1.5.5 0 1 1 3 0z" style="marker:none" fill="#99d786" overflow="visible"/>
  </g>
</svg>
