<svg xmlns="http://www.w3.org/2000/svg" xmlns:xlink="http://www.w3.org/1999/xlink" width="32" height="32" version="1">
  <defs>
    <linearGradient id="c">
      <stop offset="0" stop-color="#fff"/>
      <stop offset="1" stop-color="#fff" stop-opacity="0"/>
    </linearGradient>
    <linearGradient id="a">
      <stop offset="0" stop-color="#fff"/>
      <stop offset=".417" stop-color="#ffff69"/>
      <stop offset=".472" stop-color="#f0d800"/>
      <stop offset="1" stop-color="#dc9b00"/>
    </linearGradient>
    <linearGradient id="b">
      <stop offset="0" stop-color="#cfad0d"/>
      <stop offset="1" stop-color="#aa7314"/>
    </linearGradient>
    <linearGradient xlink:href="#a" id="d" x1="12" y1="10" x2="14" y2="23" gradientUnits="userSpaceOnUse"/>
    <linearGradient xlink:href="#b" id="e" x1="21" y1="10" x2="22" y2="17" gradientUnits="userSpaceOnUse"/>
    <linearGradient xlink:href="#c" id="f" gradientUnits="userSpaceOnUse" x1="28" y1="30" x2="18" y2="21"/>
  </defs>
  <g fill-rule="evenodd">
    <path style="marker:none" d="M16 2l3.245 4.014 4.984-1.34.266 5.154 4.82 1.846L26.5 16l2.815 4.326-4.82 1.846-.266 5.154-4.984-1.34L16 30l-3.245-4.014-4.984 1.34-.266-5.154-4.82-1.846L5.5 16l-2.815-4.326 4.82-1.846.266-5.154 4.984 1.34L16 2z" fill="url(#d)" stroke="url(#e)" stroke-linecap="square" overflow="visible"/>
    <path d="M16 2l3.245 4.014 4.984-1.34.266 5.154 4.82 1.846L26.5 16l2.815 4.326-4.82 1.846-.266 5.154-4.984-1.34L16 30l-3.245-4.014-4.984 1.34-.266-5.154-4.82-1.846L5.5 16l-2.815-4.326 4.82-1.846.266-5.154 4.984 1.34L16 2z" style="marker:none" fill="url(#f)" overflow="visible"/>
  </g>
</svg>
