<svg xmlns="http://www.w3.org/2000/svg" xmlns:xlink="http://www.w3.org/1999/xlink" width="16" height="16" version="1">
  <defs>
    <linearGradient id="p">
      <stop offset="0" stop-color="#969696"/>
      <stop offset="1"/>
    </linearGradient>
    <linearGradient id="o">
      <stop offset="0" stop-color="#969696"/>
      <stop offset="1"/>
    </linearGradient>
    <linearGradient id="a">
      <stop offset="0" stop-color="#d2d2d2"/>
      <stop offset="1" stop-color="#aaa"/>
    </linearGradient>
    <linearGradient id="b">
      <stop offset="0" stop-color="#d2d2d2"/>
      <stop offset="1" stop-color="#f0f0f0"/>
    </linearGradient>
    <linearGradient id="m">
      <stop offset="0" stop-color="#bebebe"/>
      <stop offset="1" stop-color="#a0a0a0"/>
    </linearGradient>
    <linearGradient xlink:href="#a" id="C" x1="4" x2="4" y2="16" gradientUnits="userSpaceOnUse"/>
    <linearGradient id="n">
      <stop offset="0" stop-color="#c3c3c3"/>
      <stop offset="1" stop-color="#e6e6e6"/>
    </linearGradient>
    <linearGradient xlink:href="#b" id="D" gradientUnits="userSpaceOnUse" x1="1.143" y1="16" x2="1.143" gradientTransform="matrix(.875 0 0 .875 1 1)"/>
    <linearGradient id="i">
      <stop offset="0" stop-color="#98cee5"/>
      <stop offset="1" stop-color="#478dbd"/>
    </linearGradient>
    <linearGradient id="l">
      <stop offset="0" stop-color="#3a77a2" stop-opacity="0"/>
      <stop offset="1" stop-color="#3a77a2"/>
    </linearGradient>
    <linearGradient id="k">
      <stop offset="0" stop-color="#98cee5"/>
      <stop offset="1" stop-color="#448cc0"/>
    </linearGradient>
    <linearGradient id="j">
      <stop offset="0" stop-color="#3184bf"/>
      <stop offset="1" stop-color="#1a3f68"/>
    </linearGradient>
    <linearGradient id="g">
      <stop offset="0" stop-color="#56a2c2" stop-opacity="0"/>
      <stop offset="1" stop-color="#56a2c2"/>
    </linearGradient>
    <linearGradient id="f">
      <stop offset="0" stop-color="#b9ebff"/>
      <stop offset="1" stop-color="#78bfdc"/>
    </linearGradient>
    <linearGradient id="h">
      <stop offset="0" stop-color="#58afd4"/>
      <stop offset="1" stop-color="#296e9f"/>
    </linearGradient>
    <linearGradient id="e">
      <stop offset="0" stop-color="#19a0d6"/>
      <stop offset="1" stop-color="#0f4f7d"/>
    </linearGradient>
    <linearGradient id="c">
      <stop offset="0" stop-color="#b3e9f4"/>
      <stop offset="1" stop-color="#63abc9"/>
    </linearGradient>
    <linearGradient xlink:href="#c" id="u" x1="7.075" y1="1.07" x2="7.555" y2="7" gradientUnits="userSpaceOnUse" gradientTransform="matrix(1.07143 0 0 1.08333 -.571 -.583)"/>
    <linearGradient id="d">
      <stop offset="0" stop-color="#3e90b2" stop-opacity="0"/>
      <stop offset="1" stop-color="#3e90b2"/>
    </linearGradient>
    <linearGradient xlink:href="#d" id="v" gradientUnits="userSpaceOnUse" x1="8" y1="8" x2="8" y2="16" gradientTransform="matrix(1 0 0 .5 0 8)"/>
    <linearGradient xlink:href="#e" id="t" x1="8" x2="8" y2="16" gradientUnits="userSpaceOnUse"/>
    <linearGradient xlink:href="#f" id="x" gradientUnits="userSpaceOnUse" gradientTransform="matrix(1.07143 0 0 1.08333 -.571 -.583)" x1="7.075" y1="1.07" x2="7.555" y2="7"/>
    <linearGradient xlink:href="#g" id="y" gradientUnits="userSpaceOnUse" gradientTransform="matrix(1 0 0 .5 0 8)" x1="8" y1="8" x2="8" y2="16"/>
    <linearGradient xlink:href="#h" id="w" gradientUnits="userSpaceOnUse" x1="8" x2="8" y2="16"/>
    <linearGradient xlink:href="#i" id="z" gradientUnits="userSpaceOnUse" gradientTransform="matrix(1.07143 0 0 1.08333 -.571 -.583)" x1="7.075" y1="1.07" x2="7.555" y2="7"/>
    <linearGradient xlink:href="#j" id="q" gradientUnits="userSpaceOnUse" x1="8" x2="8" y2="16"/>
    <linearGradient xlink:href="#k" id="r" gradientUnits="userSpaceOnUse" gradientTransform="matrix(1.07143 0 0 1.08333 -.571 -.583)" x1="7.075" y1="1.07" x2="7.555" y2="7"/>
    <linearGradient xlink:href="#l" id="s" gradientUnits="userSpaceOnUse" gradientTransform="matrix(1 0 0 .5 0 8)" x1="8" y1="8" x2="8" y2="16"/>
    <linearGradient xlink:href="#m" id="A" gradientUnits="userSpaceOnUse" x2="0" y2="16"/>
    <linearGradient xlink:href="#n" id="B" gradientUnits="userSpaceOnUse" gradientTransform="matrix(.875 0 0 .875 1 1)" y1="16" x2="0"/>
    <linearGradient xlink:href="#o" id="E" x1="8" y1="4" x2="8" y2="12" gradientUnits="userSpaceOnUse" gradientTransform="translate(0 .5)"/>
    <linearGradient xlink:href="#p" id="F" x1="8" y1="4" x2="8" y2="12" gradientUnits="userSpaceOnUse"/>
    <linearGradient xlink:href="#o" id="G" gradientUnits="userSpaceOnUse" x1="9.5" y1="3.5" x2="9.5" y2="12.5"/>
  </defs>
  <rect style="marker:none" width="16" height="16" rx="2.5" ry="2.5" fill="url(#A)" fill-rule="evenodd" overflow="visible"/>
  <rect rx="1.5" y="1" x="1" height="14" width="14" style="marker:none" ry="1.5" fill="url(#B)" fill-rule="evenodd" overflow="visible"/>
  <path d="M2.867 1h10.266C14.167 1 15 1.755 15 2.692v1.27C15 4.808 6.133 6.5 1 6.5V2.692C1 1.755 1.833 1 2.867 1z" fill="#fff"/>
  <g>
    <path d="M8 3v5L4 5.5 8 3z" style="marker:none" fill="none" overflow="visible"/>
    <path d="M8 4v5L4 6.5 8 4z" style="marker:none" opacity=".5" fill="#fff" fill-rule="evenodd" overflow="visible"/>
    <path style="marker:none" d="M8 3v5L4 5.5 8 3z" fill="#6e6e6e" fill-rule="evenodd" overflow="visible"/>
    <path d="M8 6.5c1.932 0 3.5 1.568 3.5 3.5S9.932 13.5 8 13.5A3.501 3.501 0 0 1 4.5 10" style="marker:none" opacity=".5" fill="none" stroke="#fff" stroke-width="1.5" stroke-linejoin="round" overflow="visible"/>
    <path style="marker:none" d="M8 4.5c1.932 0 3.5 1.568 3.5 3.5S9.932 11.5 8 11.5A3.501 3.501 0 0 1 4.5 8" transform="translate(0 1)" fill="none" stroke="url(#G)" stroke-width="1.5" stroke-linejoin="round" overflow="visible"/>
  </g>
</svg>
