<svg xmlns="http://www.w3.org/2000/svg" xmlns:xlink="http://www.w3.org/1999/xlink" width="16" height="16" version="1">
  <defs>
    <linearGradient id="p">
      <stop offset="0" stop-color="#969696"/>
      <stop offset="1"/>
    </linearGradient>
    <linearGradient id="o">
      <stop offset="0" stop-color="#969696"/>
      <stop offset="1"/>
    </linearGradient>
    <linearGradient id="a">
      <stop offset="0" stop-color="#d2d2d2"/>
      <stop offset="1" stop-color="#aaa"/>
    </linearGradient>
    <linearGradient id="b">
      <stop offset="0" stop-color="#d2d2d2"/>
      <stop offset="1" stop-color="#f0f0f0"/>
    </linearGradient>
    <linearGradient id="m">
      <stop offset="0" stop-color="#bebebe"/>
      <stop offset="1" stop-color="#a0a0a0"/>
    </linearGradient>
    <linearGradient xlink:href="#a" id="F" x1="4" x2="4" y2="16" gradientUnits="userSpaceOnUse"/>
    <linearGradient id="n">
      <stop offset="0" stop-color="#c3c3c3"/>
      <stop offset="1" stop-color="#e6e6e6"/>
    </linearGradient>
    <linearGradient xlink:href="#b" id="G" gradientUnits="userSpaceOnUse" x1="1.143" y1="16" x2="1.143" gradientTransform="matrix(.875 0 0 .875 1 1)"/>
    <linearGradient id="i">
      <stop offset="0" stop-color="#98cee5"/>
      <stop offset="1" stop-color="#478dbd"/>
    </linearGradient>
    <linearGradient id="l">
      <stop offset="0" stop-color="#3a77a2" stop-opacity="0"/>
      <stop offset="1" stop-color="#3a77a2"/>
    </linearGradient>
    <linearGradient id="k">
      <stop offset="0" stop-color="#98cee5"/>
      <stop offset="1" stop-color="#448cc0"/>
    </linearGradient>
    <linearGradient id="j">
      <stop offset="0" stop-color="#3184bf"/>
      <stop offset="1" stop-color="#1a3f68"/>
    </linearGradient>
    <linearGradient id="g">
      <stop offset="0" stop-color="#56a2c2" stop-opacity="0"/>
      <stop offset="1" stop-color="#56a2c2"/>
    </linearGradient>
    <linearGradient id="f">
      <stop offset="0" stop-color="#b9ebff"/>
      <stop offset="1" stop-color="#78bfdc"/>
    </linearGradient>
    <linearGradient id="h">
      <stop offset="0" stop-color="#58afd4"/>
      <stop offset="1" stop-color="#296e9f"/>
    </linearGradient>
    <linearGradient id="e">
      <stop offset="0" stop-color="#19a0d6"/>
      <stop offset="1" stop-color="#0f4f7d"/>
    </linearGradient>
    <linearGradient id="c">
      <stop offset="0" stop-color="#b3e9f4"/>
      <stop offset="1" stop-color="#63abc9"/>
    </linearGradient>
    <linearGradient xlink:href="#c" id="x" x1="7.075" y1="1.07" x2="7.555" y2="7" gradientUnits="userSpaceOnUse" gradientTransform="matrix(1.07143 0 0 1.08333 -.571 -.583)"/>
    <linearGradient id="d">
      <stop offset="0" stop-color="#3e90b2" stop-opacity="0"/>
      <stop offset="1" stop-color="#3e90b2"/>
    </linearGradient>
    <linearGradient xlink:href="#d" id="y" gradientUnits="userSpaceOnUse" x1="8" y1="8" x2="8" y2="16" gradientTransform="matrix(1 0 0 .5 0 8)"/>
    <linearGradient xlink:href="#e" id="w" x1="8" x2="8" y2="16" gradientUnits="userSpaceOnUse"/>
    <linearGradient xlink:href="#f" id="A" gradientUnits="userSpaceOnUse" gradientTransform="matrix(1.07143 0 0 1.08333 -.571 -.583)" x1="7.075" y1="1.07" x2="7.555" y2="7"/>
    <linearGradient xlink:href="#g" id="B" gradientUnits="userSpaceOnUse" gradientTransform="matrix(1 0 0 .5 0 8)" x1="8" y1="8" x2="8" y2="16"/>
    <linearGradient xlink:href="#h" id="z" gradientUnits="userSpaceOnUse" x1="8" x2="8" y2="16"/>
    <linearGradient xlink:href="#i" id="C" gradientUnits="userSpaceOnUse" gradientTransform="matrix(1.07143 0 0 1.08333 -.571 -.583)" x1="7.075" y1="1.07" x2="7.555" y2="7"/>
    <linearGradient xlink:href="#j" id="t" gradientUnits="userSpaceOnUse" x1="8" x2="8" y2="16"/>
    <linearGradient xlink:href="#k" id="u" gradientUnits="userSpaceOnUse" gradientTransform="matrix(1.07143 0 0 1.08333 -.571 -.583)" x1="7.075" y1="1.07" x2="7.555" y2="7"/>
    <linearGradient xlink:href="#l" id="v" gradientUnits="userSpaceOnUse" gradientTransform="matrix(1 0 0 .5 0 8)" x1="8" y1="8" x2="8" y2="16"/>
    <linearGradient xlink:href="#m" id="D" gradientUnits="userSpaceOnUse" x2="0" y2="16"/>
    <linearGradient xlink:href="#n" id="E" gradientUnits="userSpaceOnUse" gradientTransform="matrix(.875 0 0 .875 1 1)" y1="16" x2="0"/>
    <linearGradient xlink:href="#o" id="H" x1="8" y1="4" x2="8" y2="12" gradientUnits="userSpaceOnUse" gradientTransform="translate(0 .5)"/>
    <linearGradient xlink:href="#p" id="I" x1="8" y1="4" x2="8" y2="12" gradientUnits="userSpaceOnUse"/>
    <linearGradient id="q">
      <stop offset="0" stop-color="#fff" stop-opacity=".8"/>
      <stop offset="1" stop-color="#fff" stop-opacity=".4"/>
    </linearGradient>
    <linearGradient id="r">
      <stop offset="0" stop-color="#fff"/>
      <stop offset=".249" stop-color="#ffffb9"/>
      <stop offset="1" stop-color="#d0bb48"/>
    </linearGradient>
    <linearGradient xlink:href="#o" id="K" x1="3.041" y1="8.032" x2="13.025" y2="8.032" gradientUnits="userSpaceOnUse" gradientTransform="rotate(90 8.033 8.032)"/>
    <linearGradient xlink:href="#o" id="J" x1="3.041" y1="8.032" x2="13.025" y2="8.032" gradientUnits="userSpaceOnUse" gradientTransform="rotate(90 8.033 8.032)"/>
    <linearGradient id="s">
      <stop offset="0" stop-color="#969696"/>
      <stop offset="1"/>
    </linearGradient>
  </defs>
  <rect style="marker:none" width="16" height="16" rx="2.5" ry="2.5" fill="url(#D)" fill-rule="evenodd" overflow="visible"/>
  <rect rx="1.5" y="1" x="1" height="14" width="14" style="marker:none" ry="1.5" fill="url(#E)" fill-rule="evenodd" overflow="visible"/>
  <path d="M2.867 1h10.266C14.167 1 15 1.755 15 2.692v1.27C15 4.808 6.133 6.5 1 6.5V2.692C1 1.755 1.833 1 2.867 1z" fill="#fff"/>
  <g>
    <path d="M8 3v5L4 5.5 8 3z" style="marker:none" fill="none" overflow="visible"/>
    <path d="M13.833 10.14c-.021.116-.216.914-.546 2.24l-.316 1.27-.787.019c-1.02.023-7.385.023-8.853 0l-1.133-.019-.002-4.18c-.002-2.3.006-4.235.016-4.3.015-.093.05-.148.16-.257a.6.6 0 0 1 .236-.162c.052-.012 1.711-.03 3.686-.038l3.59-.017.112-.076c.12-.083.144-.151.145-.415 0-.075.009-.183.018-.24l.017-.103 1.202.007 1.2.008.112.074a.7.7 0 0 1 .177.177c.073.117.07.017.086 2.676l.007 1.18h-2.417l-.4-.413-.4-.412-2.365-.01c-1.3-.006-2.8-.016-3.33-.022l-.967-.01-.017.126c-.009.07-.09.864-.18 1.764-.091.9-.171 1.68-.179 1.73-.007.052-.003.082.009.069a9.02 9.02 0 0 0 .166-.721c.161-.776.254-1.13.336-1.29.08-.157.253-.331.452-.456l.175-.11H6.704v.09c0 .054.01.075.023.053.017-.027.205-.033.844-.027l.822.007.038.191c.02.105.048.202.06.215.013.013 0-.079-.028-.204-.039-.173-.043-.233-.018-.248.052-.033 1.242-.026 1.33.007.042.016.262.213.488.437l.41.407h1.173c.8 0 1.18-.009 1.2-.03.045-.042.345.116.512.271.196.182.296.366.291.537-.002.075-.009.167-.016.205zM8.518 8.846c-.012-.013-.012.02 0 .075l.023.099H6.818l-.013-.075c-.012-.072-.012-.071-.008.006l.004.082.886.008.886.007-.017-.09a.323.323 0 0 0-.038-.112zm-1.776-.424c-.02-.022-.007.202.017.311.018.081.02.056.008-.095a1.414 1.414 0 0 0-.025-.216z" opacity=".5" fill="#fff"/>
    <path d="M13.844 9.398c-.022.116-.216.915-.546 2.24l-.317 1.271-.787.018c-1.02.023-7.385.023-8.853 0L2.21 12.91l-.003-4.18c-.001-2.3.006-4.235.017-4.3.015-.093.049-.148.159-.258a.6.6 0 0 1 .236-.16c.053-.013 1.712-.03 3.687-.04l3.59-.016.111-.077c.12-.083.144-.15.146-.415 0-.075.008-.183.018-.24l.017-.103 1.2.008 1.202.008.112.073a.7.7 0 0 1 .176.178c.073.117.07.017.086 2.675l.007 1.18h-2.417l-.4-.412-.4-.412-2.365-.01c-1.3-.007-2.8-.016-3.33-.022l-.967-.01-.016.126c-.01.07-.091.863-.182 1.764-.09.9-.17 1.679-.177 1.73-.008.051-.004.082.008.068.012-.013.087-.338.167-.72.16-.776.253-1.13.335-1.29.081-.158.254-.331.453-.456l.175-.11h2.86l.001.089c0 .055.009.075.023.054.017-.027.204-.033.844-.027l.822.007.037.191c.021.105.048.202.061.215.013.013 0-.08-.028-.204-.04-.173-.044-.233-.019-.249.052-.032 1.242-.025 1.33.008.043.016.262.212.488.436l.411.408h1.172c.8 0 1.181-.01 1.201-.03.044-.043.344.116.511.27.196.183.296.366.292.538-.002.075-.01.167-.016.204zM8.528 8.105c-.012-.013-.012.021 0 .076l.023.098H6.828l-.012-.075c-.012-.071-.013-.07-.01.007l.005.082.886.007.886.007-.017-.089a.323.323 0 0 0-.038-.113zm-1.776-.424c-.019-.021-.007.203.017.312.018.08.02.056.009-.096a1.422 1.422 0 0 0-.026-.216z" fill="url(#J)" stroke="url(#K)" stroke-width=".16"/>
  </g>
</svg>
