<svg xmlns="http://www.w3.org/2000/svg" xmlns:xlink="http://www.w3.org/1999/xlink" width="24" height="24" version="1">
  <defs>
    <linearGradient id="a">
      <stop offset="0" stop-color="#969696"/>
      <stop offset="1" stop-color="#b4b4b4"/>
    </linearGradient>
    <linearGradient id="b">
      <stop offset="0"/>
      <stop offset="1" stop-opacity="0"/>
    </linearGradient>
    <linearGradient id="c">
      <stop offset="0" stop-color="#fff"/>
      <stop offset="1" stop-color="#cdcdcd"/>
    </linearGradient>
    <linearGradient xlink:href="#a" id="e" gradientUnits="userSpaceOnUse" gradientTransform="translate(-7 -7)" x1="29" y1="31" x2="29" y2="14"/>
    <linearGradient xlink:href="#b" id="k" gradientUnits="userSpaceOnUse" gradientTransform="matrix(1.75 0 0 1 -15.75 0)" x1="20.714" y1="11" x2="20.714" y2="14"/>
    <linearGradient xlink:href="#c" id="j" gradientUnits="userSpaceOnUse" gradientTransform="translate(5 3)" x1="9" y1="12" x2="10" y2="20"/>
  </defs>
  <use xlink:href="#d" transform="translate(-7 -7)" width="24" height="24"/>
  <path id="d" d="M9.5 23.5h12V10.75L18.25 7.5H9.5v16z" fill="none" fill-rule="evenodd" stroke="url(#e)"/>
  <use xlink:href="#f" transform="translate(-7 -7)" width="24" height="24"/>
  <use xlink:href="#g" transform="translate(-7.25 -7)" width="24" height="24"/>
  <use xlink:href="#h" transform="translate(-7 -7)" width="24" height="24"/>
  <path d="M8.5 16H14V6.5H8.5V16z" opacity=".2" fill-rule="evenodd"/>
  <use xlink:href="#i" transform="translate(-7 -7)" width="24" height="24"/>
  <path d="M10 23h11V12l-3-4h-8v15z" id="f" fill="url(#j)" fill-rule="evenodd"/>
  <path id="g" d="M18 8l-1 4 4-1-3-3z" fill-rule="evenodd" opacity=".25"/>
  <path d="M18 8v3h3l-3-3z" id="i" fill="#fff" fill-rule="evenodd"/>
  <path d="M18 11v4h3v-4h-3z" id="h" opacity=".3" fill="url(#k)" fill-rule="evenodd"/>
</svg>
