<svg xmlns="http://www.w3.org/2000/svg" xmlns:xlink="http://www.w3.org/1999/xlink" width="24" height="24" version="1">
  <defs>
    <linearGradient id="e">
      <stop offset="0" stop-color="#003878"/>
      <stop offset="1" stop-color="#3b9bde"/>
    </linearGradient>
    <linearGradient id="d">
      <stop offset="0" stop-color="#b4b4b4"/>
      <stop offset="1" stop-color="#fff"/>
    </linearGradient>
    <linearGradient id="b">
      <stop offset="0" stop-color="#8addff"/>
      <stop offset="1" stop-color="#8addff" stop-opacity="0"/>
    </linearGradient>
    <linearGradient id="a">
      <stop offset="0" stop-color="#fff"/>
      <stop offset="1" stop-color="#434343"/>
    </linearGradient>
    <linearGradient id="c">
      <stop offset="0" stop-color="#787878"/>
      <stop offset="1" stop-color="#e6e6e6"/>
    </linearGradient>
    <linearGradient xlink:href="#a" id="k" x1="10.912" y1="8.8" x2="11.134" y2="9.331" gradientUnits="userSpaceOnUse"/>
    <linearGradient xlink:href="#b" id="o" x1="8.336" y1="19.25" x2="10.843" y2="19.25" gradientUnits="userSpaceOnUse" gradientTransform="matrix(-1.0821 0 0 1 25.925 0)"/>
    <linearGradient xlink:href="#b" id="p" gradientUnits="userSpaceOnUse" x1="18.338" y1="13.507" x2="21.877" y2="15.158" gradientTransform="matrix(-.64165 -.6051 -.64795 .607 28.175 19.744)"/>
    <linearGradient xlink:href="#c" id="f" x1="10.748" x2="11.013" y2="7.765" gradientUnits="userSpaceOnUse" spreadMethod="reflect" gradientTransform="matrix(-1 0 0 1 25.285 0)"/>
    <linearGradient xlink:href="#d" id="g" x1="15.964" y1="7.152" x2="10.549" y2="7.152" gradientUnits="userSpaceOnUse" spreadMethod="reflect" gradientTransform="matrix(-1 0 0 1 25.706 1.266)"/>
    <linearGradient xlink:href="#e" id="h" x1="19.667" y1="15.239" x2="19.667" y2="9.004" gradientUnits="userSpaceOnUse"/>
    <linearGradient xlink:href="#e" id="i" gradientUnits="userSpaceOnUse" x1="19.667" y1="15.239" x2="19.667" y2="9.004"/>
    <linearGradient xlink:href="#e" id="j" gradientUnits="userSpaceOnUse" x1="19.667" y1="15.239" x2="19.667" y2="9.004"/>
    <linearGradient xlink:href="#e" id="l" x1="10.563" y1="23.764" x2="12.097" y2="13.363" gradientUnits="userSpaceOnUse"/>
    <linearGradient xlink:href="#e" id="m" gradientUnits="userSpaceOnUse" x1="10.563" y1="23.764" x2="12.097" y2="13.363"/>
    <linearGradient xlink:href="#e" id="n" gradientUnits="userSpaceOnUse" x1="10.563" y1="23.764" x2="12.097" y2="13.363"/>
  </defs>
  <path d="M14.5 12l.785 3h-2.5c-.176-1-1.26-2-1.285-3l1-9.5C12.5 1.5 14 0 15 0l-.5 12z" fill="#646464" fill-rule="evenodd"/>
  <path d="M20.572 3.356l-5 8.66c-1 1.732-3.79 1.565-4.598 1.964l-1.232-1.866s3.031-.508 3.415-.915c1.506-2.453 6.299-7.91 7.415-7.843z" fill="none" stroke="#787878" stroke-width=".5"/>
  <path d="M15 12l.785 3h-2.5c-.176-1-1.26-2-1.285-3l1-9.5c0-1 1-2.5 2-2.5v12z" fill="url(#f)" fill-rule="evenodd"/>
  <path d="M20.572 3.106l-5 8.66c-1 1.732-3.79 1.565-4.598 1.964l-1.665-2.116s3.281-.941 3.665-1.348c1.506-2.453 6.482-7.227 7.598-7.16z" fill="url(#g)" fill-rule="evenodd"/>
  <g transform="matrix(-1.01856 .22843 .31145 .99631 22.947 -1.123)" fill="url(#h)" fill-rule="evenodd">
    <path d="M17.823 10.345c-.83 1.438-.062 3.389 1.594 4.345 1.655.956 3.729.645 4.559-.793.83-1.437.062-3.388-1.594-4.344-1.655-.956-3.729-.646-4.559.792zm1.39.802c.411-.713 1.48-.916 2.454-.354.973.562 1.331 1.589.92 2.302-.412.714-1.48.917-2.455.355-.973-.562-1.331-1.59-.92-2.303z" style="marker:none" fill="url(#i)" overflow="visible"/>
    <path d="M18.115 13.491c-1.22-1.43-1.82-1.562-3.093-1.988l.685-2.32c1.127.287 2.01.817 3.182.176l-.774 4.132z" fill="url(#j)"/>
  </g>
  <path d="M20.572 3.106l-.375.65c-1.332-.486-4.136 3.02-6.199 6.236l-1.024.274c1.506-2.453 5.506-8.368 7.598-7.16z" fill="#646464" fill-rule="evenodd"/>
  <path style="marker:none" d="M11.5 9a.5.5 0 1 1-1 0 .5.5 0 1 1 1 0z" transform="matrix(-2 0 0 2 35.71 -6.443)" fill="url(#k)" fill-rule="evenodd" overflow="visible"/>
  <g transform="matrix(-1.04522 .25882 .28007 .96593 20.367 -1.924)" fill="url(#l)" fill-rule="evenodd">
    <path d="M9.344 14.5c-.77.206-1.482.838-1.75 1.75s-.19 2.069.218 3.594c.41 1.525.906 2.532 1.594 3.187.688.656 1.606.863 2.375.657.77-.207 1.482-.839 1.75-1.75.268-.912.19-2.07-.219-3.594-.408-1.525-.905-2.532-1.593-3.188-.688-.655-1.606-.862-2.375-.656zm.375 1.438c.354-.095.565-.074.937.28.372.355.851 1.16 1.219 2.532.368 1.373.364 2.257.219 2.75-.145.493-.334.624-.688.719-.354.095-.596.073-.969-.282-.372-.354-.82-1.127-1.187-2.5-.368-1.372-.364-2.288-.219-2.78.145-.494.334-.625.688-.72z" style="marker:none" fill="url(#m)" overflow="visible"/>
    <path d="M8.272 14.01c.096.537-.024.837-.337 1.643l3.752-.487c-.744-.542-1.076-1.127-1-1.803l-2.415.647z" style="marker:none" fill="url(#n)" overflow="visible"/>
  </g>
  <path style="marker:none" d="M14.408 23c1.259 0 2.28-1 2.28-4s-1.021-3.5-2.28-3.5" fill="none" stroke="url(#o)" stroke-width=".5" stroke-linecap="square" stroke-linejoin="round" overflow="visible"/>
  <path style="marker:none" d="M3.38 14.024c-1.073 1.005-1.153 2.566-.18 3.485.975.918 2.636.848 3.709-.157 1.073-1.006 1.153-2.567.18-3.485-.975-.919-2.636-.849-3.71.157z" fill="none" stroke="url(#p)" stroke-width=".5" stroke-linecap="square" stroke-linejoin="round" overflow="visible"/>
</svg>
