<svg xmlns="http://www.w3.org/2000/svg" xmlns:xlink="http://www.w3.org/1999/xlink" width="32" height="32" version="1">
  <defs>
    <linearGradient id="e">
      <stop offset="0" stop-color="#fff"/>
      <stop offset="1" stop-color="#fff" stop-opacity=".8"/>
    </linearGradient>
    <linearGradient id="d">
      <stop offset="0" stop-color="#fff" stop-opacity="0"/>
      <stop offset=".208" stop-color="#e4975f"/>
      <stop offset="1" stop-color="#ffffeb"/>
    </linearGradient>
    <linearGradient id="c">
      <stop offset="0" stop-color="#b73811"/>
      <stop offset="1" stop-color="#db5b15"/>
    </linearGradient>
    <linearGradient id="b">
      <stop offset="0" stop-color="#d72f19"/>
      <stop offset="1" stop-color="#ff7d55"/>
    </linearGradient>
    <linearGradient id="a">
      <stop offset="0" stop-color="#fff"/>
      <stop offset=".4" stop-color="#ffdf91" stop-opacity=".498"/>
      <stop offset="1" stop-color="#ff3d01" stop-opacity="0"/>
    </linearGradient>
    <linearGradient xlink:href="#c" id="f" x1="16" y1="30" x2="16" y2="14" gradientUnits="userSpaceOnUse"/>
    <linearGradient xlink:href="#d" id="g" gradientUnits="userSpaceOnUse" x1="18.143" y1="13.321" x2="17.607" y2="1" gradientTransform="matrix(.93333 0 0 .93333 2.067 2.067)"/>
    <linearGradient xlink:href="#e" id="h" x1="15" y1="15" x2="17" y2="18.5" gradientUnits="userSpaceOnUse"/>
  </defs>
  <g fill-rule="evenodd">
    <rect style="marker:none" width="32" height="32" rx="3" fill="url(#f)" overflow="visible"/>
    <rect rx="2" y="1" x="1" height="30" width="30" style="marker:none" opacity=".774" fill="url(#g)" overflow="visible"/>
    <path d="M14.063 22.438c0 2.76-2.24 5-5 5s-5-2.24-5-5 2.24-5 5-5 5 2.24 5 5zm-1-19c-3.496 0-6.7 1.243-9.25 3.25a16.051 16.051 0 0 1 6.25-1.25c8.831 0 16 7.168 16 16 0 2.207-.44 4.335-1.25 6.25 2.006-2.552 3.25-5.755 3.25-9.25 0-8.28-6.72-15-15-15zm-1.5 7c-2.767 0-5.201 1.236-6.938 3.124 1.082-.377 2.228-.624 3.438-.624 5.795 0 10.5 4.704 10.5 10.5 0 1.21-.248 2.355-.625 3.437 1.888-1.737 3.125-4.171 3.125-6.938 0-5.244-4.256-9.5-9.5-9.5z" style="marker:none" opacity=".2" fill="#641700" stroke="#781b00" stroke-linecap="round" stroke-linejoin="round" overflow="visible"/>
    <path style="marker:none" d="M14.063 22.938c0 2.76-2.24 5-5 5s-5-2.24-5-5 2.24-5 5-5 5 2.24 5 5zm-1-19c-3.496 0-6.7 1.243-9.25 3.25a16.051 16.051 0 0 1 6.25-1.25c8.831 0 16 7.168 16 16 0 2.207-.44 4.335-1.25 6.25 2.006-2.552 3.25-5.755 3.25-9.25 0-8.28-6.72-15-15-15zm-1.5 7c-2.767 0-5.201 1.236-6.938 3.124 1.082-.377 2.228-.624 3.438-.624 5.795 0 10.5 4.704 10.5 10.5 0 1.21-.248 2.355-.625 3.437 1.888-1.737 3.125-4.171 3.125-6.938 0-5.244-4.256-9.5-9.5-9.5z" fill="url(#h)" overflow="visible"/>
  </g>
</svg>
