<svg xmlns="http://www.w3.org/2000/svg" xmlns:xlink="http://www.w3.org/1999/xlink" width="16" height="16" version="1">
  <defs>
    <linearGradient id="c">
      <stop offset="0" stop-color="#dac769"/>
      <stop offset="1" stop-color="#f2edb2"/>
    </linearGradient>
    <linearGradient id="d">
      <stop offset="0" stop-color="#b79f2f"/>
      <stop offset="1" stop-color="#e0d988"/>
    </linearGradient>
    <linearGradient id="b">
      <stop offset="0" stop-color="#fff" stop-opacity=".8"/>
      <stop offset="1" stop-color="#fff" stop-opacity=".4"/>
    </linearGradient>
    <linearGradient id="a">
      <stop offset="0" stop-color="#fff"/>
      <stop offset=".249" stop-color="#ffffb9"/>
      <stop offset="1" stop-color="#d0bb48"/>
    </linearGradient>
    <linearGradient xlink:href="#a" id="e" x1="2" y1="4" x2="4.5" y2="15" gradientUnits="userSpaceOnUse" gradientTransform="translate(1 -1)"/>
    <linearGradient xlink:href="#b" id="f" x1="8" y1="3.5" x2="8" y2="14.5" gradientUnits="userSpaceOnUse"/>
  </defs>
  <path d="M2 2v12l4 1c.485.121 1-.5 1-1.094V11.5l1-.969V4c0-.5-.514-.903-1-1L2 2z" fill="url(#e)" fill-rule="evenodd"/>
  <path d="M6.5 14v-2.75l1-.969V4" fill="none" stroke="url(#f)" stroke-linecap="round" stroke-linejoin="round"/>
  <path d="M8.515 12.735v-1.242l.5-.499.498-.498V6.618l.001-3.878-3.538-.353a298.086 298.086 0 0 1-3.552-.366c-.008-.006 2.041-.012 4.552-.012 3.15 0 4.593.01 4.654.033a.7.7 0 0 1 .31.286c.06.117.066 3.243.004 3.245-.021 0-.285.034-.586.075l-.546.073.585.003.586.004V7.31l-.507.064-.508.064.508.005.507.004v1.706l-.507.065-.508.064.505.004.505.004.01.696.011.695.086.112.086.112-.617.08-.617.079 1.023.004 1.023.004v1.252c0 1.322.002 1.311-.152 1.477-.17.184-.074.177-2.284.177H8.515v-1.243z" stroke="#000" stroke-width=".182"/>
  <path d="M4.03 14.505c-1.1-.276-2.005-.507-2.012-.514-.014-.013-.01-11.955.004-11.968.015-.015.352.059.368.08a.74.74 0 0 0 .218.044c.112.013 1.174.219 2.36.458 1.919.387 2.18.447 2.375.543.214.105.45.308.464.398a.413.413 0 0 0 .075.132.503.503 0 0 1 .086.186c.01.054.014.752.009 1.551l-.01 1.454-.296.02c-.163.012-.374.04-.469.064l-.172.042-.002.765c-.003 1.116-.025 2.363-.037 2.1a2.021 2.021 0 0 0-.017-.226l-1.428.326-1.422.326 1.326.002 1.325.002-.31.293c-.17.16-.33.329-.354.374-.024.045-.055.074-.07.065-.015-.01-.388.065-.829.165l-.801.182.786.008.786.008v.387c0 .281-.01.39-.039.4-.021.008-.347.083-.724.168l-.686.154.725.008.724.008v.807l-.367.084-.664.156-.297.071.66.003.66.003.016.245c.02.28.073.407.219.515a.486.486 0 0 0 .64-.048c.086-.081.09-.058.012.094-.088.172-.307.407-.445.477-.241.123-.26.12-2.387-.412zm2.922-5.668c0-.18-.012-.328-.028-.328-.032 0-2.784.622-2.831.64-.017.006.619.013 1.414.014l1.445.002v-.328zm.031-1.14c0-.25-.01-.344-.038-.344-.039 0-2.92.649-2.977.67-.017.007.654.014 1.492.015l1.523.002v-.343zm.032-1.063c0-.146-.013-.25-.032-.25-.017 0-.03-.042-.03-.094 0-.057-.017-.093-.043-.093-.042 0-2.915.647-2.973.67-.018.007.668.013 1.523.015l1.555.002v-.25zm-.032-1.236c0-.33-.004-.36-.054-.346-.03.009-.716.165-1.524.347-.807.182-1.482.337-1.5.343-.017.007.669.013 1.524.015l1.554.002v-.361zm.001-1.162c0-.133.013-.295.028-.36.02-.083.017-.116-.008-.115-.02 0-.732.161-1.583.357l-1.547.355 1.555.003 1.554.002.001-.242z" stroke="#000" stroke-width=".182"/>
  <path d="M5.796 15.008a92.7 92.7 0 0 1-2.066-.503l-1.768-.444-.023-2.53a489.278 489.278 0 0 1 0-6.058l.023-3.526h.066c.037 0 .14.019.23.042.137.036.163.036.163 0 0-.035.746-.042 4.555-.042 2.97 0 4.594.011 4.668.032a.607.607 0 0 1 .24.168c.104.114.128.164.143.304.026.244.034 1.665.026 4.293-.004 1.271.002 2.674.013 3.117l.021.805.112.155c.109.15.118.155.269.156.086 0 .251.01.367.021l.21.02v1.253c0 .754-.012 1.297-.031 1.363a.63.63 0 0 1-.267.332c-.084.056-.197.06-2.192.068l-2.103.009V11.42l.48-.464.482-.463.02-3.836.02-3.835-.071-.015c-.04-.008-.521-.058-1.071-.112a1518 1518 0 0 1-4.813-.483c-.086-.009.561.13 1.438.308 1.829.372 2.22.462 2.437.563.223.104.43.301.56.532l.112.2v3.117l-.383.04c-.21.023-.421.049-.469.058l-.086.017v.738c0 .407-.009 1.045-.02 1.418l-.02.68h-.072c-.05 0-.074-.02-.08-.07-.009-.058-.027-.069-.104-.06a.266.266 0 0 0-.123.038c-.017.016.017.015.078-.002.058-.017.11-.03.115-.03.004 0 .008.034.008.077 0 .047.018.078.045.078.024 0 .05.039.057.086l.013.086.005-.086c.003-.053.022-.086.052-.086.038 0 .046-.059.046-.343 0-.33.003-.344.07-.359l.41-.094a6.3 6.3 0 0 1 .367-.079c.016 0 .028.29.028.675 0 .559-.008.694-.05.782-.028.06-.253.3-.5.533l-.45.426v.633l-.257.052c-.58.117-.571.11-.141.114l.398.004V13.382l-.117.03a9.572 9.572 0 0 1-.18.044c-.034.008.019.016.118.018l.18.004v.31c0 .348-.014.409-.094.409a.141.141 0 0 0-.094.047c-.025.03-.027.046-.006.046a.07.07 0 0 0 .053-.03c.026-.043.172-.04.172.003 0 .019-.045.118-.1.22-.17.321-.53.596-.763.586a4.983 4.983 0 0 1-.356-.061zm.727-.613a.12.12 0 0 0-.079 0c-.021.008-.004.015.04.015.042 0 .06-.007.039-.015zm.21-.075c0-.018-.014-.025-.03-.014-.018.01-.032.026-.032.033 0 .008.014.014.031.014s.031-.015.031-.033zm-.634-.46c-.008-.03-.014.002-.014.071 0 .069.007.093.014.054a.342.342 0 0 0 0-.125zm-.05-.314c-.043-.014-.045-.13-.003-.13.02 0 .031-.188.031-.5 0-.347-.01-.5-.035-.5-.023 0-.027-.034-.011-.102.04-.173.053-1.024.017-1.024-.047 0-.041-.147.006-.17.067-.031-.198.01-.54.084l-.327.07.343.02.43.024.086.004v.414c0 .227-.014.435-.03.46-.017.026-.18.084-.367.13l-.337.082.175.004c.096.002.261.012.367.024l.192.02v.463c0 .455-.001.464-.07.48-.559.13-.573.135-.442.138.07.002.214.012.32.024.188.02.192.021.197.117.005.096.005.096.018-.012.007-.061-.001-.113-.02-.12zm.184-2.554c0-.008-.014-.014-.03-.014-.018 0-.032.015-.032.033 0 .018.014.024.031.014s.031-.026.031-.033zm.768-.788c-.019-.019-.205.155-.205.191 0 .018.049-.015.109-.073.06-.058.103-.111.096-.118zm-1.978-.028a.12.12 0 0 0-.079 0c-.021.009-.004.016.04.016.042 0 .06-.007.039-.016zm.289-.055c.086-.024.135-.045.109-.046a1.076 1.076 0 0 0-.203.041c-.086.024-.135.045-.11.046.026.001.118-.017.204-.041zm.406-.094c.086-.024.135-.045.11-.046a1.075 1.075 0 0 0-.204.042c-.086.023-.135.044-.11.045.026.001.118-.017.204-.041zm.36-.08c.061-.02.064-.025.015-.025a.565.565 0 0 0-.14.025c-.063.02-.066.025-.016.025a.565.565 0 0 0 .14-.025zm.327-.076c.086-.024.135-.045.11-.046a1.075 1.075 0 0 0-.203.041c-.086.024-.136.045-.11.046.026.001.117-.017.203-.041zm-1.239-.834a.45.45 0 0 0-.218.001c-.057.023-.022.03.145.028.217-.001.218-.001.073-.03zm.161-.06c.062-.019.065-.024.016-.024a.565.565 0 0 0-.14.025c-.063.02-.066.025-.016.025a.565.565 0 0 0 .14-.025zm.328-.075c.086-.024.135-.045.11-.046a1.075 1.075 0 0 0-.203.042c-.086.023-.136.044-.11.045.026.001.117-.017.203-.041zm.36-.08c.062-.02.065-.025.015-.025a.565.565 0 0 0-.14.025c-.062.02-.065.025-.016.025a.565.565 0 0 0 .14-.025zm.28-.063c.063-.02.066-.025.017-.025a.565.565 0 0 0-.141.025c-.062.02-.065.025-.016.025a.565.565 0 0 0 .14-.025zm.33-.076c.085-.024.134-.044.108-.045a1.075 1.075 0 0 0-.203.04c-.086.025-.135.045-.11.046.027.002.118-.017.204-.04zm.233-.018c0-.034-.012-.062-.028-.062-.015 0-.02.028-.012.062.01.035.022.063.028.063.007 0 .012-.028.012-.063zm-1.747-.751a.98.98 0 0 0-.296.002c-.043.017.04.026.23.024l.298-.002-.232-.024zm1.801-.178c-.007-.047-.013-.016-.013.07 0 .086.005.125.013.086a.558.558 0 0 0 0-.156zm-1.71.117c.062-.02.065-.025.016-.025a.565.565 0 0 0-.14.025c-.063.02-.066.025-.016.025a.565.565 0 0 0 .14-.025zm.281-.063c.062-.02.066-.025.016-.025a.565.565 0 0 0-.14.025c-.062.02-.066.025-.016.025a.565.565 0 0 0 .14-.025zm.329-.076c.086-.023.135-.044.109-.045a1.075 1.075 0 0 0-.203.041c-.086.024-.135.045-.11.046.026.001.118-.018.204-.042zm.359-.08c.062-.02.065-.025.016-.025a.565.565 0 0 0-.141.025c-.062.02-.065.025-.016.025a.565.565 0 0 0 .14-.025zm.281-.062c.062-.02.065-.025.016-.025a.565.565 0 0 0-.14.025c-.063.02-.066.025-.016.025a.565.565 0 0 0 .14-.025zm.438-.063c0-.034-.013-.062-.029-.062-.015 0-.02.028-.012.062.01.035.022.063.029.063.006 0 .012-.028.012-.063zm-.188-.001c.034-.023.022-.026-.047-.011-.115.026-.14.044-.06.043a.227.227 0 0 0 .107-.032zm-1.608-.75a1.098 1.098 0 0 0-.312.002c-.04.017.054.026.248.024l.313-.002-.249-.024zm1.848-.1c-.009-.022-.016-.004-.016.039s.007.06.016.039a.12.12 0 0 0 0-.078zm-1.771.039c.062-.02.065-.025.016-.025a.565.565 0 0 0-.141.025c-.062.02-.065.025-.016.025a.565.565 0 0 0 .14-.025zm.469-.107c.163-.04.275-.075.25-.076-.026-.002-.18.03-.344.07-.163.041-.276.076-.25.077.026.001.18-.03.344-.071zm1.269-.135c-.01-.01-.018.008-.017.041.002.037.01.044.019.019.01-.023.008-.05-.002-.06zm-.77.023c.063-.02.066-.025.016-.025a.565.565 0 0 0-.14.025c-.062.02-.065.025-.016.025a.565.565 0 0 0 .14-.025zm.329-.077c.168-.056.102-.058-.094-.003-.086.023-.128.043-.094.043a.8.8 0 0 0 .188-.04zm.412-.1c-.024-.023-.24.024-.24.053 0 .046.233.05.245.004.005-.023.003-.048-.005-.056zm-1.772-.667c-.111-.011-.168-.024-.125-.03.043-.004.057-.014.032-.02a.644.644 0 0 0-.203.032l-.157.044.328-.003c.298-.002.31-.004.125-.023zm1.804-.21c-.007-.048-.013-.01-.013.085s.006.133.013.086a.69.69 0 0 0 0-.172zm-1.6.103c.086-.024.135-.045.109-.046a1.075 1.075 0 0 0-.203.042c-.086.023-.135.044-.11.045.026.001.118-.017.204-.041zm.546-.125c.164-.04.276-.075.25-.076-.025-.001-.18.03-.343.071-.164.04-.276.075-.25.076.025.002.18-.03.343-.07zm.47-.113c.033-.023.02-.026-.048-.01-.115.025-.14.043-.06.042a.227.227 0 0 0 .107-.032zm.465-.091c.025 0 .036-.01.026-.02-.022-.022-.37.05-.41.084-.016.014.055.005.156-.02.101-.023.204-.044.228-.044zm.086-.04c-.009-.022-.016-.004-.016.039s.007.06.016.039a.12.12 0 0 0 0-.078zm.035-1.033l.01-.274-.088.022c-.17.042-.243.068-.196.071a.619.619 0 0 0 .148-.026l.102-.03v.494l-.383.01-.383.01h.39l.391-.002.01-.275zm-2.056.228c.062-.02.066-.025.016-.025a.565.565 0 0 0-.14.025c-.062.02-.066.025-.016.025a.565.565 0 0 0 .14-.025zm.47-.107c.162-.04.275-.075.25-.076-.027-.001-.181.03-.345.071-.163.04-.275.075-.25.076.026.001.18-.03.344-.071zm.51-.114c.066-.019.115-.039.108-.045a.553.553 0 0 0-.167.03c-.085.024-.134.044-.108.045.026.002.1-.012.167-.03zm.482-.108c.142-.03.252-.062.245-.07-.02-.018-.493.088-.55.124-.042.026-.042.028 0 .016.025-.008.163-.04.305-.07z" stroke="#000" stroke-width=".182"/>
  <path d="M5.92 15.111c-.132-.024-1.047-.245-2.564-.62L1.9 14.13l-.02-.894c-.028-1.159-.028-8.394 0-10.062l.02-1.287 4.788-.003c2.634-.001 4.85.007 4.924.019.107.017.17.056.295.181.1.1.169.2.185.268.014.06.034 1.946.044 4.19l.02 4.08.087.127c.095.137.172.164.475.165.086 0 .21.01.274.02l.119.02-.01 1.365-.008 1.366-.084.126a.798.798 0 0 1-.203.201c-.134.083-.02.08-3.065.098l-1.351.008v-2.747l.472-.455.472-.455.013-2.687c.006-1.478.017-3.182.024-3.786l.012-1.098-.145-.019c-.08-.01-.989-.103-2.02-.206a244.887 244.887 0 0 1-1.982-.202c-.059-.008-.094-.004-.078.01.016.013.387.099.825.19.889.182 1.294.287 1.477.38.18.093.38.289.523.515l.125.199v3.251h-.101c-.063 0-.087.01-.062.026.03.02.038.233.031.96l-.008.934-.219.043c-.12.023-.23.054-.246.069-.015.014.09 0 .234-.033.198-.044.266-.049.284-.02.038.058.03 1.41-.008 1.511-.019.048-.244.298-.5.555l-.467.467v1.331c0 .91.01 1.343.034 1.366.05.05-.133.39-.31.58-.209.223-.419.337-.615.332a2.03 2.03 0 0 1-.234-.019zM7.402 9.07c.015-.014-.023-.013-.086 0l-.113.026V7.138l.086-.014c.082-.014.081-.014-.008-.01l-.093.005-.009 1.007-.008 1.007.102-.02a.372.372 0 0 0 .13-.043zm.486-2.018c.025-.022-.232-.008-.357.02-.092.02-.064.022.11.009.129-.01.24-.023.247-.029z" stroke="#000" stroke-width=".182"/>
</svg>
