<svg xmlns="http://www.w3.org/2000/svg" xmlns:xlink="http://www.w3.org/1999/xlink" width="16" height="16" version="1">
  <defs>
    <linearGradient id="c">
      <stop offset="0" stop-color="#dac769"/>
      <stop offset="1" stop-color="#f2edb2"/>
    </linearGradient>
    <linearGradient id="d">
      <stop offset="0" stop-color="#b79f2f"/>
      <stop offset="1" stop-color="#e0d988"/>
    </linearGradient>
    <linearGradient id="b">
      <stop offset="0" stop-color="#fff" stop-opacity=".8"/>
      <stop offset="1" stop-color="#fff" stop-opacity=".4"/>
    </linearGradient>
    <linearGradient id="a">
      <stop offset="0" stop-color="#fff"/>
      <stop offset=".249" stop-color="#ffffb9"/>
      <stop offset="1" stop-color="#d0bb48"/>
    </linearGradient>
    <linearGradient xlink:href="#a" id="e" x1="2" y1="4" x2="4.5" y2="15" gradientUnits="userSpaceOnUse" gradientTransform="translate(1 -1)"/>
    <linearGradient xlink:href="#b" id="f" x1="8" y1="3.5" x2="8" y2="14.5" gradientUnits="userSpaceOnUse"/>
  </defs>
  <path d="M2 2v12l4 1c.485.121 1-.5 1-1.094V11.5l1-.969V4c0-.5-.514-.903-1-1L2 2z" fill="url(#e)" fill-rule="evenodd"/>
  <path d="M6.5 14v-2.75l1-.969V4" fill="none" stroke="url(#f)" stroke-linecap="round" stroke-linejoin="round"/>
  <path d="M8.514 12.744v-1.262l.5-.476.5-.476-.008-3.896L9.5 2.738l-3.49-.348c-1.92-.192-3.509-.357-3.531-.366-.023-.01 2.027-.014 4.554-.011l4.597.005.117.09c.25.19.237.09.237 1.87V5.56l-.133.02-.57.076-.437.057.57.004.57.003V7.308l-.305.038c-.167.02-.438.055-.601.077l-.297.04.602.005.601.003V9.15l-.617.08-.617.079.614.003.615.004.01.682.01.683.088.114c.055.072.073.115.047.116-.022.001-.343.042-.712.09l-.672.09 1.117.003 1.117.003v2.48l-.078.132a.705.705 0 0 1-.195.206l-.117.073-2.04.009-2.039.009v-1.261z" fill="#fff" stroke="#fff" stroke-width=".182"/>
  <path d="M2.21 14.04l-.196-.048-.003-1.05c-.013-3.398.008-9.142.033-9.157.016-.009.926-.22 2.023-.468 1.097-.248 1.998-.46 2.003-.472.018-.042 1.052.19 1.242.278.282.132.609.451.609.594 0 .036-.013.03-.05-.02-.117-.168-.42-.223-.61-.112-.177.104-.245.264-.246.579v.27l.195-.016c.107-.008.274-.035.371-.06.097-.023.227-.043.29-.043h.112v4.716l-.117.019c-.065.01-.214.039-.332.064a2.219 2.219 0 0 1-.367.045c-.124 0-.153.01-.155.055-.001.03-.004.237-.005.46-.002.241-.008.314-.015.18l-.012-.227-.084.022c-.047.012-.528.123-1.07.248l-.983.226 1.046.003 1.047.004-.43.417c-.236.23-.43.435-.43.454 0 .02-.012.029-.027.02-.015-.01-.265.037-.555.105l-.526.122.508.002.509.003-.009.459-.008.46-.5.11-.5.111.508.009.507.008v.45c0 .402-.006.453-.055.468-.196.06-3.378.768-3.442.765a1.998 1.998 0 0 1-.276-.052zm4.773-5.272c0-.146-.012-.265-.028-.265-.034 0-2.225.496-2.269.513-.017.007.493.014 1.133.015l1.164.003v-.266zm0-1.125c0-.163-.01-.297-.023-.297-.028 0-2.51.561-2.555.578-.017.006.556.012 1.273.014l1.305.002v-.297zm.019-1.147a2.662 2.662 0 0 0-.032-.298c-.01-.01-2.47.542-2.534.568-.017.007.558.014 1.278.015l1.31.003-.022-.288zm-.019-1.134c0-.163-.003-.297-.008-.296l-1.289.294-1.281.294 1.29.003 1.288.002v-.297z" fill="#fff" stroke="#fff" stroke-width=".182"/>
  <path d="M4.35 14.585c-.907-.228-1.64-.424-1.629-.435.011-.011-.05-.012-.136-.002-.099.012-.245 0-.393-.034l-.236-.052-.023-.178c-.036-.287.012-10.145.05-10.157.02-.007.031-.306.031-.856v-.845l.118.02c.382.064.351.066.351-.024V1.94h9.175l.132.097c.213.156.233.221.26.84.013.301.024 2.167.023 4.147l-.001 3.6.084.143c.067.115.076.152.046.189-.032.039.022.046.404.054l.442.008-.002 1.308-.002 1.308-.095.138a.933.933 0 0 1-.21.214l-.115.075-2.086.01-2.086.01.001-1.328.001-1.328.483-.454.483-.453v-7.7l-.1-.017c-.057-.009-.75-.08-1.54-.158s-2.258-.226-3.262-.33a64.681 64.681 0 0 0-1.836-.176c-.007.007.708.157 1.59.333 1.126.225 1.639.315 1.727.303.251-.034 1.184.192 1.47.356.279.159.545.474.514.608a2.461 2.461 0 0 0-.002.248c.003.153.018.226.053.25.042.032.045.3.025 2.448-.02 2.169-.028 2.414-.073 2.428a8.936 8.936 0 0 1-.714.127c-.157.02-.164.025-.164.115 0 .083.008.092.07.073.04-.011.22-.032.403-.046.182-.014.347-.035.367-.047.026-.016.035.123.035.515 0 .428-.01.557-.05.642-.028.058-.253.302-.5.542l-.45.436v.842l-.217.05c-.12.027-.252.049-.294.049-.043 0-.147.016-.232.036l-.154.035-.021.424c-.022.428-.044.505-.146.505-.032 0-.066.014-.076.031-.011.018.014.031.057.031.075 0 .076.005.088.32.014.365.081.532.256.635.144.086.397.08.522-.013.053-.04.105-.064.114-.055.025.025-.126.272-.23.376-.164.166-.307.24-.484.253-.137.01-.468-.063-1.816-.402zm-1.484-.478a.12.12 0 0 0-.078 0c-.022.009-.004.016.039.016s.06-.007.039-.016zm.156-.031a.12.12 0 0 0-.078 0c-.021.008-.004.015.04.015.042 0 .06-.007.038-.015zm.123-.032c-.022-.01-.05-.008-.06.002-.01.01.008.018.041.017.037-.002.044-.01.02-.02zm.158-.03a.12.12 0 0 0-.078 0c-.021.008-.004.015.04.015.042 0 .06-.007.038-.016zm.157-.032a.12.12 0 0 0-.078 0c-.022.009-.004.016.039.016s.06-.007.039-.016zm.123-.032c-.023-.009-.05-.008-.06.003-.01.01.008.017.04.016.037-.002.045-.009.02-.019zm.158-.03a.12.12 0 0 0-.078 0c-.022.008-.004.015.039.015s.06-.007.039-.016zm.156-.032a.12.12 0 0 0-.078 0c-.021.009-.004.016.04.016.042 0 .06-.007.038-.016zm.123-.032c-.022-.009-.05-.008-.06.003-.01.01.008.018.041.016.037-.001.044-.009.02-.019zm.158-.03a.12.12 0 0 0-.078 0c-.021.008-.004.015.04.015.042 0 .06-.007.038-.015zm.123-.032c-.022-.01-.049-.008-.06.002-.01.01.009.018.042.017.036-.002.043-.01.018-.02zm.159-.03a.12.12 0 0 0-.078 0c-.022.008-.004.015.039.015s.06-.007.039-.016zm.123-.033c-.023-.009-.05-.008-.06.003-.01.01.008.018.04.016.037-.001.045-.009.02-.019zm.125-.03c-.023-.01-.05-.009-.06.002-.01.01.008.017.04.016.037-.002.045-.009.02-.019zm.158-.032a.12.12 0 0 0-.078 0c-.022.01-.004.016.039.016s.06-.007.039-.016zm.123-.031c-.023-.01-.05-.008-.06.002-.01.01.008.018.041.016.037-.001.044-.008.019-.018zm.125-.032c-.023-.009-.05-.008-.06.003-.01.01.008.018.041.016.037-.001.044-.009.019-.019zm.158-.03a.12.12 0 0 0-.078 0c-.021.008-.004.015.04.015.042 0 .06-.007.038-.015zm.123-.032c-.022-.01-.05-.008-.06.002-.01.01.008.018.041.017.037-.002.044-.01.02-.02zm.125-.031c-.022-.01-.05-.008-.06.002-.01.01.008.018.041.016.037-.001.044-.008.02-.018zm.158-.031a.12.12 0 0 0-.078 0c-.021.009-.004.016.04.016.042 0 .06-.007.038-.016zm.39-1.722c-.006-.081-.011-.014-.011.149s.005.23.012.148a2.283 2.283 0 0 0 0-.297zm-.093-.623a.179.179 0 0 0-.094.001c-.021.01.004.016.055.015.052 0 .07-.008.039-.016zm1.07-.962a.71.71 0 0 0 .123-.141c-.009 0-.078.063-.154.14a.71.71 0 0 0-.122.141c.009 0 .078-.063.154-.14zm-.033-.18c.02-.056.014-.072-.033-.08-.037-.007-.058-.036-.058-.081 0-.04-.008-.078-.016-.087-.022-.021-.68.13-.717.166-.017.016.144.027.383.027.337 0 .412.008.412.045 0 .025-.038.05-.086.058l-.086.013.087.005c.064.003.094-.014.114-.066zm-1.271.018a.12.12 0 0 0-.078 0c-.022.009-.004.016.039.016s.06-.007.039-.016zm.123-.032c-.023-.009-.05-.008-.06.003-.01.01.008.018.041.016.037-.001.044-.009.019-.019zm.125-.03c-.023-.01-.05-.009-.06.002-.01.01.008.017.041.016.037-.002.044-.009.019-.019zm.125-.032c-.023-.01-.05-.008-.06.002-.01.01.008.018.041.017.037-.002.044-.01.019-.02zm.984-.159c-.007-.03-.014-.005-.014.055s.007.085.014.055a.257.257 0 0 0 0-.11zM5.551 8.92c-.022-.01-.049-.008-.06.002-.01.01.009.018.042.017.036-.002.043-.01.018-.02zm.125-.031c-.022-.01-.049-.008-.06.002-.01.01.009.018.042.016.036-.001.043-.008.018-.018zm.125-.032c-.022-.009-.049-.008-.06.003-.01.01.009.018.042.016.036-.001.043-.009.018-.019zm.282-.062c-.023-.01-.05-.008-.06.002-.01.01.008.018.04.017.037-.002.045-.01.02-.02zm.281-.063c-.023-.009-.05-.008-.06.003-.01.01.008.018.041.016.037-.001.044-.009.019-.019zm.125-.03c-.023-.01-.05-.009-.06.002-.01.01.008.017.041.016.037-.002.044-.009.019-.019zm.281-.063c-.022-.01-.05-.008-.06.002-.01.01.008.018.041.016.037-.001.044-.008.02-.018zm-1.5-.813c-.022-.009-.05-.008-.06.003-.01.01.008.017.041.016.037-.002.044-.009.02-.019zm.125-.031c-.022-.01-.05-.008-.06.002-.01.01.008.018.041.017.037-.002.044-.01.02-.02zm.281-.063c-.022-.009-.049-.008-.06.003-.01.01.009.018.042.016.036-.001.043-.009.018-.019zm.125-.03c-.022-.01-.049-.009-.06.002-.01.01.009.017.042.016.036-.002.043-.009.018-.019zm.282-.063c-.023-.01-.05-.008-.06.002-.01.01.008.018.04.016.037-.001.045-.008.02-.018zm.281-.063c-.023-.009-.05-.008-.06.003-.01.01.008.017.041.016.037-.002.044-.009.019-.019zm.406-.094c-.022-.009-.05-.008-.06.003-.01.01.008.018.041.016.037-.001.044-.009.02-.019zm.14-1.08c-.009-.021-.016-.004-.016.04 0 .042.007.06.016.038a.12.12 0 0 0 0-.078zm-.044-1.2a.12.12 0 0 0-.078 0c-.022.008-.004.015.039.015s.06-.007.039-.015z" fill="#fff" stroke="#fff" stroke-width=".182"/>
  <path d="M5.655 14.984c-.258-.06-1.656-.411-2.594-.65l-.203-.059a2.065 2.065 0 0 0-.422-.058 1.668 1.668 0 0 1-.312-.03 1.266 1.266 0 0 0-.145-.041.13.13 0 0 1-.101-.088c-.035-.128-.022-7.427.017-9.8l.038-2.323.142.02c.078.01.18.026.226.035.07.014.085.004.094-.056l.01-.072 4.621-.008c4.524-.008 4.623-.007 4.719.053.165.102.295.26.336.408.03.108.041 1.077.048 4.188l.01 4.047.082.176c.097.206.118.213.619.214h.31l-.02 1.362c-.023 1.54-.007 1.447-.288 1.695l-.138.12-.756.021c-.416.012-1.387.02-2.157.02H8.389v-2.774l.47-.445.468-.445V6.686c0-2.095-.005-3.808-.01-3.808l-2.474-.25c-1.356-.137-2.47-.244-2.477-.237-.03.03 1.277.268 1.648.3.505.042 1.156.2 1.452.35.146.075.474.38.535.497.024.046.05.2.057.344.008.144.032.31.053.368.05.139.017 4.641-.034 4.822-.03.1-.049.118-.15.136-.272.048-.333.072-.136.054.15-.014.205-.008.226.025.039.061.036 1.1-.004 1.203-.017.047-.242.298-.5.559l-.467.473v.428c0 .264-.012.428-.032.428s-.03.228-.03.622v.623l-.165.034c-.09.018-.2.038-.242.045-.043.006.03.013.164.015l.242.004v.186c0 .203-.036.333-.1.354-.022.008-.008.009.03.002.064-.01.07-.002.052.075-.054.23-.308.542-.53.648-.185.088-.394.088-.78-.002zm.883-.597a.255.255 0 0 0-.11 0c-.03.008-.005.015.055.015s.085-.007.055-.015zm-.18-.022c0-.006-.022-.02-.048-.03-.028-.011-.04-.006-.03.012.019.03.078.044.078.018zm-.231-.291c-.01-.01-.018.008-.016.04.001.037.009.044.018.02.01-.023.008-.05-.002-.06zm-.029-.22c-.007-.03-.014.002-.013.07 0 .07.007.094.014.055a.342.342 0 0 0 0-.125zm-.032-.328c-.008-.022-.015.003-.014.055 0 .051.007.069.015.038a.179.179 0 0 0 0-.093zm.095-.687c-.007-.039-.013-.007-.013.07 0 .077.006.109.013.07a.445.445 0 0 0 0-.14zm.236-.326a.12.12 0 0 0-.078 0c-.021.009-.004.016.04.016.042 0 .06-.007.038-.016zm.186-.032c-.023-.009-.05-.008-.06.003-.01.01.008.018.04.016.037-.001.045-.009.02-.019zm.187-.03c-.022-.01-.05-.009-.06.002-.01.01.008.017.041.016.037-.002.044-.009.02-.019z" fill="#fff" stroke="#fff" stroke-width=".182"/>
</svg>
