<svg xmlns="http://www.w3.org/2000/svg" xmlns:xlink="http://www.w3.org/1999/xlink" width="32" height="32" version="1">
  <defs>
    <linearGradient id="c">
      <stop offset="0" stop-color="#fff"/>
      <stop offset=".222" stop-color="#fff"/>
      <stop offset=".312" stop-color="#daffb9"/>
      <stop offset=".522" stop-color="#0c806b"/>
      <stop offset="1" stop-color="#91d2ff"/>
    </linearGradient>
    <linearGradient id="b">
      <stop offset="0" stop-color="#b1d6ff"/>
      <stop offset=".5" stop-color="#2d77ff" stop-opacity=".541"/>
      <stop offset="1" stop-color="#057bff" stop-opacity="0"/>
    </linearGradient>
    <linearGradient id="a">
      <stop offset="0" stop-color="#b9fdff"/>
      <stop offset=".271" stop-color="#69d3ff"/>
      <stop offset=".6" stop-color="#29449f"/>
      <stop offset="1" stop-color="#0d1b36"/>
    </linearGradient>
    <radialGradient xlink:href="#a" id="d" cx="12.811" cy="9.498" fx="12.811" fy="9.498" r="16" gradientUnits="userSpaceOnUse" gradientTransform="translate(-3.553 -3.16) scale(1.29712)"/>
    <linearGradient xlink:href="#b" id="e" x1="19.067" y1="32" x2="16.92" y2="20.212" gradientUnits="userSpaceOnUse"/>
    <mask maskUnits="userSpaceOnUse" id="h">
      <path d="M32 16a16 16 0 1 1-32 0 16 16 0 1 1 32 0z" style="marker:none" color="#000" fill="#fff" fill-rule="evenodd" stroke-width=".75" stroke-linecap="round" stroke-linejoin="round" overflow="visible"/>
    </mask>
    <mask maskUnits="userSpaceOnUse" id="f">
      <path d="M32 16a16 16 0 1 1-32 0 16 16 0 1 1 32 0z" style="marker:none" color="#000" fill="#fff" fill-rule="evenodd" stroke-width=".75" stroke-linecap="round" stroke-linejoin="round" overflow="visible"/>
    </mask>
    <radialGradient xlink:href="#c" id="g" gradientUnits="userSpaceOnUse" gradientTransform="matrix(1.48491 0 0 1.33687 -6.325 -1.969)" cx="13.043" cy="10.294" fx="13.043" fy="10.294" r="16.785"/>
    <radialGradient xlink:href="#c" id="j" gradientUnits="userSpaceOnUse" gradientTransform="matrix(1.86 -.49839 .4487 1.67456 -16.287 4.048)" cx="12.475" cy="8.87" fx="12.475" fy="8.87" r="16.785"/>
    <radialGradient xlink:href="#c" id="i" gradientUnits="userSpaceOnUse" gradientTransform="matrix(1.48491 0 0 1.33687 -6.325 -1.969)" cx="13.043" cy="10.294" fx="13.043" fy="10.294" r="16.785"/>
  </defs>
  <g color="#000" fill-rule="evenodd">
    <path style="marker:none" d="M32 16a16 16 0 1 1-32 0 16 16 0 1 1 32 0z" fill="url(#d)" overflow="visible"/>
    <path d="M32 16A16 16 0 1 1 .252 13.17L16 16z" style="marker:none" fill="url(#e)" overflow="visible"/>
  </g>
  <g fill-rule="evenodd">
    <path d="M9.953 30.83C8.27 33.28-3.557 20.309-.167 15.764c.353.075 1.119.123 1.61 0 .351-.088.563.047.747.23.26.26.538.718.69.92.226.302.888-.472 1.093-.575.35-.174.172-.46.172-.805 0-.155.872.146.978.173.281.07.442.195.575.46.145.291.358.356.632.287.327-.081.693-.414.92-.46.335-.067.328.653.633.805.268.134.4-.502.69-.575.163-.04.759.526.977.69.36.27.74.411 1.035.633.272.203.435.531.518.862.08.318-.689.114-.92.345-.169.169.385.5.46.575.288.288.295.453.057.69-.254.255-.632.157-.632.633 0 .31.013.543.172.862.162.323.22.426.518.575.252.127.548.196.747.345.162.122.637.261.805.345.288.144.35.221.173.576-.19.38-.336.282-.69.46-.332.165-.138.644-.058.805.073.144-.017.097.173.287.136.136.094.554.23.69.312.312-.438.345-.575.345-.262 0-.46-.173-.69-.287-.308-.154-.463-.203-.748-.345-.25-.126-.238-.376-.575-.46-.281-.07-.115.572-.115.862 0 .35-.23.493-.23.863 0 .23.42.437.518.632.154.31.258.38.575.46.33.083.176.321.632.23.276-.055.594.062.805.115.317.08.361.141.173.518-.181.362.126.408.345.517.347.174.337.147.23.575-.091.365.115.52.115.748 0 .322.323.287-.23.287-.309 0-.576.058-.863.058-.266 0-.475-.115-.747-.115-.263 0-.533.094-.805.23z" mask="url(#f)" fill="url(#g)"/>
    <path d="M32.577 18.06c1.849 6.142-8.63 14.112-9.167 12.652-.085.085-1.09-.61-1.288-.758-.058-.043.633-.632.758-.757.336-.337-.038-.871-.152-.985-.274-.275-.844-.457-1.136-.53-.552-.138.274-.618.53-.682.544-.136.432.151.91.151.315 0 .802-.5 1.06-.757.312-.313.084-.819 0-.985-.218-.436-.389-.725-.757-.91-.44-.22-.574-.26-.152-.681.36-.36.654-.007.985.076.06.015.26.825.303.909.15.3.535.227.91.227.416 0 .861-.657 1.363-.758.448-.09.682-.22.682-.757 0-.435-.077-.687-.152-.985-.117-.468.538-.745.758-.91.316-.236-.707-.353-1.06-.53-.295-.146.146-.677.378-.909.218-.218.831.189.909.227.28.14.468.31.758.455.191.096.521-.872.606-.985.282-.376.394-.606.909-.606.46 0 .8-.094.909-.53.087-.348-.017-.903-.076-1.137-.025-.1-.377-.094.303.076.28.07.53.265.758.379.045.022.1 0 .151 0z" mask="url(#h)" transform="rotate(-15 16 16)" fill="url(#i)"/>
    <path d="M18.64 12.342c.16.236.445.936.715 1.403.213.37.671-.592.546.45-.067.552.37.756.711.735.505-.03.78-.423.88-.794.136-.507-.358-.408-.384-.83-.025-.428.674-.55.91-.908.16-.243.816-.47 1.075-.62.272-.158.286-.663.13-.935-.045-.076-.817-.037-.894-.058-.517-.138.095-.883.231-1.089.164-.248.692.011.924-.055.283-.081.941.168 1.089.231.345.147.595-.057.984-.282.584-.337.803-.947 1.103-1.4.21-.32.183-1.186.096-1.49-.143-.5.052-.736-.221-1.21-.15-.258-.595-.182-.803-.397-.313-.324-.734-.47-.772-.51-.193-.199 1.086-.937.182-.678-.316.09-.66-.392-.885-.54-.247-.163-.071.094-.186-.307-.037-.13-.858-.11-.934-.13-.351-.094-.443-.603-.897-.724-.4-.107-.317-.582-.76-.326-.444.257-.078-.159-.546-.13a5.148 5.148 0 0 0-.954.168c-.44.126-.8-.154-1.203-.262-.46-.123-.546-.388-.957-.498-.44-.118-.92.194-1.466.273-.485.07-.746.276-1.2.406-.39.111-.815.28-1.158.477-.508.294.42.754.527.747.175-.01-.258.483-.314.946-.07.58-.052.64.282.984.304.315.513.098.802.397.244.252.559.502.897.725.406.268.72.678 1.122.785.362.097.647.51.712.736.122.427-.496.623.32.39.313-.09.4.49.425.9.032.542-.21.654-.458 1.03-.155.235.834.647.855.652.295.08.231.566.384.83.214.371-.486.847-.91.908z" fill="url(#j)"/>
  </g>
</svg>
