<svg xmlns="http://www.w3.org/2000/svg" xmlns:xlink="http://www.w3.org/1999/xlink" width="16" height="16" version="1">
  <defs>
    <linearGradient id="b">
      <stop offset="0" stop-color="#780000"/>
      <stop offset="1" stop-color="#dc0000"/>
    </linearGradient>
    <linearGradient id="a">
      <stop offset="0" stop-color="#bed9e9"/>
      <stop offset="1" stop-color="#fff"/>
    </linearGradient>
    <linearGradient xlink:href="#a" id="c" x1="14" y1="8.5" x2="7" y2="8.5" gradientUnits="userSpaceOnUse" spreadMethod="reflect" gradientTransform="translate(0 -2)"/>
    <linearGradient xlink:href="#b" id="d" x1="15.5" y1="15.5" x2="15.5" y2="6.5" gradientUnits="userSpaceOnUse"/>
  </defs>
  <path style="marker:none" d="M2 .5h10c.831 0 1.5.669 1.5 1.5v10.5H.5V2C.5 1.169 1.169.5 2 .5z" fill="url(#c)" fill-rule="evenodd" stroke="#8ca6b8" overflow="visible"/>
  <path opacity=".99" fill="#fff" stroke="#aac3d3" d="M2.5 3.5h9v7h-9z"/>
  <path d="M9 1.5h3-3z" fill="none" stroke="#a7bdcb" stroke-linecap="square"/>
  <path d="M15 11c0 2.208-1.792 4-4 4s-4-1.792-4-4 1.792-4 4-4 4 1.792 4 4zm-7 3l6-6" style="marker:none" fill="none" stroke="#fff" stroke-width="2.5" stroke-linejoin="round" overflow="visible"/>
  <path style="marker:none" d="M15 11c0 2.208-1.792 4-4 4s-4-1.792-4-4 1.792-4 4-4 4 1.792 4 4zm-7 3l6-6" fill="none" stroke="url(#d)" stroke-width="1.25" stroke-linejoin="round" overflow="visible"/>
</svg>
