<svg xmlns="http://www.w3.org/2000/svg" width="24" height="24">
  <path d="M8.975 10.673L5.118 6.077l-.951 2.756-1.026-.445-.15-6.4L9.27 3.245l.26 1.088-2.88.458 3.857 4.596z" opacity=".5" fill="none" stroke="#fff" stroke-width="2" stroke-linejoin="round"/>
  <path d="M8.975 10.673L5.118 6.077l-.951 2.756-1.026-.445-.15-6.4L9.27 3.245l.26 1.088-2.88.458 3.857 4.596z" fill="#3f83b1" fill-rule="evenodd"/>
  <path d="M14.925 13.434l3.857 4.596.951-2.756 1.026.445.15 6.4-6.279-1.258-.26-1.088 2.88-.458-3.857-4.596z" opacity=".5" fill="none" stroke="#fff" stroke-width="2" stroke-linejoin="round"/>
  <path d="M14.925 13.434l3.857 4.596.951-2.756 1.026.445.15 6.4-6.279-1.258-.26-1.088 2.88-.458-3.857-4.596z" fill="#3f83b1" fill-rule="evenodd"/>
</svg>
