<svg xmlns="http://www.w3.org/2000/svg" xmlns:xlink="http://www.w3.org/1999/xlink" width="16" height="16">
  <defs>
    <linearGradient id="b">
      <stop offset="0" stop-color="#d72f19"/>
      <stop offset="1" stop-color="#ff7d55"/>
    </linearGradient>
    <linearGradient id="a">
      <stop offset="0" stop-color="#fff"/>
      <stop offset=".4" stop-color="#ffdf91" stop-opacity=".498"/>
      <stop offset="1" stop-color="#ff3d01" stop-opacity="0"/>
    </linearGradient>
    <linearGradient xlink:href="#a" id="d" x1="4" y1="10" x2="4" y2="14" gradientUnits="userSpaceOnUse"/>
    <linearGradient xlink:href="#b" id="c" x1="4" y1="15" x2="1" y2="9" gradientUnits="userSpaceOnUse" gradientTransform="matrix(.83333 0 0 .83333 1.167 1.5)"/>
    <linearGradient xlink:href="#b" id="e" x1="7.938" y1="13.874" x2="7.938" y2="2" gradientUnits="userSpaceOnUse"/>
    <linearGradient xlink:href="#b" id="f" x1="6.391" y1="13.719" x2="6.391" y2="5.5" gradientUnits="userSpaceOnUse"/>
  </defs>
  <path style="marker:none" d="M7 11.5a2.5 2.5 0 0 1-5 0 2.5 2.5 0 0 1 5 0z" color="#000" fill="url(#c)" fill-rule="evenodd" overflow="visible"/>
  <path style="marker:none" d="M6 12a2 2 0 1 1-4 0 2 2 0 1 1 4 0z" transform="matrix(.75 0 0 .75 1.5 2.5)" color="#000" fill="url(#d)" fill-rule="evenodd" overflow="visible"/>
  <path d="M6.5 2c-1.748 0-3.35.622-4.625 1.625A8.026 8.026 0 0 1 5 3c4.416 0 8 3.584 8 8 0 1.104-.22 2.168-.625 3.125C13.378 12.849 14 11.248 14 9.5 14 5.36 10.64 2 6.5 2z" fill="url(#e)"/>
  <path d="M5.75 5.5c-1.383 0-2.6.618-3.469 1.563A5.2 5.2 0 0 1 4 6.75 5.252 5.252 0 0 1 9.25 12a5.2 5.2 0 0 1-.313 1.719c.945-.869 1.563-2.086 1.563-3.469A4.752 4.752 0 0 0 5.75 5.5z" fill="url(#f)"/>
</svg>
