<?xml version="1.0" encoding="UTF-8" standalone="no"?>
<!-- Created with Inkscape (http://www.inkscape.org/) -->
<svg
   xmlns:dc="http://purl.org/dc/elements/1.1/"
   xmlns:cc="http://creativecommons.org/ns#"
   xmlns:rdf="http://www.w3.org/1999/02/22-rdf-syntax-ns#"
   xmlns:svg="http://www.w3.org/2000/svg"
   xmlns="http://www.w3.org/2000/svg"
   xmlns:xlink="http://www.w3.org/1999/xlink"
   xmlns:sodipodi="http://sodipodi.sourceforge.net/DTD/sodipodi-0.dtd"
   xmlns:inkscape="http://www.inkscape.org/namespaces/inkscape"
   width="32"
   height="32"
   id="svg2"
   sodipodi:version="0.32"
   inkscape:version="0.46"
   version="1.0"
   sodipodi:docbase="F:\Development\Kempelton\Miscellaneous"
   sodipodi:docname="Globe.svg"
   inkscape:output_extension="org.inkscape.output.svg.inkscape"
   inkscape:export-filename="F:\Development\Kempelton\Miscellaneous\Globe 32.png"
   inkscape:export-xdpi="90"
   inkscape:export-ydpi="90">
  <defs
     id="defs4">
    <linearGradient
       id="linearGradient3215">
      <stop
         id="stop3217"
         offset="0"
         style="stop-color:#ffffff;stop-opacity:1;" />
      <stop
         style="stop-color:#ffffff;stop-opacity:1;"
         offset="0.22192387"
         id="stop3219" />
      <stop
         style="stop-color:#daffb9;stop-opacity:1;"
         offset="0.31179568"
         id="stop3221" />
      <stop
         id="stop3227"
         offset="0.52175629"
         style="stop-color:#0c806b;stop-opacity:1;" />
      <stop
         id="stop3223"
         offset="1"
         style="stop-color:#91d2ff;stop-opacity:1;" />
    </linearGradient>
    <linearGradient
       id="linearGradient3141">
      <stop
         id="stop3147"
         offset="0"
         style="stop-color:#b1d6ff;stop-opacity:1;" />
      <stop
         style="stop-color:#2d77ff;stop-opacity:0.5411765;"
         offset="0.5"
         id="stop3155" />
      <stop
         id="stop3149"
         offset="1"
         style="stop-color:#057bff;stop-opacity:0;" />
    </linearGradient>
    <linearGradient
       id="linearGradient3129">
      <stop
         style="stop-color:#b9fdff;stop-opacity:1;"
         offset="0"
         id="stop3131" />
      <stop
         id="stop2162"
         offset="0.27089915"
         style="stop-color:#69d3ff;stop-opacity:1;" />
      <stop
         style="stop-color:#29449f;stop-opacity:1;"
         offset="0.60000002"
         id="stop2164" />
      <stop
         style="stop-color:#0d1b36;stop-opacity:1;"
         offset="1"
         id="stop3133" />
    </linearGradient>
    <radialGradient
       inkscape:collect="always"
       xlink:href="#linearGradient3129"
       id="radialGradient3135"
       cx="12.811165"
       cy="9.4978647"
       fx="12.811165"
       fy="9.4978647"
       r="16"
       gradientUnits="userSpaceOnUse"
       gradientTransform="matrix(1.29712,0,0,1.29712,-3.5533741,-3.159445)" />
    <linearGradient
       inkscape:collect="always"
       xlink:href="#linearGradient3141"
       id="linearGradient3159"
       x1="19.066629"
       y1="32"
       x2="16.920055"
       y2="20.211927"
       gradientUnits="userSpaceOnUse" />
    <mask
       maskUnits="userSpaceOnUse"
       id="mask3363">
      <path
         d="M 32 16 A 16 16 0 1 1  0,16 A 16 16 0 1 1  32 16 z"
         sodipodi:ry="16"
         sodipodi:rx="16"
         sodipodi:cy="16"
         sodipodi:cx="16"
         id="path3365"
         style="opacity:1;color:#000000;fill:#ffffff;fill-opacity:1;fill-rule:evenodd;stroke:none;stroke-width:0.75;stroke-linecap:round;stroke-linejoin:round;marker:none;marker-start:none;marker-mid:none;marker-end:none;stroke-miterlimit:4;stroke-dasharray:none;stroke-dashoffset:0;stroke-opacity:1;visibility:visible;display:inline;overflow:visible;enable-background:accumulate"
         sodipodi:type="arc" />
    </mask>
    <mask
       maskUnits="userSpaceOnUse"
       id="mask3371">
      <path
         d="M 32 16 A 16 16 0 1 1  0,16 A 16 16 0 1 1  32 16 z"
         sodipodi:ry="16"
         sodipodi:rx="16"
         sodipodi:cy="16"
         sodipodi:cx="16"
         id="path3373"
         style="opacity:1;color:#000000;fill:#ffffff;fill-opacity:1;fill-rule:evenodd;stroke:none;stroke-width:0.75;stroke-linecap:round;stroke-linejoin:round;marker:none;marker-start:none;marker-mid:none;marker-end:none;stroke-miterlimit:4;stroke-dasharray:none;stroke-dashoffset:0;stroke-opacity:1;visibility:visible;display:inline;overflow:visible;enable-background:accumulate"
         sodipodi:type="arc" />
    </mask>
    <radialGradient
       inkscape:collect="always"
       xlink:href="#linearGradient3215"
       id="radialGradient3235"
       gradientUnits="userSpaceOnUse"
       gradientTransform="matrix(1.4849149,0,0,1.3368745,-6.3248094,-1.9689071)"
       cx="13.043133"
       cy="10.294151"
       fx="13.043133"
       fy="10.294151"
       r="16.785273" />
    <radialGradient
       inkscape:collect="always"
       xlink:href="#linearGradient3215"
       id="radialGradient3240"
       gradientUnits="userSpaceOnUse"
       gradientTransform="matrix(1.8599985,-0.4983851,0.448698,1.6745638,-16.287061,4.0475213)"
       cx="12.474922"
       cy="8.8702621"
       fx="12.474922"
       fy="8.8702621"
       r="16.785273" />
    <radialGradient
       inkscape:collect="always"
       xlink:href="#linearGradient3215"
       id="radialGradient3246"
       gradientUnits="userSpaceOnUse"
       gradientTransform="matrix(1.4849149,0,0,1.3368745,-6.3248094,-1.9689071)"
       cx="13.043133"
       cy="10.294151"
       fx="13.043133"
       fy="10.294151"
       r="16.785273" />
  </defs>
  <sodipodi:namedview
     id="base"
     pagecolor="#ffffff"
     bordercolor="#666666"
     borderopacity="1.0"
     gridtolerance="10000"
     guidetolerance="10"
     objecttolerance="10"
     inkscape:pageopacity="0.0"
     inkscape:pageshadow="2"
     inkscape:zoom="15.839191"
     inkscape:cx="17.945655"
     inkscape:cy="11.123361"
     inkscape:document-units="px"
     inkscape:current-layer="layer3"
     width="32px"
     height="32px"
     showgrid="true"
     inkscape:window-width="1034"
     inkscape:window-height="1015"
     inkscape:window-x="1315"
     inkscape:window-y="354"
     inkscape:grid-points="true">
    <inkscape:grid
       id="GridFromPre046Settings"
       type="xygrid"
       originx="0px"
       originy="0px"
       spacingx="1px"
       spacingy="1px"
       color="#0000ff"
       empcolor="#0000ff"
       opacity="0.2"
       empopacity="0.4"
       empspacing="4" />
  </sodipodi:namedview>
  <metadata
     id="metadata7">
    <rdf:RDF>
      <cc:Work
         rdf:about="">
        <dc:format>image/svg+xml</dc:format>
        <dc:type
           rdf:resource="http://purl.org/dc/dcmitype/StillImage" />
        <dc:creator>
          <cc:Agent>
            <dc:title>Arvid Axelsson</dc:title>
          </cc:Agent>
        </dc:creator>
        <cc:license
           rdf:resource="http://creativecommons.org/licenses/by-sa/3.0/" />
      </cc:Work>
      <cc:License
         rdf:about="http://creativecommons.org/licenses/by-sa/3.0/">
        <cc:permits
           rdf:resource="http://creativecommons.org/ns#Reproduction" />
        <cc:permits
           rdf:resource="http://creativecommons.org/ns#Distribution" />
        <cc:requires
           rdf:resource="http://creativecommons.org/ns#Notice" />
        <cc:requires
           rdf:resource="http://creativecommons.org/ns#Attribution" />
        <cc:permits
           rdf:resource="http://creativecommons.org/ns#DerivativeWorks" />
        <cc:requires
           rdf:resource="http://creativecommons.org/ns#ShareAlike" />
      </cc:License>
    </rdf:RDF>
  </metadata>
  <g
     inkscape:label="Layer 1"
     inkscape:groupmode="layer"
     id="layer1">
    <path
       sodipodi:type="arc"
       style="opacity:1;color:#000000;fill:url(#radialGradient3135);fill-opacity:1.0;fill-rule:evenodd;stroke:none;stroke-width:0.75;stroke-linecap:round;stroke-linejoin:round;marker:none;marker-start:none;marker-mid:none;marker-end:none;stroke-miterlimit:4;stroke-dasharray:none;stroke-dashoffset:0;stroke-opacity:1;visibility:visible;display:inline;overflow:visible;enable-background:accumulate"
       id="path2157"
       sodipodi:cx="16"
       sodipodi:cy="16"
       sodipodi:rx="16"
       sodipodi:ry="16"
       d="M 32 16 A 16 16 0 1 1  0,16 A 16 16 0 1 1  32 16 z" />
    <path
       d="M 32,16 A 16,16 0 1 1 0.25219514,13.170399 L 16,16 z"
       sodipodi:ry="16"
       sodipodi:rx="16"
       sodipodi:cy="16"
       sodipodi:cx="16"
       id="path2166"
       style="opacity:1;color:#000000;fill:url(#linearGradient3159);fill-opacity:1;fill-rule:evenodd;stroke:none;stroke-width:0.75;stroke-linecap:round;stroke-linejoin:round;marker:none;marker-start:none;marker-mid:none;marker-end:none;stroke-miterlimit:4;stroke-dasharray:none;stroke-dashoffset:0;stroke-opacity:1;visibility:visible;display:inline;overflow:visible;enable-background:accumulate"
       sodipodi:type="arc"
       sodipodi:start="0"
       sodipodi:end="3.3193778" />
  </g>
  <g
     inkscape:groupmode="layer"
     id="layer3"
     style="display:inline">
    <path
       style="fill:url(#radialGradient3235);fill-opacity:1;fill-rule:evenodd;stroke:none;stroke-width:1px;stroke-linecap:butt;stroke-linejoin:miter;stroke-opacity:1"
       d="M 9.9528481,30.829645 C 8.2697398,33.280325 -3.5572294,20.308967 -0.16734707,15.764354 C 0.18616705,15.839359 0.95164268,15.887115 1.442684,15.764354 C 1.794267,15.676459 2.0063971,15.810558 2.1901984,15.994359 C 2.4503796,16.25454 2.7283466,16.71189 2.8802117,16.914377 C 3.1064079,17.215972 3.7682151,16.441625 3.9727328,16.339365 C 4.3223832,16.164541 4.1452361,15.87991 4.1452361,15.53435 C 4.1452361,15.37914 5.0165746,15.680308 5.1227549,15.706853 C 5.4044002,15.777265 5.5652899,15.90191 5.697766,16.166862 C 5.84341,16.458151 6.0561772,16.522894 6.3302781,16.454368 C 6.6569761,16.372694 7.0228711,16.039844 7.2502959,15.994359 C 7.5849283,15.927433 7.5775764,16.646759 7.8828081,16.799374 C 8.1505985,16.93327 8.282362,16.296978 8.5728214,16.224363 C 8.7360846,16.183548 9.3317868,16.750461 9.5503403,16.914377 C 9.9107431,17.184678 10.289486,17.324984 10.58536,17.546889 C 10.856799,17.750468 11.020103,18.078336 11.10287,18.409405 C 11.182307,18.727153 10.414449,18.522816 10.182852,18.754412 C 10.014229,18.923036 10.567511,19.254072 10.642861,19.329423 C 10.930627,19.617189 10.938258,19.781541 10.700362,20.019437 C 10.445696,20.274103 10.06785,20.175693 10.06785,20.651949 C 10.06785,20.962216 10.080636,21.195031 10.240354,21.514466 C 10.401569,21.836896 10.459371,21.94023 10.757864,22.089477 C 11.010395,22.215743 11.30565,22.284687 11.505378,22.434483 C 11.666758,22.555519 12.142071,22.695329 12.310394,22.77949 C 12.597848,22.923217 12.660071,23.000153 12.482897,23.354501 C 12.29228,23.735735 12.147288,23.637307 11.792884,23.81451 C 11.460944,23.980479 11.655005,24.458771 11.735383,24.619526 C 11.807849,24.764459 11.717781,24.716926 11.907886,24.907031 C 12.043504,25.042649 12.002131,25.461285 12.13789,25.597044 C 12.449525,25.908679 11.699621,25.942051 11.562879,25.942051 C 11.301047,25.942051 11.102074,25.769149 10.872866,25.654546 C 10.564857,25.500541 10.409652,25.451689 10.125351,25.309539 C 9.8740767,25.183902 9.8872996,24.933769 9.5503403,24.84953 C 9.2689505,24.779183 9.4353381,25.421996 9.4353381,25.712047 C 9.4353381,26.062948 9.2053336,26.204739 9.2053336,26.574563 C 9.2053336,26.8047 9.6252766,27.011942 9.7228436,27.207076 C 9.8774718,27.516332 9.981292,27.587944 10.297855,27.667084 C 10.627719,27.74955 10.474198,27.988323 10.930367,27.897089 C 11.206345,27.841893 11.524156,27.959284 11.735383,28.012091 C 12.051805,28.091197 12.096181,28.15301 11.907886,28.529601 C 11.726667,28.892038 12.034291,28.93781 12.252893,29.047111 C 12.600087,29.220708 12.589952,29.193902 12.482897,29.622121 C 12.391795,29.98653 12.597899,30.142868 12.597899,30.369637 C 12.597899,30.692023 12.920632,30.657141 12.367895,30.657141 C 12.059024,30.657141 11.792077,30.714642 11.505378,30.714642 C 11.238795,30.714642 11.029881,30.59964 10.757864,30.59964 C 10.494566,30.59964 10.224831,30.693654 9.9528481,30.829645 z "
       id="path3204"
       sodipodi:nodetypes="ccssssssssssssssssssssssssssssssssssssssssssssc"
       mask="url(#mask3371)"
       inkscape:transform-center-x="10.041631"
       inkscape:transform-center-y="7.3125373" />
    <path
       style="fill:url(#radialGradient3246);fill-opacity:1;fill-rule:evenodd;stroke:none;stroke-width:1px;stroke-linecap:butt;stroke-linejoin:miter;stroke-opacity:1"
       d="M 32.57742,18.059895 C 34.425514,24.201646 23.947648,32.172156 23.410286,30.712055 C 23.32518,30.797161 22.319939,30.102639 22.122341,29.954441 C 22.064201,29.910836 22.754651,29.322131 22.879955,29.196827 C 23.216351,28.860431 22.842283,28.325778 22.728433,28.211928 C 22.453741,27.937236 21.883701,27.75452 21.592011,27.681598 C 21.040212,27.543648 21.866015,27.063826 22.122341,26.999745 C 22.6659,26.863855 22.554294,27.151268 23.031478,27.151268 C 23.347415,27.151268 23.83419,26.651602 24.092139,26.393653 C 24.404464,26.081328 24.175511,25.575499 24.092139,25.408755 C 23.874241,24.972959 23.703092,24.683901 23.334524,24.499617 C 22.894376,24.279543 22.76139,24.239376 23.183001,23.817764 C 23.543077,23.457689 23.836949,23.810788 24.1679,23.893526 C 24.228892,23.908774 24.428867,24.718505 24.470946,24.802663 C 24.621493,25.103758 25.00569,25.029947 25.380083,25.029947 C 25.796646,25.029947 26.242089,24.372673 26.743789,24.272333 C 27.191837,24.182723 27.425642,24.052876 27.425642,23.514719 C 27.425642,23.079805 27.348783,22.828476 27.274119,22.52982 C 27.157075,22.061642 27.812149,21.785371 28.031734,21.620682 C 28.347961,21.383512 27.324627,21.267129 26.971073,21.090352 C 26.677433,20.943532 27.117738,20.413358 27.349881,20.181215 C 27.56793,19.963165 28.181021,20.369501 28.259018,20.408499 C 28.539597,20.548789 28.726747,20.718126 29.016632,20.863068 C 29.208125,20.958814 29.538419,19.990576 29.622724,19.878169 C 29.905211,19.50152 30.017414,19.272078 30.531861,19.272078 C 30.99115,19.272078 31.331971,19.177856 31.440998,18.741748 C 31.527865,18.394281 31.423724,17.839275 31.365237,17.605326 C 31.340019,17.504456 30.988346,17.511103 31.668283,17.681087 C 31.947458,17.750881 32.198877,17.946384 32.425897,18.059895 C 32.471073,18.082482 32.526912,18.059895 32.57742,18.059895 z "
       id="path3219"
       sodipodi:nodetypes="ccsssssssssssssssssssssssssssc"
       mask="url(#mask3363)"
       inkscape:transform-center-x="-12.784666"
       inkscape:transform-center-y="4.9670408"
       transform="matrix(0.9659258,-0.258819,0.258819,0.9659258,-3.5959179,4.6862915)" />
    <path
       style="fill:url(#radialGradient3240);fill-opacity:1;fill-rule:evenodd;stroke:none;stroke-width:1px;stroke-linecap:butt;stroke-linejoin:miter;stroke-opacity:1"
       d="M 18.64011,12.341644 C 18.799453,12.578336 19.085193,13.278078 19.354694,13.744865 C 19.56828,14.114809 20.026192,13.153167 19.900776,14.194125 C 19.834136,14.747247 20.271428,14.950554 20.612388,14.930089 C 21.11746,14.899773 21.392122,14.507356 21.491704,14.135714 C 21.627542,13.628755 21.133542,13.728496 21.108176,13.305898 C 21.082516,12.878385 21.781806,12.755871 22.017786,12.398464 C 22.178473,12.155093 22.833704,11.927393 23.092921,11.777733 C 23.365332,11.620457 23.37949,11.115388 23.222213,10.842977 C 23.17825,10.766831 22.405993,10.806033 22.328839,10.785361 C 21.812242,10.646939 22.424029,9.9022567 22.560102,9.6961647 C 22.723751,9.4483078 23.251803,9.7070807 23.48377,9.6407237 C 23.766615,9.5598127 24.425482,9.8089867 24.572966,9.8719837 C 24.91813,10.019425 25.167637,9.8153547 25.557221,9.5904277 C 26.141028,9.2533668 26.360259,8.6428746 26.659681,8.1893802 C 26.870162,7.8705922 26.842688,7.0044823 26.755708,6.7004237 C 26.612607,6.2001745 26.808223,5.9637439 26.534739,5.4900527 C 26.385533,5.2316222 25.939674,5.30779 25.732246,5.0932626 C 25.418591,4.7688753 24.997622,4.6222756 24.960047,4.5834151 C 24.767255,4.3840249 26.04593,3.6464345 25.141809,3.9050683 C 24.825731,3.9954857 24.481422,3.5133979 24.256552,3.364927 C 24.010202,3.2022738 24.186021,3.4588406 24.071287,3.0577625 C 24.034239,2.9282538 23.212911,2.9489361 23.136532,2.9284701 C 22.785697,2.8344649 22.694411,2.3253043 22.240186,2.2035951 C 21.840613,2.0965294 21.923285,1.6220163 21.479075,1.8784811 C 21.035548,2.1345516 21.401994,1.7193546 20.933522,1.7474738 C 20.649854,1.7645005 20.242347,1.8407997 19.97956,1.915973 C 19.539817,2.0417661 19.179915,1.7622963 18.777306,1.6544176 C 18.316654,1.5309863 18.231026,1.2656926 17.820373,1.1556583 C 17.38045,1.0377812 16.899191,1.3504895 16.353594,1.4290977 C 15.869395,1.4988596 15.607695,1.7051054 15.15431,1.8348011 C 14.764096,1.9464259 14.339295,2.1142144 13.996409,2.3121801 C 13.487878,2.6057807 14.416935,3.0656151 14.523288,3.0592313 C 14.697733,3.0487608 14.265078,3.5417891 14.209261,4.005076 C 14.13945,4.5845162 14.157106,4.6442007 14.490819,4.9893313 C 14.795372,5.3043082 15.004229,5.0871475 15.293311,5.3861218 C 15.536555,5.6376882 15.85152,5.8877406 16.189656,6.1109969 C 16.595713,6.3790968 16.910093,6.7887365 17.312118,6.896459 C 17.674037,6.9934354 17.959127,7.4065861 18.02373,7.6324223 C 18.145617,8.058513 17.527623,8.2545421 18.343697,8.0210953 C 18.657354,7.93137 18.74391,8.51114 18.768607,8.9225864 C 18.801117,9.4642353 18.558964,9.5759837 18.31123,9.9511947 C 18.155699,10.186757 19.144519,10.598587 19.166192,10.604395 C 19.46053,10.683263 19.397359,11.170315 19.549718,11.43421 C 19.76386,11.805113 19.064013,12.280569 18.64011,12.341644 z "
       id="path3187"
       sodipodi:nodetypes="csssssssssssssssssssssssssssssssssssssssssssc" />
  </g>
  <g
     inkscape:groupmode="layer"
     id="layer4" />
</svg>
