<?xml version="1.0" encoding="UTF-8" standalone="no"?>
<!-- Created with Inkscape (http://www.inkscape.org/) -->
<svg
   xmlns:dc="http://purl.org/dc/elements/1.1/"
   xmlns:cc="http://creativecommons.org/ns#"
   xmlns:rdf="http://www.w3.org/1999/02/22-rdf-syntax-ns#"
   xmlns:svg="http://www.w3.org/2000/svg"
   xmlns="http://www.w3.org/2000/svg"
   xmlns:xlink="http://www.w3.org/1999/xlink"
   xmlns:sodipodi="http://sodipodi.sourceforge.net/DTD/sodipodi-0.dtd"
   xmlns:inkscape="http://www.inkscape.org/namespaces/inkscape"
   width="32"
   height="32"
   id="svg2"
   sodipodi:version="0.32"
   inkscape:version="0.46"
   version="1.0"
   sodipodi:docbase="F:\Development\Kempelton\Miscellaneous"
   sodipodi:docname="Privacy 16.svg"
   inkscape:output_extension="org.inkscape.output.svg.inkscape"
   inkscape:export-filename="F:\Development\Kempelton\Options\Privacy 32.png"
   inkscape:export-xdpi="90"
   inkscape:export-ydpi="90">
  <defs
     id="defs4">
    <linearGradient
       inkscape:collect="always"
       id="linearGradient3358">
      <stop
         style="stop-color:#ffc1ae;stop-opacity:1"
         offset="0"
         id="stop3360" />
      <stop
         style="stop-color:#ffffff;stop-opacity:0"
         offset="1"
         id="stop3362" />
    </linearGradient>
    <linearGradient
       inkscape:collect="always"
       id="linearGradient3193">
      <stop
         style="stop-color:#461300;stop-opacity:1"
         offset="0"
         id="stop3195" />
      <stop
         style="stop-color:#320d00;stop-opacity:1"
         offset="1"
         id="stop3197" />
    </linearGradient>
    <linearGradient
       id="linearGradient3282">
      <stop
         style="stop-color:#351106;stop-opacity:1;"
         offset="0"
         id="stop3284" />
      <stop
         id="stop3405"
         offset="0.306234"
         style="stop-color:#471908;stop-opacity:1" />
      <stop
         style="stop-color:#804420;stop-opacity:1"
         offset="1"
         id="stop3441" />
    </linearGradient>
    <linearGradient
       id="linearGradient3228">
      <stop
         id="stop3236"
         offset="0"
         style="stop-color:#ffffff;stop-opacity:1;" />
      <stop
         style="stop-color:#d9c3b7;stop-opacity:1;"
         offset="0.5"
         id="stop3241" />
      <stop
         style="stop-color:#a78471;stop-opacity:1;"
         offset="1"
         id="stop3232" />
    </linearGradient>
    <radialGradient
       inkscape:collect="always"
       xlink:href="#linearGradient3228"
       id="radialGradient3234"
       cx="68.778145"
       cy="80.067268"
       fx="68.778145"
       fy="80.067268"
       r="46.252781"
       gradientTransform="matrix(0.3417899,0,0,0.3002173,-6.0397529,-7.8590137)"
       gradientUnits="userSpaceOnUse" />
    <filter
       inkscape:collect="always"
       id="filter3246"
       x="-0.12"
       width="1.24"
       y="-0.12"
       height="1.24">
      <feGaussianBlur
         inkscape:collect="always"
         stdDeviation="0.73442969"
         id="feGaussianBlur3248" />
    </filter>
    <filter
       inkscape:collect="always"
       id="filter3435"
       x="-0.11124997"
       width="1.2224998"
       y="-0.13024396"
       height="1.2604879">
      <feGaussianBlur
         inkscape:collect="always"
         stdDeviation="1.646997"
         id="feGaussianBlur3437" />
    </filter>
    <filter
       inkscape:collect="always"
       id="filter3477">
      <feGaussianBlur
         inkscape:collect="always"
         stdDeviation="1.1736118"
         id="feGaussianBlur3479" />
    </filter>
    <mask
       maskUnits="userSpaceOnUse"
       id="mask3498">
      <path
         sodipodi:nodetypes="cscscc"
         id="path3500"
         d="M 16.940845,88.972658 C 18.866238,78.169805 37.156812,57.673602 64.063903,58.932738 C 87.902744,60.048294 101.65839,69.370739 109.18696,77.25669 C 112.02753,79.113307 91.133795,96.246301 66.57038,97.359258 C 47.747378,98.205631 23.904659,90.92259 21.006056,94.039301 L 16.940845,88.972658 z"
         style="opacity:1;fill:#ffffff;fill-opacity:1;fill-rule:evenodd;stroke:none;stroke-width:1px;stroke-linecap:butt;stroke-linejoin:miter;stroke-opacity:1;display:inline" />
    </mask>
    <linearGradient
       inkscape:collect="always"
       xlink:href="#linearGradient3282"
       id="linearGradient3527"
       x1="56.854908"
       y1="59.694679"
       x2="56.326214"
       y2="86.47142"
       gradientUnits="userSpaceOnUse" />
    <linearGradient
       inkscape:collect="always"
       xlink:href="#linearGradient3193"
       id="linearGradient3199"
       x1="45.785397"
       y1="82.96521"
       x2="45.785397"
       y2="60.071285"
       gradientUnits="userSpaceOnUse" />
    <linearGradient
       inkscape:collect="always"
       xlink:href="#linearGradient3358"
       id="linearGradient3364"
       x1="45.160858"
       y1="73.407204"
       x2="63.845505"
       y2="59.735516"
       gradientUnits="userSpaceOnUse" />
    <filter
       inkscape:collect="always"
       id="filter3374"
       x="-0.11574374"
       width="1.2314875"
       y="-0.12398875"
       height="1.2479775">
      <feGaussianBlur
         inkscape:collect="always"
         stdDeviation="1.3044621"
         id="feGaussianBlur3376" />
    </filter>
  </defs>
  <sodipodi:namedview
     id="base"
     pagecolor="#ffffff"
     bordercolor="#666666"
     borderopacity="1.0"
     gridtolerance="10000"
     guidetolerance="10"
     objecttolerance="10"
     inkscape:pageopacity="0.0"
     inkscape:pageshadow="2"
     inkscape:zoom="18.332398"
     inkscape:cx="20.629551"
     inkscape:cy="8.1577819"
     inkscape:document-units="px"
     inkscape:current-layer="layer1"
     width="24px"
     height="24px"
     inkscape:window-width="1372"
     inkscape:window-height="1216"
     inkscape:window-x="1165"
     inkscape:window-y="241"
     showgrid="true"
     inkscape:grid-points="true"
     showguides="true"
     inkscape:guide-bbox="true">
    <inkscape:grid
       type="xygrid"
       id="grid2433"
       visible="true"
       enabled="true"
       spacingx="0.5px"
       spacingy="0.5px"
       empspacing="4" />
  </sodipodi:namedview>
  <metadata
     id="metadata7">
    <rdf:RDF>
      <cc:Work
         rdf:about="">
        <dc:format>image/svg+xml</dc:format>
        <dc:type
           rdf:resource="http://purl.org/dc/dcmitype/StillImage" />
        <dc:creator>
          <cc:Agent>
            <dc:title>Arvid Axelsson</dc:title>
          </cc:Agent>
        </dc:creator>
        <cc:license
           rdf:resource="http://creativecommons.org/licenses/by-sa/3.0/" />
      </cc:Work>
      <cc:License
         rdf:about="http://creativecommons.org/licenses/by-sa/3.0/">
        <cc:permits
           rdf:resource="http://creativecommons.org/ns#Reproduction" />
        <cc:permits
           rdf:resource="http://creativecommons.org/ns#Distribution" />
        <cc:requires
           rdf:resource="http://creativecommons.org/ns#Notice" />
        <cc:requires
           rdf:resource="http://creativecommons.org/ns#Attribution" />
        <cc:permits
           rdf:resource="http://creativecommons.org/ns#DerivativeWorks" />
        <cc:requires
           rdf:resource="http://creativecommons.org/ns#ShareAlike" />
      </cc:License>
    </rdf:RDF>
  </metadata>
  <g
     inkscape:groupmode="layer"
     id="layer2"
     style="display:none">
    <rect
       style="opacity:1;fill:#182b45;fill-opacity:1;fill-rule:evenodd;stroke:none;stroke-width:1;stroke-linecap:round;stroke-linejoin:round;marker:none;marker-start:none;marker-mid:none;marker-end:none;stroke-miterlimit:4;stroke-dasharray:none;stroke-dashoffset:0;stroke-opacity:1;visibility:visible;display:inline;overflow:visible;enable-background:accumulate"
       id="rect4772"
       width="150.55804"
       height="150.55804"
       x="0"
       y="-2.8421709e-14" />
  </g>
  <g
     inkscape:label="Layer 1"
     inkscape:groupmode="layer"
     id="layer1"
     style="opacity:1;display:inline">
    <path
       sodipodi:type="arc"
       style="opacity:0.4;fill:#c8d8e0;fill-opacity:1;stroke:#ae6b56;stroke-width:2;stroke-linecap:square;stroke-linejoin:round;stroke-miterlimit:4;stroke-dasharray:none;stroke-opacity:1"
       id="path3218"
       sodipodi:cx="18.348936"
       sodipodi:cy="26.046104"
       sodipodi:rx="0"
       sodipodi:ry="0.33001685"
       d="M 18.348936,26.046104 A 0,0.33001685 0 1 1 18.348936,25.784746"
       sodipodi:start="0"
       sodipodi:end="5.3691827"
       sodipodi:open="true" />
    <path
       sodipodi:nodetypes="cscscc"
       id="path3380"
       d="M 0.050080128,19.616979 C 2.1761111,11.623298 16.156266,10.222166 16.156266,10.222166 C 16.156266,10.222166 32.047437,16.352092 32.047437,16.352092 C 32.206354,17.842257 24.680404,23.690994 16.278671,23.690994 C 9.838597,23.690994 2.4302411,21.109108 1.4395281,22.181235 L 0.050080128,19.616979 z"
       style="opacity:1;fill:#634a3d;fill-opacity:1;fill-rule:evenodd;stroke:none;stroke-width:1px;stroke-linecap:butt;stroke-linejoin:miter;stroke-opacity:1;display:inline" />
    <path
       style="opacity:1;fill:#2c160f;fill-opacity:1;fill-rule:evenodd;stroke:none;stroke-width:1;stroke-linecap:butt;stroke-linejoin:round;marker:none;marker-start:none;marker-mid:none;marker-end:none;stroke-miterlimit:4;stroke-dasharray:none;stroke-dashoffset:0;stroke-opacity:1;visibility:visible;display:inline;overflow:visible;enable-background:accumulate"
       d="M 31.737787,13.056782 C 29.797723,10.482863 22.863133,7.3720573 15.962026,7.3720573 C 6.5134641,7.3720573 1.6817641,13.115539 0.50317413,15.932285 L 1.5521291,18.025249 L 31.885992,15.361249 L 31.737787,13.056782 z"
       id="path3201"
       sodipodi:nodetypes="cscccc" />
    <path
       style="opacity:1;fill:url(#radialGradient3234);fill-opacity:1;fill-rule:evenodd;stroke:none;stroke-width:1px;stroke-linecap:butt;stroke-linejoin:miter;stroke-opacity:1;display:inline"
       d="M 0.050080128,19.382302 C 0.70816013,15.666197 6.9596941,8.6156493 16.156266,9.0487823 C 24.30414,9.4325253 29.005678,12.63938 31.57887,15.352092 C 32.549749,15.990755 25.408481,21.884382 17.012954,22.267232 C 10.579443,22.558379 2.4302411,20.053063 1.4395281,21.125189 L 0.050080128,19.382302 z"
       id="path2481"
       sodipodi:nodetypes="cscscc" />
    <path
       sodipodi:nodetypes="ccccc"
       id="path3243"
       d="M 0.58386813,19.702574 C 0.68752213,19.117253 1.8345761,19.342071 1.8345761,19.342071 L 3.1356981,20.863755 C 2.3818911,20.833041 1.8605091,20.900675 1.6530441,21.125189 L 0.58386813,19.702574 z"
       style="opacity:1;fill:#efd6cc;fill-opacity:1;fill-rule:evenodd;stroke:none;stroke-width:1px;stroke-linecap:butt;stroke-linejoin:miter;stroke-opacity:1;display:inline" />
    <path
       style="opacity:1;fill:#a7877b;fill-opacity:0;fill-rule:evenodd;stroke:none;stroke-width:1px;stroke-linecap:butt;stroke-linejoin:miter;stroke-opacity:1;display:inline"
       d="M 0.050080128,19.382302 C 0.70816013,15.666197 6.9596941,8.6156493 16.156266,9.0487823 L 17.012954,22.267232 C 10.579443,22.558379 2.4302411,20.053063 1.4395281,21.125189 L 0.050080128,19.382302 z"
       id="path3237"
       sodipodi:nodetypes="ccccc" />
  </g>
  <g
     inkscape:groupmode="layer"
     id="layer3"
     style="opacity:1;display:inline">
    <path
       transform="matrix(0.3417899,0,0,0.3439929,-5.7401289,-11.223661)"
       d="M 82.421452,72.790726 A 21.972237,21.972237 0 1 1 38.476978,72.790726 A 21.972237,21.972237 0 1 1 82.421452,72.790726 z"
       sodipodi:ry="21.972237"
       sodipodi:rx="21.972237"
       sodipodi:cy="72.790726"
       sodipodi:cx="60.449215"
       id="path3439"
       style="opacity:1;fill:url(#linearGradient3527);fill-opacity:1;fill-rule:evenodd;stroke:#371f11;stroke-width:1.74983419;stroke-linecap:butt;stroke-linejoin:miter;marker:none;marker-start:none;marker-mid:none;marker-end:none;stroke-miterlimit:4;stroke-dasharray:none;stroke-dashoffset:0;stroke-opacity:1;visibility:visible;display:inline;overflow:visible;filter:url(#filter3477);enable-background:accumulate"
       sodipodi:type="arc"
       mask="url(#mask3498)" />
    <path
       style="fill:url(#linearGradient3199);fill-opacity:1;fill-rule:evenodd;stroke:none;stroke-width:1px;stroke-linecap:butt;stroke-linejoin:miter;stroke-opacity:1;filter:url(#filter3435)"
       d="M 40.6582,78.205599 C 41.122949,78.554161 41.412638,78.481002 41.242845,78.907173 C 41.073052,79.333344 40.346836,81.088061 40.073555,82.181185 C 39.777415,83.365745 40.602067,84.834685 41.242845,85.689055 C 42.145215,86.892215 43.129459,86.86097 44.516857,87.092203 C 45.680756,87.286186 46.881538,86.58116 48.024726,86.390629 C 49.293889,86.179102 50.483373,86.270562 51.415667,85.338268 C 52.214031,84.539904 51.72764,82.817582 52.468028,81.830398 C 53.127687,80.950852 55.108817,80.492915 55.975898,79.842605 C 57.223437,78.906951 56.825225,77.59013 57.729833,76.685522 C 58.296898,76.118457 60.39231,75.682561 61.237702,75.048517 C 62.282181,74.265157 62.173134,72.806465 62.173134,71.657576 C 62.173134,70.422834 61.530103,68.96852 61.237702,67.798919 C 60.950001,66.648114 60.132765,65.355186 59.600697,64.291049 C 60.407018,57.861677 36.914587,59.677331 30.25152,63.823333 C 30.095614,63.979239 29.939709,64.135144 29.783804,64.291049 C 28.752219,65.322634 27.787982,65.476397 27.094437,66.863487 C 26.656541,67.739278 26.306483,70.035845 27.211366,70.488286 C 27.69536,70.730283 29.885109,69.030579 30.602307,68.85128 C 31.366943,68.660121 33.250193,70.116758 33.993247,70.488286 C 35.19525,71.089287 35.5642,72.811688 36.097969,73.879227 C 36.792358,75.268005 37.549485,76.22485 38.787336,77.153238 C 38.943241,77.270167 39.099147,77.387096 39.255052,77.504025 C 39.69207,77.831789 40.193451,77.857037 40.6582,78.205599 z"
       id="path3433"
       sodipodi:nodetypes="ccsssssssssssccssssssssc"
       transform="matrix(0.3417899,0,0,0.3439929,-0.9129039,-11.288441)" />
    <path
       sodipodi:type="arc"
       style="opacity:1;fill:#000000;fill-opacity:1;fill-rule:evenodd;stroke:none;stroke-width:1;stroke-linecap:butt;stroke-linejoin:miter;marker:none;marker-start:none;marker-mid:none;marker-end:none;stroke-miterlimit:4;stroke-dasharray:none;stroke-dashoffset:0;stroke-opacity:1;visibility:visible;display:inline;overflow:visible;filter:url(#filter3246);enable-background:accumulate"
       id="path3240"
       sodipodi:cx="61.202477"
       sodipodi:cy="72.414093"
       sodipodi:rx="7.3442969"
       sodipodi:ry="7.3442969"
       d="M 68.546773,72.414093 A 7.3442969,7.3442969 0 1 1 53.85818,72.414093 A 7.3442969,7.3442969 0 1 1 68.546773,72.414093 z"
       transform="matrix(0.3417899,0,0,0.3439929,-5.9975859,-11.094103)" />
    <path
       style="fill:#ffffff;fill-opacity:1;fill-rule:evenodd;stroke:none;stroke-width:1px;stroke-linecap:butt;stroke-linejoin:miter;stroke-opacity:1"
       d="M 18.918484,9.4909111 L 17.361576,10.898654 L 19.376737,13.251072 L 20.962497,11.910819 L 18.918484,9.4909111 z"
       id="path3415"
       sodipodi:nodetypes="ccccc" />
    <path
       sodipodi:type="arc"
       style="opacity:1;fill:#ffffff;fill-opacity:1;fill-rule:evenodd;stroke:none;stroke-width:3;stroke-linecap:butt;stroke-linejoin:miter;marker:none;marker-start:none;marker-mid:none;marker-end:none;stroke-miterlimit:4;stroke-dasharray:none;stroke-dashoffset:0;stroke-opacity:1;visibility:visible;display:inline;overflow:visible;enable-background:accumulate"
       id="path3419"
       sodipodi:cx="68.111137"
       sodipodi:cy="80.602646"
       sodipodi:rx="1.4616123"
       sodipodi:ry="2.1631863"
       d="M 69.57275,80.602646 A 1.4616123,2.1631863 0 1 1 69.379049,79.526501"
       sodipodi:start="0"
       sodipodi:end="5.7624925"
       sodipodi:open="true"
       transform="matrix(0.5126848,0,0,0.5159894,-16.188907,-24.437301)" />
    <path
       sodipodi:type="arc"
       style="opacity:0.5;fill:url(#linearGradient3364);fill-opacity:1;fill-rule:evenodd;stroke:none;stroke-width:1;stroke-linecap:butt;stroke-linejoin:round;marker:none;marker-start:none;marker-mid:none;marker-end:none;stroke-miterlimit:4;stroke-dasharray:none;stroke-dashoffset:0;stroke-opacity:1;visibility:visible;display:inline;overflow:visible;filter:url(#filter3374);enable-background:accumulate"
       id="path3356"
       sodipodi:cx="54.003181"
       sodipodi:cy="66.260887"
       sodipodi:rx="13.899552"
       sodipodi:ry="12.190592"
       d="M 67.902734,66.260887 A 13.899552,12.190592 0 1 1 40.103629,66.260887 A 13.899552,12.190592 0 1 1 67.902734,66.260887 z"
       transform="matrix(0.1978543,-8.2498575e-2,7.2013085e-2,0.2266629,-2.1756599,5.2371833)" />
    <path
       style="fill:#ffffff;fill-opacity:1;fill-rule:evenodd;stroke:none;stroke-width:1px;stroke-linecap:butt;stroke-linejoin:miter;stroke-opacity:1"
       d="M 15.034199,13.164365 L 16.699823,15.071946 L 18.020836,13.915836 L 16.240342,11.950449 L 15.034199,13.164365 z"
       id="path3417" />
  </g>
</svg>
