<svg xmlns="http://www.w3.org/2000/svg" xmlns:xlink="http://www.w3.org/1999/xlink" width="24" height="24" version="1">
  <defs>
    <linearGradient id="a">
      <stop offset="0" stop-color="#87d2e1"/>
      <stop offset="1" stop-color="#1365a1"/>
    </linearGradient>
    <linearGradient xlink:href="#a" id="b" x1="43.5" y1="28.5" x2="41.5" y2="33.5" gradientUnits="userSpaceOnUse" gradientTransform="translate(-29 -19)"/>
  </defs>
  <g fill-rule="evenodd">
    <path style="marker:none" d="M24 38a10 10 0 1 1-20 0 10 10 0 1 1 20 0z" opacity=".5" fill="#276fa1" overflow="visible"/>
    <path style="marker:none" d="M25 44a11 11 0 1 1-22 0 11 11 0 1 1 22 0z" fill="#c2def1" overflow="visible"/>
    <path d="M14 24l-8.5 6.5L14 37V24z" fill="#296e9f"/>
    <path style="marker:none" d="M10 5.5L1.5 12l8.5 6.5v-4c4.372 0 8.133 2.553 9.906 6.25.051-.409.094-.827.094-1.25 0-5.52-4.48-10-10-10v-4z" fill="#005da0" overflow="visible"/>
    <path style="marker:none" d="M9.25 6.531L2.75 11.5l6.5 4.969V13.25H10c3.603 0 6.785 1.658 8.938 4.219-.756-4.35-4.369-7.719-8.938-7.719h-.75V6.531z" fill="url(#b)" overflow="visible"/>
  </g>
</svg>
